<?xml version="1.0" encoding="UTF-8"?>
<svg width="273px" height="171px" viewBox="0 0 273 171" version="1.1" xmlns="http://www.w3.org/2000/svg" xmlns:xlink="http://www.w3.org/1999/xlink">
    <!-- Generator: Sketch 40.3 (33839) - http://www.bohemiancoding.com/sketch -->
    <title>1000</title>
    <desc>Created with Sketch.</desc>
    <defs></defs>
    <g id="landing" stroke="none" stroke-width="1" fill="none" fill-rule="evenodd">
        <g id="Bart-Landing" transform="translate(-142.000000, -5701.000000)">
            <g id="Variant-2" transform="translate(0.000000, -4.000000)">
                <g id="Content" transform="translate(-678.000000, -92.000000)">
                    <g id="STATISTICKA" transform="translate(678.000000, 5428.000000)">
                        <g id="Group" transform="translate(142.000000, 369.171434)">
                            <g id="1000">
                                <path d="M18.6646852,55.8905966 L0.580641918,62.8052021 L0.580641918,77.6222139 L14.6094755,72.3539431 L14.6094755,116.365956 L0.580641918,116.365956 L0.580641918,130.524434 L43.1055438,130.524434 L43.1055438,116.365956 L30.6111139,116.365956 L30.6111139,55.8905966 L18.6646852,55.8905966 Z M50.2295609,93.2075153 C50.2295609,114.719621 60.4223853,132.061013 84.2056422,132.061013 C107.988899,132.061013 118.181724,114.719621 118.181724,93.2075153 C118.181724,71.6954092 107.988899,54.3540175 84.2056422,54.3540175 C60.4223853,54.3540175 50.2295609,71.6954092 50.2295609,93.2075153 L50.2295609,93.2075153 Z M101.741684,93.2075153 C101.741684,109.122084 96.2616711,117.573268 84.2056422,117.573268 C72.1496134,117.573268 66.6696002,109.122084 66.6696002,93.2075153 C66.6696002,77.292947 72.1496134,68.8417625 84.2056422,68.8417625 C96.2616711,68.8417625 101.741684,77.292947 101.741684,93.2075153 L101.741684,93.2075153 Z M127.607346,93.2075153 C127.607346,114.719621 137.800171,132.061013 161.583428,132.061013 C185.366685,132.061013 195.559509,114.719621 195.559509,93.2075153 C195.559509,71.6954092 185.366685,54.3540175 161.583428,54.3540175 C137.800171,54.3540175 127.607346,71.6954092 127.607346,93.2075153 L127.607346,93.2075153 Z M179.11947,93.2075153 C179.11947,109.122084 173.639456,117.573268 161.583428,117.573268 C149.527399,117.573268 144.047386,109.122084 144.047386,93.2075153 C144.047386,77.292947 149.527399,68.8417625 161.583428,68.8417625 C173.639456,68.8417625 179.11947,77.292947 179.11947,93.2075153 L179.11947,93.2075153 Z M204.985132,93.2075153 C204.985132,114.719621 215.177956,132.061013 238.961213,132.061013 C262.74447,132.061013 272.937294,114.719621 272.937294,93.2075153 C272.937294,71.6954092 262.74447,54.3540175 238.961213,54.3540175 C215.177956,54.3540175 204.985132,71.6954092 204.985132,93.2075153 L204.985132,93.2075153 Z M256.497255,93.2075153 C256.497255,109.122084 251.017242,117.573268 238.961213,117.573268 C226.905184,117.573268 221.425171,109.122084 221.425171,93.2075153 C221.425171,77.292947 226.905184,68.8417625 238.961213,68.8417625 C251.017242,68.8417625 256.497255,77.292947 256.497255,93.2075153 L256.497255,93.2075153 Z" id="1000-" fill="#F7C7B8"></path>
                                <path d="M218.449581,37.5534755 C216.388591,35.9364898 214.057786,34.1070117 211.275286,34.2010854 L210.82269,34.2194192 L210.545371,34.5755769 C209.579254,35.8294922 208.369432,36.9126923 206.884992,37.8663533 L205.575527,36.4173777 C206.146673,36.0690345 206.657794,35.6969475 207.129597,35.2957066 C207.150906,35.2761705 207.179118,35.2638478 207.194125,35.2373989 C211.308,31.7569723 211.479974,26.65415 211.644745,21.7022062 C211.690064,20.3818682 211.727581,19.0681424 211.845231,17.813626 C212.193982,13.9599101 213.200916,10.5020251 216.937528,8.14657581 C217.700758,7.66418508 218.922285,7.04023295 219.922916,6.5900016 C219.325058,7.87547522 218.418067,9.46781547 217.640732,9.96343062 C216.008928,10.998542 214.978883,12.3110655 214.331204,13.7720633 C214.272078,13.8652353 214.226459,13.9584073 214.193444,14.0663066 C213.11628,16.7397431 213.227028,19.8763348 213.342577,22.7730836 L213.406505,24.6470439 L214.745983,23.994539 C216.233124,23.2599827 218.034802,23.076043 219.958632,23.4598517 C220.452945,23.5599365 221.026792,23.7189301 221.64776,23.8869403 C224.300605,24.615185 228.295628,25.7191235 230.082899,22.3895755 C230.286387,22.0093734 230.520488,21.979919 230.603324,21.9700007 C230.885746,21.9363386 231.247402,22.0914249 231.493808,22.3640283 C231.681689,22.5720123 231.941301,22.9897837 231.639671,23.5497177 C230.553502,25.5784637 228.089739,26.8323791 225.658991,26.5949406 C224.814727,26.5116869 223.828801,26.2568163 222.78195,25.9785024 C219.952029,25.2409405 216.757751,24.4032938 214.427846,26.5408408 C213.890314,27.0277398 213.119881,29.0312393 213.00073,29.5049139 C212.857868,30.0390001 212.673289,30.5845074 212.437687,31.1895245 L212.014204,32.2784352 L213.152295,32.4999442 C214.433548,32.7488037 215.632865,33.2540366 216.731339,33.9937024 C217.287479,34.3781122 217.853824,34.8172231 218.459785,35.2860888 C220.698451,37.0425321 223.240247,39.0328071 226.394308,38.4845949 C226.753263,38.4199755 227.029382,38.5092404 227.243374,38.7463782 C227.515892,39.0475343 227.615235,39.518504 227.495183,39.8755633 C227.399442,40.1448605 227.192953,40.3053569 226.855007,40.3645662 C224.625945,40.7531838 222.431699,40.3008486 220.502166,39.0607587 C219.83888,38.6435884 219.16719,38.1167156 218.449581,37.5534755 L218.449581,37.5534755 Z M211.034282,51.1256365 L210.976056,51.0610172 L194.233634,32.5348086 L194.175408,32.4704898 L197.041045,29.8724926 L203.019624,36.4883087 L206.514932,40.3555496 L213.900818,48.528541 L211.034282,51.1256365 Z M232.884308,42.9403223 C233.086895,42.4432044 232.841089,41.8823688 232.344675,41.6797948 L229.31967,40.4664543 C229.521957,39.8394967 229.502149,39.1398047 229.280653,38.5050326 L231.609058,36.3948361 C232.003128,36.0377768 232.033741,35.4228413 231.676887,35.0282127 C231.320633,34.6332834 230.706268,34.6029274 230.312198,34.9596861 L228.098143,36.9664917 C227.508389,36.5874919 226.796782,36.4492366 226.05156,36.5763713 C224.139435,36.9123918 222.373173,35.8376072 220.671739,34.5605491 L222.907404,32.534508 C223.301474,32.1774487 223.332087,31.5622127 222.975233,31.1678846 C222.618679,30.7729553 222.004014,30.7422987 221.610544,31.0996586 L219.116768,33.3595314 C218.681881,33.0226093 218.246993,32.6856872 217.810305,32.38934 C216.817777,31.7100857 215.742113,31.197339 214.602521,30.8592146 C214.698562,30.5763924 214.781398,30.292969 214.856731,30.0152562 C215.000192,29.4679456 215.585145,28.1677448 215.724405,27.9759908 C217.279976,26.5531635 219.819672,27.2143844 222.284335,27.865086 C223.405619,28.1539193 224.466276,28.4331349 225.459705,28.537728 C226.39941,28.62549 227.32711,28.5416352 228.221196,28.318924 L231.164866,31.5763388 C231.52142,31.971268 232.135485,32.0019246 232.529855,31.6451659 C232.923925,31.2875055 232.954538,30.6722694 232.597984,30.2779413 L230.172938,27.5945865 C230.552002,27.3938158 230.91996,27.1521696 231.254905,26.8876812 L235.077654,28.5656796 C235.566865,28.7751664 236.138612,28.556663 236.347802,28.0670589 C236.556992,27.5774549 236.338798,27.0048976 235.850187,26.7954108 L232.730642,25.4200713 C232.957239,25.1228224 233.157426,24.8111469 233.338104,24.4775309 C233.557798,24.0570544 233.682352,23.6176431 233.697659,23.1731223 L236.665639,22.5058902 C237.184563,22.3880727 237.511704,21.8696154 237.393753,21.3502564 C237.275802,20.8302963 236.758379,20.5032924 236.239455,20.62111 L233.0983,21.3277147 C233.034373,21.2420566 232.976448,21.1639123 232.905017,21.0845658 C232.282548,20.3959943 231.40497,20.0302189 230.554403,20.0701927 L230.139624,16.3084467 C230.076897,15.7779671 229.603292,15.3974645 229.073864,15.4467556 C228.544135,15.5089704 228.164472,15.9835467 228.213693,16.5137257 L228.709507,20.9850821 C228.585253,21.1365618 228.467302,21.3084792 228.362257,21.4951239 C227.729284,22.6696927 226.581889,22.8999178 225.039223,22.6928354 L225.191689,19.6310819 C225.218101,19.0978974 224.809924,18.6461633 224.277195,18.6191133 C223.745065,18.592965 223.29337,19.0014192 223.267259,19.5349043 L223.1295,22.2958023 C222.812263,22.2185597 222.48122,22.1265899 222.150477,22.03462 C221.503098,21.8518826 220.888433,21.6907851 220.32629,21.5738693 C218.523713,21.2231216 216.789865,21.2805276 215.233993,21.7511967 C215.158061,19.4312129 215.158661,17.2251393 215.779329,15.3310419 L222.371973,15.6601496 C222.904703,15.686899 223.355797,15.2778437 223.382509,14.7446591 C223.40862,14.2114746 223.000744,13.7597405 222.468014,13.7326905 L216.721735,13.4462617 C217.207645,12.7576902 217.833715,12.1376453 218.666574,11.6176852 C220.680143,10.3415288 222.417592,5.81667365 222.501329,5.23209423 L222.559554,4.74850128 L221.989308,4.11703528 L221.586834,4.08998533 C220.795092,4.05061263 219.059744,4.82724668 217.697756,5.5266381 L217.900344,1.45291599 C217.927055,0.920032022 217.518279,0.467997341 216.986149,0.441247949 C216.45372,0.414799111 216.002325,0.82385443 215.975613,1.35703895 L215.711799,6.66063202 C212.140259,8.99654527 210.758463,12.1544764 210.184315,15.5723875 L207.480448,12.5803628 C207.123895,12.1857341 206.50983,12.1550775 206.11546,12.5121368 C205.72139,12.8691961 205.690776,13.4844321 206.04763,13.8790608 L209.879683,18.1195909 C209.794147,19.2935587 209.748527,20.4837564 209.711011,21.6535163 C209.659088,23.2404466 209.609567,24.7862008 209.425888,26.2703413 L206.936014,23.5157549 C206.57946,23.1208257 205.965095,23.0901691 205.571025,23.4469279 C205.176955,23.8045883 205.146341,24.4195237 205.503195,24.8141524 L208.9916,28.6744805 C208.593929,30.2097153 207.94805,31.6301381 206.875087,32.8509924 L205.475583,29.2115722 C205.2817,28.7081427 204.72586,28.4679992 204.230947,28.6558461 C203.735433,28.843693 203.488726,29.406933 203.675707,29.9025481 L205.348028,34.2473708 C205.064406,34.4526499 204.766678,34.6570273 204.429032,34.8457758 C204.366005,34.8770335 204.314983,34.9359423 204.257958,34.9741128 L197.177003,27.1389451 L191.445431,32.3337373 L193.137561,34.2064954 L185.453946,45.8953788 L196.834256,58.4877306 L209.212496,51.9942404 L210.898623,53.8594845 L216.630496,48.6646924 L208.187854,39.3228427 C208.294099,39.2522123 208.413851,39.1830846 208.519797,39.1124542 L213.388197,40.5485059 C213.900818,40.6972806 214.435349,40.4087478 214.590816,39.8890882 C214.73938,39.3754398 214.451256,38.8404519 213.932332,38.6844639 L210.345484,37.6283137 C210.854804,37.1534369 211.336812,36.6773578 211.766898,36.1441733 C213.682924,36.274013 215.500508,37.6938347 217.258367,39.0766881 C217.5678,39.3183343 217.864628,39.5452534 218.161156,39.7727735 L217.954367,43.927946 C217.940561,44.2008499 218.0312,44.4458022 218.199573,44.6321463 C218.368245,44.8187909 218.602046,44.9330018 218.867961,44.953139 C219.400391,44.9798884 219.851485,44.5708331 219.878197,44.0376485 L220.027361,41.0438205 C221.145344,41.6752865 222.328454,42.0906534 223.543378,42.2950308 L223.992672,46.4562144 C224.017283,46.6560835 224.10372,46.8382198 224.239979,46.9893989 C224.440765,47.2115091 224.735793,47.3362394 225.058732,47.3037794 C225.595663,47.2487779 225.974727,46.7742016 225.919503,46.2374104 L225.514028,42.4278761 C226.068067,42.4215645 226.624807,42.3737762 227.176746,42.2781997 C227.466971,42.2240998 227.724782,42.1339333 227.977491,42.0098041 L231.633068,43.4735069 C232.115376,43.6757804 232.68172,43.4365386 232.884308,42.9403223 L232.884308,42.9403223 Z" id="Fill-1" fill="#F7C7B8"></path>
                                <path d="M23.4133265,119.979216 L23.4133265,113.178635 L27.4743081,113.178635 L32.7415219,119.979216 L33.6864038,119.979216 L28.0975281,112.798602 L33.1637032,105.978019 L32.2389252,105.978019 L27.4743081,112.41857 L23.4133265,112.41857 L23.4133265,105.978019 L22.6091717,105.978019 L22.6091717,119.979216 L23.4133265,119.979216 Z M35.3483241,115.178806 C35.3483241,118.399081 37.7607885,120.199235 40.3541876,120.199235 C42.9676907,120.199235 45.380155,118.399081 45.380155,115.178806 C45.380155,111.95853 42.9676907,110.158377 40.3541876,110.158377 C37.7607885,110.158377 35.3483241,111.95853 35.3483241,115.178806 L35.3483241,115.178806 Z M44.616208,115.178806 C44.616208,117.899038 42.6460288,119.459172 40.3541876,119.459172 C38.0824504,119.459172 36.1122712,117.899038 36.1122712,115.178806 C36.1122712,112.458573 38.0824504,110.89844 40.3541876,110.89844 C42.6460288,110.89844 44.616208,112.458573 44.616208,115.178806 L44.616208,115.178806 Z M49.9973441,119.979216 L49.9973441,111.518493 L54.0382219,117.198978 L54.5810264,117.198978 L58.6219042,111.518493 L58.6219042,119.979216 L59.3456435,119.979216 L59.3456435,110.378395 L58.5213848,110.378395 L54.3196761,116.338905 L50.0978635,110.378395 L49.2736048,110.378395 L49.2736048,119.979216 L49.9973441,119.979216 Z M64.7066758,119.979216 L64.7066758,115.538836 L71.5218875,115.538836 L71.5218875,119.979216 L72.2858346,119.979216 L72.2858346,110.378395 L71.5218875,110.378395 L71.5218875,114.818775 L64.7066758,114.818775 L64.7066758,110.378395 L63.9427287,110.378395 L63.9427287,119.979216 L64.7066758,119.979216 Z M84.3012477,118.439084 L84.3012477,114.05871 C84.3012477,111.618501 82.8336652,110.158377 80.2804738,110.158377 C78.7525797,110.158377 77.5262437,110.498406 76.7824005,110.758428 L76.7824005,111.498491 C77.5664514,111.198465 78.7726836,110.878438 80.2201622,110.878438 C82.3913801,110.878438 83.5373007,112.118544 83.5373007,113.978703 L83.5373007,114.858778 C82.5321072,114.538751 81.3861866,114.338734 80.240266,114.338734 C78.1695675,114.338734 76.0385573,115.118801 76.0385573,117.398995 C76.0385573,119.31916 77.6870746,120.199235 79.3556958,120.199235 C81.0645247,120.199235 82.5723149,119.479173 83.5373007,118.199064 L83.5373007,118.459086 C83.5373007,119.619185 84.2811438,120.019219 85.0651947,120.019219 C85.3868567,120.019219 85.7085186,119.959214 86.0100766,119.859206 L86.0100766,119.219151 C85.7688302,119.299158 85.5074799,119.359163 85.2662334,119.359163 C84.7435328,119.359163 84.3012477,119.139144 84.3012477,118.439084 L84.3012477,118.439084 Z M76.8226082,117.378994 C76.8226082,115.598842 78.5917487,114.99879 80.3206815,114.99879 C81.4464982,114.99879 82.5924188,115.218809 83.5373007,115.518835 L83.5373007,117.258983 C82.6728343,118.73911 81.1047324,119.519177 79.4964229,119.519177 C78.1293597,119.519177 76.8226082,118.839119 76.8226082,117.378994 L76.8226082,117.378994 Z M91.9340172,119.979216 L91.9340172,111.098457 L95.8140641,111.098457 L95.8140641,110.378395 L87.2699195,110.378395 L87.2699195,111.098457 L91.1700702,111.098457 L91.1700702,119.979216 L91.9340172,119.979216 Z M99.848241,119.979216 L99.848241,115.538836 L106.663453,115.538836 L106.663453,119.979216 L107.4274,119.979216 L107.4274,110.378395 L106.663453,110.378395 L106.663453,114.818775 L99.848241,114.818775 L99.848241,110.378395 L99.0842939,110.378395 L99.0842939,119.979216 L99.848241,119.979216 Z M116.306609,119.979216 C118.538139,119.979216 119.94541,118.719108 119.94541,116.97896 C119.94541,115.238811 118.538139,113.978703 116.306609,113.978703 L112.788432,113.978703 L112.788432,110.378395 L112.024485,110.378395 L112.024485,119.979216 L116.306609,119.979216 Z M112.788432,114.678763 L116.226194,114.678763 C118.035542,114.678763 119.161359,115.57884 119.161359,116.97896 C119.161359,118.359077 118.055646,119.279156 116.226194,119.279156 L112.788432,119.279156 L112.788432,114.678763 Z M122.659432,119.979216 L122.659432,110.378395 L121.895485,110.378395 L121.895485,119.979216 L122.659432,119.979216 Z M133.910898,110.378395 L130.473136,114.498748 L127.035375,110.378395 L126.150804,110.378395 L130.030851,115.058795 L125.929662,119.979216 L126.834336,119.979216 L130.473136,115.598842 L134.132041,119.979216 L135.016611,119.979216 L130.935525,115.058795 L134.815572,110.378395 L133.910898,110.378395 Z M145.638156,112.65859 L145.638156,110.378395 L144.934521,110.378395 L144.934521,124.379592 L145.698468,124.379592 L145.698468,117.779028 C146.442311,119.099141 147.929997,120.199235 149.92028,120.199235 C152.654407,120.199235 154.725105,118.199064 154.725105,115.178806 C154.725105,112.158548 152.654407,110.158377 149.92028,110.158377 C147.929997,110.158377 146.442311,111.258471 145.638156,112.65859 L145.638156,112.65859 Z M153.961158,115.178806 C153.961158,117.879036 152.171914,119.479173 149.839865,119.479173 C147.849582,119.479173 146.28148,118.179062 145.698468,116.578925 L145.698468,113.778686 C146.28148,112.178549 147.849582,110.878438 149.839865,110.878438 C152.171914,110.878438 153.961158,112.498577 153.961158,115.178806 L153.961158,115.178806 Z M166.056987,118.439084 L166.056987,114.05871 C166.056987,111.618501 164.589404,110.158377 162.036213,110.158377 C160.508319,110.158377 159.281983,110.498406 158.53814,110.758428 L158.53814,111.498491 C159.32219,111.198465 160.528423,110.878438 161.975901,110.878438 C164.147119,110.878438 165.29304,112.118544 165.29304,113.978703 L165.29304,114.858778 C164.287846,114.538751 163.141926,114.338734 161.996005,114.338734 C159.925307,114.338734 157.794296,115.118801 157.794296,117.398995 C157.794296,119.31916 159.442814,120.199235 161.111435,120.199235 C162.820264,120.199235 164.328054,119.479173 165.29304,118.199064 L165.29304,118.459086 C165.29304,119.619185 166.036883,120.019219 166.820934,120.019219 C167.142596,120.019219 167.464258,119.959214 167.765816,119.859206 L167.765816,119.219151 C167.524569,119.299158 167.263219,119.359163 167.021972,119.359163 C166.499272,119.359163 166.056987,119.139144 166.056987,118.439084 L166.056987,118.439084 Z M158.578347,117.378994 C158.578347,115.598842 160.347488,114.99879 162.076421,114.99879 C163.202237,114.99879 164.348158,115.218809 165.29304,115.518835 L165.29304,117.258983 C164.428573,118.73911 162.860471,119.519177 161.252162,119.519177 C159.885099,119.519177 158.578347,118.839119 158.578347,117.378994 L158.578347,117.378994 Z M170.211787,115.258813 C170.211787,118.659103 172.724771,120.199235 175.21765,120.199235 C176.343467,120.199235 177.429076,119.979216 178.373958,119.479173 L178.373958,118.719108 C177.489388,119.219151 176.383675,119.479173 175.298066,119.479173 C173.106744,119.479173 170.975734,118.15906 170.975734,115.238811 C170.975734,112.158548 173.267575,110.878438 175.479001,110.878438 C176.443986,110.878438 177.489388,111.13846 178.273439,111.678506 L178.273439,110.938443 C177.44918,110.398397 176.383675,110.158377 175.398585,110.158377 C172.905705,110.158377 170.211787,111.698508 170.211787,115.258813 L170.211787,115.258813 Z M185.564442,119.979216 L185.564442,111.098457 L189.444489,111.098457 L189.444489,110.378395 L180.900345,110.378395 L180.900345,111.098457 L184.800495,111.098457 L184.800495,119.979216 L185.564442,119.979216 Z M191.508487,115.178806 C191.508487,118.679105 194.021471,120.199235 196.775701,120.199235 C197.961829,120.199235 199.168061,119.939213 200.012424,119.479173 L200.012424,118.719108 C199.188165,119.199149 198.022141,119.479173 196.87622,119.479173 C194.564275,119.479173 192.393057,118.339076 192.272434,115.558838 L200.575332,115.558838 C201.017617,113.198636 199.831489,110.158377 196.232896,110.158377 C193.86064,110.158377 191.508487,111.918527 191.508487,115.178806 L191.508487,115.178806 Z M199.911904,114.87878 L192.272434,114.87878 C192.352849,112.278558 194.222509,110.878438 196.273104,110.878438 C199.208269,110.878438 200.092839,113.23864 199.911904,114.87878 L199.911904,114.87878 Z M205.232729,119.979216 L205.232729,115.538836 L212.047941,115.538836 L212.047941,119.979216 L212.811888,119.979216 L212.811888,110.378395 L212.047941,110.378395 L212.047941,114.818775 L205.232729,114.818775 L205.232729,110.378395 L204.468782,110.378395 L204.468782,119.979216 L205.232729,119.979216 Z M218.092504,119.979216 L225.148963,111.578498 L225.148963,119.979216 L225.91291,119.979216 L225.91291,110.378395 L225.209274,110.378395 L218.17292,118.779113 L218.17292,110.378395 L217.408973,110.378395 L217.408973,119.979216 L218.092504,119.979216 Z M237.325207,107.938187 L237.325207,107.198124 C236.480844,107.85818 235.696793,108.078199 234.751911,108.078199 C233.80703,108.078199 233.022979,107.85818 232.178616,107.198124 L232.178616,107.938187 C232.942563,108.55824 233.80703,108.758257 234.751911,108.758257 C235.696793,108.758257 236.56126,108.55824 237.325207,107.938187 L237.325207,107.938187 Z M231.193527,119.979216 L238.249985,111.578498 L238.249985,119.979216 L239.013932,119.979216 L239.013932,110.378395 L238.310296,110.378395 L231.273942,118.779113 L231.273942,110.378395 L230.509995,110.378395 L230.509995,119.979216 L231.193527,119.979216 Z M243.229044,122.859462 L244.415172,118.499089 L243.611017,118.499089 L242.58572,122.859462 L243.229044,122.859462 Z M22.9710413,143.684946 L22.9710413,139.104554 L25.3835057,139.104554 L29.5852144,143.684946 L30.5099924,143.684946 L26.0469334,138.764525 L29.967188,134.084125 L29.0625138,134.084125 L25.4438173,138.384493 L22.9710413,138.384493 L22.9710413,134.084125 L22.2070943,134.084125 L22.2070943,143.684946 L22.9710413,143.684946 Z M32.433263,138.884536 C32.433263,142.104811 34.8457274,143.904965 37.4391265,143.904965 C40.0526296,143.904965 42.4650939,142.104811 42.4650939,138.884536 C42.4650939,135.66426 40.0526296,133.864106 37.4391265,133.864106 C34.8457274,133.864106 32.433263,135.66426 32.433263,138.884536 L32.433263,138.884536 Z M41.7011469,138.884536 C41.7011469,141.604768 39.7309677,143.164901 37.4391265,143.164901 C35.1673893,143.164901 33.1972101,141.604768 33.1972101,138.884536 C33.1972101,136.164303 35.1673893,134.60417 37.4391265,134.60417 C39.7309677,134.60417 41.7011469,136.164303 41.7011469,138.884536 L41.7011469,138.884536 Z M49.1529816,143.684946 L49.1529816,134.804187 L53.0330284,134.804187 L53.0330284,134.084125 L44.4888839,134.084125 L44.4888839,134.804187 L48.3890346,134.804187 L48.3890346,143.684946 L49.1529816,143.684946 Z M55.0769222,138.884536 C55.0769222,142.104811 57.4893866,143.904965 60.0827858,143.904965 C62.6962888,143.904965 65.1087532,142.104811 65.1087532,138.884536 C65.1087532,135.66426 62.6962888,133.864106 60.0827858,133.864106 C57.4893866,133.864106 55.0769222,135.66426 55.0769222,138.884536 L55.0769222,138.884536 Z M64.3448061,138.884536 C64.3448061,141.604768 62.3746269,143.164901 60.0827858,143.164901 C57.8110485,143.164901 55.8408693,141.604768 55.8408693,138.884536 C55.8408693,136.164303 57.8110485,134.60417 60.0827858,134.60417 C62.3746269,134.60417 64.3448061,136.164303 64.3448061,138.884536 L64.3448061,138.884536 Z M69.7058384,136.36432 L69.7058384,134.084125 L69.002203,134.084125 L69.002203,148.085322 L69.76615,148.085322 L69.76615,141.484758 C70.5099932,142.804871 71.9976795,143.904965 73.9879626,143.904965 C76.7220889,143.904965 78.7927874,141.904794 78.7927874,138.884536 C78.7927874,135.864277 76.7220889,133.864106 73.9879626,133.864106 C71.9976795,133.864106 70.5099932,134.9642 69.7058384,136.36432 L69.7058384,136.36432 Z M78.0288404,138.884536 C78.0288404,141.584766 76.239596,143.184903 73.9075471,143.184903 C71.9172641,143.184903 70.3491622,141.884792 69.76615,140.284655 L69.76615,137.484416 C70.3491622,135.884279 71.9172641,134.584168 73.9075471,134.584168 C76.239596,134.584168 78.0288404,136.204306 78.0288404,138.884536 L78.0288404,138.884536 Z M86.9884653,143.684946 C89.2199949,143.684946 90.6272657,142.424838 90.6272657,140.684689 C90.6272657,138.944541 89.2199949,137.684433 86.9884653,137.684433 L83.4702882,137.684433 L83.4702882,134.084125 L82.7063411,134.084125 L82.7063411,143.684946 L86.9884653,143.684946 Z M83.4702882,138.384493 L86.9080499,138.384493 C88.7173981,138.384493 89.8432148,139.28457 89.8432148,140.684689 C89.8432148,142.064807 88.737502,142.984886 86.9080499,142.984886 L83.4702882,142.984886 L83.4702882,138.384493 Z M93.3412881,143.684946 L93.3412881,134.084125 L92.5773411,134.084125 L92.5773411,143.684946 L93.3412881,143.684946 Z M97.2548418,138.884536 C97.2548418,142.384835 99.7678255,143.904965 102.522056,143.904965 C103.708184,143.904965 104.914416,143.644942 105.758779,143.184903 L105.758779,142.424838 C104.93452,142.904879 103.768496,143.184903 102.622575,143.184903 C100.31063,143.184903 98.1394121,142.044806 98.0187888,139.264568 L106.321687,139.264568 C106.763972,136.904366 105.577844,133.864106 101.979251,133.864106 C99.6069945,133.864106 97.2548418,135.624257 97.2548418,138.884536 L97.2548418,138.884536 Z M105.658259,138.58451 L98.0187888,138.58451 C98.0992043,135.984288 99.9688642,134.584168 102.019459,134.584168 C104.954624,134.584168 105.839194,136.94437 105.658259,138.58451 L105.658259,138.58451 Z M117.60666,143.684946 L117.60666,139.244566 L124.421872,139.244566 L124.421872,143.684946 L125.185819,143.684946 L125.185819,134.084125 L124.421872,134.084125 L124.421872,138.524505 L117.60666,138.524505 L117.60666,134.084125 L116.842713,134.084125 L116.842713,143.684946 L117.60666,143.684946 Z M137.201232,142.144814 L137.201232,137.76444 C137.201232,135.324231 135.733649,133.864106 133.180458,133.864106 C131.652564,133.864106 130.426228,134.204136 129.682385,134.464158 L129.682385,135.204221 C130.466436,134.904195 131.672668,134.584168 133.120146,134.584168 C135.291364,134.584168 136.437285,135.824274 136.437285,137.684433 L136.437285,138.564508 C135.432091,138.244481 134.286171,138.044464 133.14025,138.044464 C131.069552,138.044464 128.938541,138.82453 128.938541,141.104725 C128.938541,143.024889 130.587059,143.904965 132.25568,143.904965 C133.964509,143.904965 135.472299,143.184903 136.437285,141.904794 L136.437285,142.164816 C136.437285,143.324915 137.181128,143.724949 137.965179,143.724949 C138.286841,143.724949 138.608503,143.664944 138.910061,143.564936 L138.910061,142.924881 C138.668814,143.004888 138.407464,143.064893 138.166218,143.064893 C137.643517,143.064893 137.201232,142.844874 137.201232,142.144814 L137.201232,142.144814 Z M129.722592,141.084724 C129.722592,139.304571 131.491733,138.70452 133.220666,138.70452 C134.346482,138.70452 135.492403,138.924539 136.437285,139.224565 L136.437285,140.964713 C135.572818,142.44484 134.004717,143.224907 132.396407,143.224907 C131.029344,143.224907 129.722592,142.544848 129.722592,141.084724 L129.722592,141.084724 Z M155.026663,143.684946 L155.026663,134.084125 L154.262716,134.084125 L154.262716,142.964884 L148.915087,142.964884 L148.915087,134.084125 L148.15114,134.084125 L148.15114,142.964884 L142.803511,142.964884 L142.803511,134.084125 L142.039564,134.084125 L142.039564,143.684946 L155.026663,143.684946 Z M162.337771,134.804187 L167.383842,134.804187 L167.383842,143.684946 L168.147789,143.684946 L168.147789,134.084125 L161.593928,134.084125 C161.412993,139.824616 160.66915,143.1449 158.859801,143.1449 C158.638659,143.1449 158.397412,143.124898 158.156166,143.024889 L158.156166,143.644942 C158.497932,143.764953 158.779386,143.804956 159.06084,143.804956 C161.312474,143.804956 162.096524,140.384664 162.337771,134.804187 L162.337771,134.804187 Z M173.428406,143.684946 L180.484864,135.284228 L180.484864,143.684946 L181.248811,143.684946 L181.248811,134.084125 L180.545176,134.084125 L173.508821,142.484843 L173.508821,134.084125 L172.744874,134.084125 L172.744874,143.684946 L173.428406,143.684946 Z M21.5235627,162.670272 C21.5235627,166.070563 24.0365464,167.610695 26.5294263,167.610695 C27.655243,167.610695 28.7408519,167.390676 29.6857338,166.890633 L29.6857338,166.130568 C28.8011635,166.630611 27.6954507,166.890633 26.6098417,166.890633 C24.41852,166.890633 22.2875098,165.57052 22.2875098,162.650271 C22.2875098,159.570007 24.5793509,158.289898 26.7907766,158.289898 C27.7557623,158.289898 28.8011635,158.54992 29.5852144,159.089966 L29.5852144,158.349903 C28.7609558,157.809857 27.6954507,157.569836 26.7103611,157.569836 C24.2174813,157.569836 21.5235627,159.109968 21.5235627,162.670272 L21.5235627,162.670272 Z M38.7257742,167.390676 C40.5552263,167.390676 41.7815624,166.510601 41.7815624,164.850459 C41.7815624,163.430337 40.8969921,162.710276 39.831487,162.490257 C40.8366805,162.190231 41.4196927,161.370161 41.4196927,160.290069 C41.4196927,158.709934 40.293876,157.789855 38.4845278,157.789855 L33.5389759,157.789855 L33.5389759,167.390676 L38.7257742,167.390676 Z M34.3029229,162.850288 L38.7056703,162.850288 C39.9320064,162.850288 41.0176153,163.330329 41.0176153,164.810455 C41.0176153,166.190573 39.9722141,166.710618 38.6252548,166.710618 L34.3029229,166.710618 L34.3029229,162.850288 Z M34.3029229,158.469913 L38.4041123,158.469913 C39.7912793,158.469913 40.6557457,159.12997 40.6557457,160.350074 C40.6557457,161.530175 39.8917986,162.190231 38.4644239,162.190231 L34.3029229,162.190231 L34.3029229,158.469913 Z M45.0718961,162.590265 C45.0718961,165.810541 47.4843604,167.610695 50.0777596,167.610695 C52.6912627,167.610695 55.103727,165.810541 55.103727,162.590265 C55.103727,159.36999 52.6912627,157.569836 50.0777596,157.569836 C47.4843604,157.569836 45.0718961,159.36999 45.0718961,162.590265 L45.0718961,162.590265 Z M54.33978,162.590265 C54.33978,165.310498 52.3696007,166.870631 50.0777596,166.870631 C47.8060224,166.870631 45.8358431,165.310498 45.8358431,162.590265 C45.8358431,159.870033 47.8060224,158.3099 50.0777596,158.3099 C52.3696007,158.3099 54.33978,159.870033 54.33978,162.590265 L54.33978,162.590265 Z M65.8123886,155.349647 L65.8123886,154.609583 C64.9680261,155.26964 64.1839752,155.489659 63.2390933,155.489659 C62.2942114,155.489659 61.5101605,155.26964 60.665798,154.609583 L60.665798,155.349647 C61.429745,155.9697 62.2942114,156.169717 63.2390933,156.169717 C64.1839752,156.169717 65.0484415,155.9697 65.8123886,155.349647 L65.8123886,155.349647 Z M59.6807084,167.390676 L66.7371666,158.989958 L66.7371666,167.390676 L67.5011136,167.390676 L67.5011136,157.789855 L66.7974782,157.789855 L59.7611239,166.190573 L59.7611239,157.789855 L58.9971768,157.789855 L58.9971768,167.390676 L59.6807084,167.390676 Z M78.3438014,170.110908 L78.3438014,167.390676 L87.9735549,167.390676 L87.9735549,170.110908 L88.737502,170.110908 L88.737502,166.690616 L87.350335,166.690616 L87.350335,157.789855 L80.6758503,157.789855 C80.6758503,161.750194 80.0928381,164.230406 78.8463982,166.690616 L77.5999583,166.690616 L77.5999583,170.110908 L78.3438014,170.110908 Z M81.3995896,158.489915 L86.5662841,158.489915 L86.5662841,166.690616 L79.650553,166.690616 C80.7562658,164.390419 81.3593819,162.070221 81.3995896,158.489915 L81.3995896,158.489915 Z M91.4649274,162.590265 C91.4649274,165.810541 93.8773917,167.610695 96.4707909,167.610695 C99.0842939,167.610695 101.496758,165.810541 101.496758,162.590265 C101.496758,159.36999 99.0842939,157.569836 96.4707909,157.569836 C93.8773917,157.569836 91.4649274,159.36999 91.4649274,162.590265 L91.4649274,162.590265 Z M100.732811,162.590265 C100.732811,165.310498 98.762632,166.870631 96.4707909,166.870631 C94.1990536,166.870631 92.2288744,165.310498 92.2288744,162.590265 C92.2288744,159.870033 94.1990536,158.3099 96.4707909,158.3099 C98.762632,158.3099 100.732811,159.870033 100.732811,162.590265 L100.732811,162.590265 Z M106.113947,167.390676 L106.113947,158.929953 L110.154825,164.610438 L110.69763,164.610438 L114.738507,158.929953 L114.738507,167.390676 L115.462247,167.390676 L115.462247,157.789855 L114.637988,157.789855 L110.436279,163.750365 L106.214467,157.789855 L105.390208,157.789855 L105.390208,167.390676 L106.113947,167.390676 Z" id="Комнатных-растений," fill="#000000"></path>
                            </g>
                        </g>
                    </g>
                </g>
            </g>
        </g>
    </g>
</svg>