<?xml version="1.0" encoding="UTF-8"?>
<svg width="222px" height="142px" viewBox="0 0 222 142" version="1.1" xmlns="http://www.w3.org/2000/svg" xmlns:xlink="http://www.w3.org/1999/xlink">
    <!-- Generator: Sketch 40.3 (33839) - http://www.bohemiancoding.com/sketch -->
    <title>4</title>
    <desc>Created with Sketch.</desc>
    <defs></defs>
    <g id="landing" stroke="none" stroke-width="1" fill="none" fill-rule="evenodd">
        <g id="Bart-Landing" transform="translate(-167.000000, -5545.000000)">
            <g id="Variant-2" transform="translate(0.000000, -4.000000)">
                <g id="Content" transform="translate(-678.000000, -92.000000)">
                    <g id="STATISTICKA" transform="translate(678.000000, 5428.000000)">
                        <g id="Group-2" transform="translate(167.000000, 198.171434)">
                            <g id="4" transform="translate(0.000000, 15.000000)">
                                <g id="bird" transform="translate(124.750016, 12.581403)">
                                    <path d="M51.6455172,22.2668741 C51.9531939,22.2668741 52.7838611,21.8774852 53.8364394,21.3838599 C55.8801205,20.4241661 58.9619857,18.9780356 63.1932903,17.8790604 C63.6386119,17.5753371 66.074236,15.9363094 69.4448855,13.9516242 C69.5324504,13.1848276 68.8961054,12.6789215 68.8961054,12.6789215 C71.2354681,12.3012143 69.8341296,10.7484513 69.8341296,10.7484513 C72.6640957,9.29033963 70.7496627,7.46230856 70.7496627,7.46230856 C73.5004606,5.07445609 72.3042399,3.41865472 72.3042399,3.41865472 C74.7443622,1.24406755 72.9585777,0.0845872478 72.9585777,0.0845872478 C65.3065436,0.806753871 53.3398383,19.692714 53.3398383,19.692714 C52.4174079,20.4076919 51.6041338,21.1106886 50.8679287,21.7867276 C51.2961572,22.0302455 51.553754,22.1901944 51.6455172,22.2668741" id="Fill-7" fill="#F7C7B8"></path>
                                    <path d="M51.6455172,22.2668741 C51.9531939,22.2668741 52.7838611,21.8774852 53.8364394,21.3838599 C55.8801205,20.4241661 58.9619857,18.9780356 63.1932903,17.8790604 C63.6386119,17.5753371 66.074236,15.9363094 69.4448855,13.9516242 C69.5324504,13.1848276 68.8961054,12.6789215 68.8961054,12.6789215 C71.2354681,12.3012143 69.8341296,10.7484513 69.8341296,10.7484513 C72.6640957,9.29033963 70.7496627,7.46230856 70.7496627,7.46230856 C73.5004606,5.07445609 72.3042399,3.41865472 72.3042399,3.41865472 C74.7443622,1.24406755 72.9585777,0.0845872478 72.9585777,0.0845872478 C65.3065436,0.806753871 53.3398383,19.692714 53.3398383,19.692714 C52.4174079,20.4076919 51.6041338,21.1106886 50.8679287,21.7867276 C51.2961572,22.0302455 51.553754,22.1901944 51.6455172,22.2668741" id="Fill-9" fill="#F7C7B8"></path>
                                    <path d="M51.6455172,22.2668741 C51.9531939,22.2668741 52.7838611,21.8774852 53.8364394,21.3838599 C55.8801205,20.4241661 58.9619857,18.9780356 63.1932903,17.8790604 C63.6386119,17.5753371 66.074236,15.9363094 69.4448855,13.9516242 C69.5324504,13.1848276 68.8961054,12.6789215 68.8961054,12.6789215 C71.2354681,12.3012143 69.8341296,10.7484513 69.8341296,10.7484513 C72.6640957,9.29033963 70.7496627,7.46230856 70.7496627,7.46230856 C73.5004606,5.07445609 72.3042399,3.41865472 72.3042399,3.41865472 C74.7443622,1.24406755 72.9585777,0.0845872478 72.9585777,0.0845872478 C65.3065436,0.806753871 53.3398383,19.692714 53.3398383,19.692714 C52.4174079,20.4076919 51.6041338,21.1106886 50.8679287,21.7867276 C51.2961572,22.0302455 51.553754,22.1901944 51.6455172,22.2668741 L51.6455172,22.2668741 Z" id="Stroke-11" fill="#F7C7B8"></path>
                                    <path d="M26.615506,16.1741661 C26.1884771,16.1741661 25.8424157,15.8285085 25.8424157,15.401978 C25.8424157,14.9751478 26.1884771,14.630988 26.615506,14.630988 C27.0425349,14.630988 27.3873967,14.9766455 27.3873967,15.401978 C27.3873967,15.8285085 27.0413353,16.1741661 26.615506,16.1741661 M93.1873326,6.31663659 C92.4634227,6.08330279 91.6438511,5.97487296 90.7514086,5.97487296 C81.216429,5.97487296 63.3360931,18.1917996 63.3360931,18.1917996 C56.6256818,19.9263773 52.684361,22.60717 51.6452773,22.60717 C51.5589119,22.60717 51.4920387,22.5877006 51.4455573,22.5496603 C50.8463974,22.0368651 42.1735723,17.5942374 41.3525013,17.1665087 C38.5615196,15.7092956 35.8641003,10.2470681 30.436575,10.2470681 C28.5449329,10.2470681 26.3198244,10.9111259 23.645496,12.6388145 C22.1664886,13.5946144 19.8820039,14.946393 17.9138924,15.4576905 C15.9460809,15.9686885 7.56473904,16.909512 0.293552382,18.7042953 C0.5328565,19.3015579 1.62112047,19.5178185 3.11692114,19.5178185 C6.96827802,19.5178185 13.5143552,18.0824712 15.1768891,18.020768 C16.3320262,17.9782347 17.5498383,17.8500359 18.7376624,17.8500359 C19.9257863,17.8500359 21.079724,17.9782347 22.1059128,18.4487962 C24.1588903,19.3890206 25.6124079,21.9002794 31.3440114,24.7709741 C37.075315,27.6416688 37.4177778,35.3653472 46.0561167,43.3103782 C53.1656681,49.8497153 61.1445712,50.427808 63.7478282,50.427808 C64.3065043,50.427808 64.6183794,50.4008503 64.6183794,50.4008503 C65.6445682,52.7928962 67.8684771,53.391956 67.8684771,53.391956 C68.1260739,55.0154082 71.465236,55.3260207 71.465236,55.3260207 C72.8914646,57.6033466 76.5083154,57.2355239 76.5083154,57.2355239 C78.8185898,59.2861057 82.8381792,60.0543999 82.8381792,60.0543999 C82.8381792,60.0543999 84.9760227,61.7629185 86.3443744,62.9589415 C86.8004916,63.3582149 87.1231624,63.4909066 87.3519707,63.4909066 C87.8074882,63.4909066 87.8842574,62.9589415 87.8842574,62.9589415 C88.2261204,61.3348903 83.9495339,54.4157493 76.5083154,45.9564254 C68.6445662,37.0178537 65.3024053,34.7186621 66.7571224,34.0803639 C66.8395894,34.0842578 66.9175581,34.0872531 66.9940275,34.0872531 C69.965237,34.0872531 69.1522628,30.9197242 69.1522628,30.9197242 C69.3699755,30.9868189 69.5612989,31.0155738 69.7313307,31.0155738 C71.098483,31.0155738 71.0193147,29.1087664 71.0193147,29.1087664 C71.1476633,29.1225447 71.2679151,29.1288349 71.3800701,29.1288349 C73.0620962,29.1288349 73.0024201,27.673419 73.0024201,27.673419 C73.2006407,27.6949852 73.3841672,27.7045701 73.5535993,27.7045701 C76.1142733,27.7045701 75.7394235,25.4521052 75.7394235,25.4521052 C79.0758867,25.4521052 78.4764269,23.2307913 78.4764269,23.2307913 C81.7271244,22.5469645 80.6139704,20.6674143 80.6139704,20.6674143 C84.3774625,20.1546191 83.0939767,17.8485383 83.0939767,17.8485383 C86.258009,17.5067747 84.9760227,16.2247866 84.9760227,16.2247866 C88.6546487,15.96779 87.4557291,13.1489139 87.4557291,13.1489139 C91.4765181,11.8666264 90.9622242,9.56054556 90.9622242,9.56054556 C94.5559843,8.36751792 93.1873326,6.31663659 93.1873326,6.31663659" id="Fill-13" fill="#F7C7B8"></path>
                                    <path d="M26.615506,16.1741661 C26.1884771,16.1741661 25.8424157,15.8285085 25.8424157,15.401978 C25.8424157,14.9751478 26.1884771,14.630988 26.615506,14.630988 C27.0425349,14.630988 27.3873967,14.9766455 27.3873967,15.401978 C27.3873967,15.8285085 27.0413353,16.1741661 26.615506,16.1741661 M93.1873326,6.31663659 C92.4634227,6.08330279 91.6438511,5.97487296 90.7514086,5.97487296 C81.216429,5.97487296 63.3360931,18.1917996 63.3360931,18.1917996 C56.6256818,19.9263773 52.684361,22.60717 51.6452773,22.60717 C51.5589119,22.60717 51.4920387,22.5877006 51.4455573,22.5496603 C50.8463974,22.0368651 42.1735723,17.5942374 41.3525013,17.1665087 C38.5615196,15.7092956 35.8641003,10.2470681 30.436575,10.2470681 C28.5449329,10.2470681 26.3198244,10.9111259 23.645496,12.6388145 C22.1664886,13.5946144 19.8820039,14.946393 17.9138924,15.4576905 C15.9460809,15.9686885 7.56473904,16.909512 0.293552382,18.7042953 C0.5328565,19.3015579 1.62112047,19.5178185 3.11692114,19.5178185 C6.96827802,19.5178185 13.5143552,18.0824712 15.1768891,18.020768 C16.3320262,17.9782347 17.5498383,17.8500359 18.7376624,17.8500359 C19.9257863,17.8500359 21.079724,17.9782347 22.1059128,18.4487962 C24.1588903,19.3890206 25.6124079,21.9002794 31.3440114,24.7709741 C37.075315,27.6416688 37.4177778,35.3653472 46.0561167,43.3103782 C53.1656681,49.8497153 61.1445712,50.427808 63.7478282,50.427808 C64.3065043,50.427808 64.6183794,50.4008503 64.6183794,50.4008503 C65.6445682,52.7928962 67.8684771,53.391956 67.8684771,53.391956 C68.1260739,55.0154082 71.465236,55.3260207 71.465236,55.3260207 C72.8914646,57.6033466 76.5083154,57.2355239 76.5083154,57.2355239 C78.8185898,59.2861057 82.8381792,60.0543999 82.8381792,60.0543999 C82.8381792,60.0543999 84.9760227,61.7629185 86.3443744,62.9589415 C86.8004916,63.3582149 87.1231624,63.4909066 87.3519707,63.4909066 C87.8074882,63.4909066 87.8842574,62.9589415 87.8842574,62.9589415 C88.2261204,61.3348903 83.9495339,54.4157493 76.5083154,45.9564254 C68.6445662,37.0178537 65.3024053,34.7186621 66.7571224,34.0803639 C66.8395894,34.0842578 66.9175581,34.0872531 66.9940275,34.0872531 C69.965237,34.0872531 69.1522628,30.9197242 69.1522628,30.9197242 C69.3699755,30.9868189 69.5612989,31.0155738 69.7313307,31.0155738 C71.098483,31.0155738 71.0193147,29.1087664 71.0193147,29.1087664 C71.1476633,29.1225447 71.2679151,29.1288349 71.3800701,29.1288349 C73.0620962,29.1288349 73.0024201,27.673419 73.0024201,27.673419 C73.2006407,27.6949852 73.3841672,27.7045701 73.5535993,27.7045701 C76.1142733,27.7045701 75.7394235,25.4521052 75.7394235,25.4521052 C79.0758867,25.4521052 78.4764269,23.2307913 78.4764269,23.2307913 C81.7271244,22.5469645 80.6139704,20.6674143 80.6139704,20.6674143 C84.3774625,20.1546191 83.0939767,17.8485383 83.0939767,17.8485383 C86.258009,17.5067747 84.9760227,16.2247866 84.9760227,16.2247866 C88.6546487,15.96779 87.4557291,13.1489139 87.4557291,13.1489139 C91.4765181,11.8666264 90.9622242,9.56054556 90.9622242,9.56054556 C94.5559843,8.36751792 93.1873326,6.31663659 93.1873326,6.31663659" id="Fill-15" fill="#F7C7B8"></path>
                                    <path d="M26.615506,16.1741661 C26.1884771,16.1741661 25.8424157,15.8285085 25.8424157,15.401978 C25.8424157,14.9751478 26.1884771,14.630988 26.615506,14.630988 C27.0425349,14.630988 27.3873967,14.9766455 27.3873967,15.401978 C27.3873967,15.8285085 27.0413353,16.1741661 26.615506,16.1741661 L26.615506,16.1741661 Z M93.1873326,6.31663659 C92.4634227,6.08330279 91.6438511,5.97487296 90.7514086,5.97487296 C81.216429,5.97487296 63.3360931,18.1917996 63.3360931,18.1917996 C56.6256818,19.9263773 52.684361,22.60717 51.6452773,22.60717 C51.5589119,22.60717 51.4920387,22.5877006 51.4455573,22.5496603 C50.8463974,22.0368651 42.1735723,17.5942374 41.3525013,17.1665087 C38.5615196,15.7092956 35.8641003,10.2470681 30.436575,10.2470681 C28.5449329,10.2470681 26.3198244,10.9111259 23.645496,12.6388145 C22.1664886,13.5946144 19.8820039,14.946393 17.9138924,15.4576905 C15.9460809,15.9686885 7.56473904,16.909512 0.293552382,18.7042953 C0.5328565,19.3015579 1.62112047,19.5178185 3.11692114,19.5178185 C6.96827802,19.5178185 13.5143552,18.0824712 15.1768891,18.020768 C16.3320262,17.9782347 17.5498383,17.8500359 18.7376624,17.8500359 C19.9257863,17.8500359 21.079724,17.9782347 22.1059128,18.4487962 C24.1588903,19.3890206 25.6124079,21.9002794 31.3440114,24.7709741 C37.075315,27.6416688 37.4177778,35.3653472 46.0561167,43.3103782 C53.1656681,49.8497153 61.1445712,50.427808 63.7478282,50.427808 C64.3065043,50.427808 64.6183794,50.4008503 64.6183794,50.4008503 C65.6445682,52.7928962 67.8684771,53.391956 67.8684771,53.391956 C68.1260739,55.0154082 71.465236,55.3260207 71.465236,55.3260207 C72.8914646,57.6033466 76.5083154,57.2355239 76.5083154,57.2355239 C78.8185898,59.2861057 82.8381792,60.0543999 82.8381792,60.0543999 C82.8381792,60.0543999 84.9760227,61.7629185 86.3443744,62.9589415 C86.8004916,63.3582149 87.1231624,63.4909066 87.3519707,63.4909066 C87.8074882,63.4909066 87.8842574,62.9589415 87.8842574,62.9589415 C88.2261204,61.3348903 83.9495339,54.4157493 76.5083154,45.9564254 C68.6445662,37.0178537 65.3024053,34.7186621 66.7571224,34.0803639 C66.8395894,34.0842578 66.9175581,34.0872531 66.9940275,34.0872531 C69.965237,34.0872531 69.1522628,30.9197242 69.1522628,30.9197242 C69.3699755,30.9868189 69.5612989,31.0155738 69.7313307,31.0155738 C71.098483,31.0155738 71.0193147,29.1087664 71.0193147,29.1087664 C71.1476633,29.1225447 71.2679151,29.1288349 71.3800701,29.1288349 C73.0620962,29.1288349 73.0024201,27.673419 73.0024201,27.673419 C73.2006407,27.6949852 73.3841672,27.7045701 73.5535993,27.7045701 C76.1142733,27.7045701 75.7394235,25.4521052 75.7394235,25.4521052 C79.0758867,25.4521052 78.4764269,23.2307913 78.4764269,23.2307913 C81.7271244,22.5469645 80.6139704,20.6674143 80.6139704,20.6674143 C84.3774625,20.1546191 83.0939767,17.8485383 83.0939767,17.8485383 C86.258009,17.5067747 84.9760227,16.2247866 84.9760227,16.2247866 C88.6546487,15.96779 87.4557291,13.1489139 87.4557291,13.1489139 C91.4765181,11.8666264 90.9622242,9.56054556 90.9622242,9.56054556 C94.5559843,8.36751792 93.1873326,6.31663659 93.1873326,6.31663659 L93.1873326,6.31663659 Z" id="Stroke-17" stroke="#FFFFFF"></path>
                                </g>
                                <path d="M72.916959,0.294867022 L0.276722646,89.5939091 L0.276722646,115.226042 L74.1586725,115.226042 L74.1586725,140.858174 L103.752843,140.858174 L103.752843,115.226042 L125.068924,115.226042 L125.068924,89.3871984 L103.752843,89.3871984 L103.752843,0.294867022 L72.916959,0.294867022 Z M74.1586725,89.3871984 L32.5612722,89.3871984 L74.1586725,38.1229335 L74.1586725,89.3871984 Z" fill="#F7C7B8"></path>
                                <path d="M57.9760947,90.2693231 L57.9760947,71.1968841 L69.8890359,71.1968841 L69.8890359,70.1020916 L56.822299,70.1020916 L56.822299,90.2693231 L57.9760947,90.2693231 Z M68.2352621,83.3548437 C68.2352621,87.993307 71.6966494,90.5862368 75.4176407,90.5862368 C79.167477,90.5862368 82.6288642,87.993307 82.6288642,83.3548437 C82.6288642,78.7163805 79.167477,76.1234507 75.4176407,76.1234507 C71.6966494,76.1234507 68.2352621,78.7163805 68.2352621,83.3548437 L68.2352621,83.3548437 Z M81.5327583,83.3548437 C81.5327583,87.2730487 78.7059587,89.5202545 75.4176407,89.5202545 C72.1581677,89.5202545 69.3313681,87.2730487 69.3313681,83.3548437 C69.3313681,79.4366387 72.1581677,77.1894329 75.4176407,77.1894329 C78.7059587,77.1894329 81.5327583,79.4366387 81.5327583,83.3548437 L81.5327583,83.3548437 Z M87.1190528,94.1875281 L87.1190528,90.2693231 L100.935757,90.2693231 L100.935757,94.1875281 L102.031863,94.1875281 L102.031863,89.2609616 L100.041565,89.2609616 L100.041565,76.4403643 L90.4650605,76.4403643 C90.4650605,82.1448098 89.6285586,85.7172909 87.8401752,89.2609616 L86.0517918,89.2609616 L86.0517918,94.1875281 L87.1190528,94.1875281 Z M91.5034767,77.4487259 L98.9166145,77.4487259 L98.9166145,89.2609616 L88.9939709,89.2609616 C90.5804401,85.9477735 91.4457869,82.6057751 91.5034767,77.4487259 L91.5034767,77.4487259 Z M117.858095,88.0509277 L117.858095,81.7414652 C117.858095,78.2266049 115.752418,76.1234507 112.089116,76.1234507 C109.896904,76.1234507 108.137366,76.6132263 107.070105,76.9877606 L107.070105,78.0537429 C108.195055,77.6215879 109.925749,77.1606226 112.002581,77.1606226 C115.11783,77.1606226 116.761989,78.9468631 116.761989,81.6262239 L116.761989,82.8938784 C115.319744,82.4329132 113.675585,82.1448098 112.031426,82.1448098 C109.060402,82.1448098 106.002844,83.2684127 106.002844,86.5527905 C106.002844,89.3185822 108.368125,90.5862368 110.762251,90.5862368 C113.214067,90.5862368 115.377434,89.5490649 116.761989,87.7052037 L116.761989,88.079738 C116.761989,89.7507372 117.82925,90.3269438 118.954201,90.3269438 C119.415719,90.3269438 119.877238,90.2405128 120.309911,90.0964612 L120.309911,89.1745306 C119.963772,89.2897719 119.588789,89.3762029 119.24265,89.3762029 C118.492683,89.3762029 117.858095,89.0592892 117.858095,88.0509277 L117.858095,88.0509277 Z M107.127794,86.5239801 C107.127794,83.9598607 109.666145,83.0955508 112.146806,83.0955508 C113.76212,83.0955508 115.406279,83.4124644 116.761989,83.8446194 L116.761989,86.3511181 C115.521659,88.4830826 113.271757,89.6066855 110.964165,89.6066855 C109.002713,89.6066855 107.127794,88.6271343 107.127794,86.5239801 L107.127794,86.5239801 Z M133.299728,83.3548437 C133.299728,87.993307 136.761116,90.5862368 140.482107,90.5862368 C144.231943,90.5862368 147.693331,87.993307 147.693331,83.3548437 C147.693331,78.7163805 144.231943,76.1234507 140.482107,76.1234507 C136.761116,76.1234507 133.299728,78.7163805 133.299728,83.3548437 L133.299728,83.3548437 Z M146.597225,83.3548437 C146.597225,87.2730487 143.770425,89.5202545 140.482107,89.5202545 C137.222634,89.5202545 134.395834,87.2730487 134.395834,83.3548437 C134.395834,79.4366387 137.222634,77.1894329 140.482107,77.1894329 C143.770425,77.1894329 146.597225,79.4366387 146.597225,83.3548437 L146.597225,83.3548437 Z M154.375731,90.2693231 L154.375731,77.4775362 L164.15415,77.4775362 L164.15415,90.2693231 L165.250256,90.2693231 L165.250256,76.4403643 L153.279625,76.4403643 L153.279625,90.2693231 L154.375731,90.2693231 Z M177.990084,90.2693231 C181.191868,90.2693231 183.21101,88.4542723 183.21101,85.9477735 C183.21101,83.4412747 181.191868,81.6262239 177.990084,81.6262239 L172.942228,81.6262239 L172.942228,76.4403643 L171.846122,76.4403643 L171.846122,90.2693231 L177.990084,90.2693231 Z M172.942228,82.6345855 L177.874705,82.6345855 C180.470745,82.6345855 182.086059,83.9310504 182.086059,85.9477735 C182.086059,87.9356863 180.49959,89.2609616 177.874705,89.2609616 L172.942228,89.2609616 L172.942228,82.6345855 Z M187.105071,90.2693231 L187.105071,76.4403643 L186.008965,76.4403643 L186.008965,90.2693231 L187.105071,90.2693231 Z M198.489189,90.2693231 L198.489189,77.4775362 L204.056254,77.4775362 L204.056254,76.4403643 L191.797174,76.4403643 L191.797174,77.4775362 L197.393083,77.4775362 L197.393083,90.2693231 L198.489189,90.2693231 Z M219.247898,88.0509277 L219.247898,81.7414652 C219.247898,78.2266049 217.142221,76.1234507 213.478919,76.1234507 C211.286707,76.1234507 209.527169,76.6132263 208.459908,76.9877606 L208.459908,78.0537429 C209.584858,77.6215879 211.315552,77.1606226 213.392384,77.1606226 C216.507633,77.1606226 218.151792,78.9468631 218.151792,81.6262239 L218.151792,82.8938784 C216.709547,82.4329132 215.065388,82.1448098 213.421229,82.1448098 C210.450205,82.1448098 207.392647,83.2684127 207.392647,86.5527905 C207.392647,89.3185822 209.757928,90.5862368 212.152054,90.5862368 C214.60387,90.5862368 216.767237,89.5490649 218.151792,87.7052037 L218.151792,88.079738 C218.151792,89.7507372 219.219053,90.3269438 220.344004,90.3269438 C220.805522,90.3269438 221.267041,90.2405128 221.699714,90.0964612 L221.699714,89.1745306 C221.353575,89.2897719 220.978592,89.3762029 220.632453,89.3762029 C219.882486,89.3762029 219.247898,89.0592892 219.247898,88.0509277 L219.247898,88.0509277 Z M208.517597,86.5239801 C208.517597,83.9598607 211.055948,83.0955508 213.536609,83.0955508 C215.151923,83.0955508 216.796082,83.4124644 218.151792,83.8446194 L218.151792,86.3511181 C216.911462,88.4830826 214.66156,89.6066855 212.353968,89.6066855 C210.392516,89.6066855 208.517597,88.6271343 208.517597,86.5239801 L208.517597,86.5239801 Z M57.2549724,114.444884 L57.2549724,111.160507 L56.2454011,111.160507 L56.2454011,131.327738 L57.3415071,131.327738 L57.3415071,121.820329 C58.4087681,123.721811 60.5432903,125.306379 63.3989348,125.306379 C67.3218404,125.306379 70.2928645,122.425346 70.2928645,118.074986 C70.2928645,113.724626 67.3218404,110.843593 63.3989348,110.843593 C60.5432903,110.843593 58.4087681,112.428161 57.2549724,114.444884 L57.2549724,114.444884 Z M69.1967585,118.074986 C69.1967585,121.964381 66.6295629,124.269207 63.2835552,124.269207 C60.4279107,124.269207 58.178009,122.396536 57.3415071,120.091709 L57.3415071,116.058263 C58.178009,113.753436 60.4279107,111.880765 63.2835552,111.880765 C66.6295629,111.880765 69.1967585,114.214402 69.1967585,118.074986 L69.1967585,118.074986 Z M86.5517698,122.77107 L86.5517698,116.461607 C86.5517698,112.946747 84.4460926,110.843593 80.782791,110.843593 C78.5905791,110.843593 76.8310405,111.333369 75.7637795,111.707903 L75.7637795,112.773885 C76.8887303,112.34173 78.619424,111.880765 80.6962563,111.880765 C83.8115049,111.880765 85.4556638,113.667005 85.4556638,116.346366 L85.4556638,117.614021 C84.0134191,117.153055 82.3692602,116.864952 80.7251012,116.864952 C77.7540771,116.864952 74.6965184,117.988555 74.6965184,121.272933 C74.6965184,124.038725 77.0617997,125.306379 79.4559259,125.306379 C81.9077419,125.306379 84.0711089,124.269207 85.4556638,122.425346 L85.4556638,122.79988 C85.4556638,124.470879 86.5229249,125.047086 87.6478758,125.047086 C88.1093941,125.047086 88.5709124,124.960655 89.0035858,124.816603 L89.0035858,123.894673 C88.6574471,124.009914 88.2824635,124.096345 87.9363247,124.096345 C87.1863575,124.096345 86.5517698,123.779432 86.5517698,122.77107 L86.5517698,122.77107 Z M75.8214693,121.244122 C75.8214693,118.680003 78.3598199,117.815693 80.8404808,117.815693 C82.4557949,117.815693 84.0999538,118.132607 85.4556638,118.564762 L85.4556638,121.07126 C84.2153334,123.203225 81.9654317,124.326828 79.6578402,124.326828 C77.6963874,124.326828 75.8214693,123.347277 75.8214693,121.244122 L75.8214693,121.244122 Z M106.791271,118.507141 C106.791271,114.473695 103.791402,111.736713 100.01272,111.736713 C97.3301453,111.736713 94.8494844,113.17723 93.7822233,115.654918 C94.2725865,112.514592 95.512917,110.123335 97.7051289,108.798059 C101.224206,106.637285 103.502953,107.357543 105.406716,105.715354 L105.406716,104.534131 C103.531798,106.464423 101.022292,105.542492 97.0705413,107.96256 C94.5610355,109.518318 92.6861174,112.917937 92.6861174,117.383538 C92.6861174,122.108432 95.5706068,125.306379 99.8396511,125.306379 C103.964471,125.306379 106.791271,122.655829 106.791271,118.507141 L106.791271,118.507141 Z M93.7822233,117.873314 C94.3591212,114.675367 96.9840066,112.773885 99.868496,112.773885 C103.329883,112.773885 105.695165,115.193953 105.695165,118.535951 C105.695165,121.90676 103.387573,124.240397 99.8108062,124.240397 C96.1475047,124.240397 93.7822233,121.474605 93.7822233,117.873314 L93.7822233,117.873314 Z M111.396839,118.074986 C111.396839,122.713449 114.858226,125.306379 118.579217,125.306379 C122.329054,125.306379 125.790441,122.713449 125.790441,118.074986 C125.790441,113.436523 122.329054,110.843593 118.579217,110.843593 C114.858226,110.843593 111.396839,113.436523 111.396839,118.074986 L111.396839,118.074986 Z M124.694335,118.074986 C124.694335,121.993191 121.867535,124.240397 118.579217,124.240397 C115.319744,124.240397 112.492945,121.993191 112.492945,118.074986 C112.492945,114.156781 115.319744,111.909575 118.579217,111.909575 C121.867535,111.909575 124.694335,114.156781 124.694335,118.074986 L124.694335,118.074986 Z M135.386176,124.989465 L135.386176,112.197679 L140.95324,112.197679 L140.95324,111.160507 L128.69416,111.160507 L128.69416,112.197679 L134.29007,112.197679 L134.29007,124.989465 L135.386176,124.989465 Z M151.789305,124.989465 C154.991089,124.989465 157.010231,123.174415 157.010231,120.667916 C157.010231,118.161417 154.991089,116.346366 151.789305,116.346366 L146.741449,116.346366 L146.741449,111.160507 L145.645343,111.160507 L145.645343,124.989465 L151.789305,124.989465 Z M146.741449,117.354728 L151.673926,117.354728 C154.269966,117.354728 155.88528,118.651193 155.88528,120.667916 C155.88528,122.655829 154.298811,123.981104 151.673926,123.981104 L146.741449,123.981104 L146.741449,117.354728 Z M160.904292,124.989465 L160.904292,111.160507 L159.808186,111.160507 L159.808186,124.989465 L160.904292,124.989465 Z" id="Года-опыта-работы" fill="#000000"></path>
                            </g>
                        </g>
                    </g>
                </g>
            </g>
        </g>
    </g>
</svg>