<?xml version="1.0" encoding="UTF-8"?>
<svg width="276px" height="167px" viewBox="0 0 276 167" version="1.1" xmlns="http://www.w3.org/2000/svg" xmlns:xlink="http://www.w3.org/1999/xlink">
    <!-- Generator: Sketch 40.3 (33839) - http://www.bohemiancoding.com/sketch -->
    <title>7200</title>
    <desc>Created with Sketch.</desc>
    <defs></defs>
    <g id="landing" stroke="none" stroke-width="1" fill="none" fill-rule="evenodd">
        <g id="Bart-Landing" transform="translate(-630.000000, -5530.000000)">
            <g id="Variant-2" transform="translate(0.000000, -4.000000)">
                <g id="Content" transform="translate(-678.000000, -92.000000)">
                    <g id="STATISTICKA" transform="translate(678.000000, 5428.000000)">
                        <g id="Group-2" transform="translate(167.000000, 198.171434)">
                            <g id="7200" transform="translate(463.000000, 0.000000)">
                                <g id="tree" transform="translate(212.490387, 0.239624)" fill="#F7C7B8">
                                    <path d="M0.260925455,15.7678837 C0.260925455,13.4387391 1.43975313,11.1590169 2.96824072,9.63261246 C4.49702818,8.10650755 6.77911381,7.18066058 9.11127938,7.18066058 C11.4446445,7.18066058 13.4634356,8.36949481 14.9919232,9.8953002 C16.5207106,11.4220042 17.9004578,13.4387391 17.9004578,15.7678837 C17.9004578,18.098526 16.9702305,20.5645557 15.4423427,22.0912597 C13.914155,23.6185627 11.4452442,23.7904929 9.11217902,23.7904929 C6.77911381,23.7904929 4.34828777,23.5805224 2.81920043,22.0532194 C1.28981321,20.5271145 0.260925455,18.0976274 0.260925455,15.7678837" id="Fill-20"></path>
                                    <path d="M21.1465072,6.10247271 C21.1465072,4.453261 21.980773,2.83909429 23.063939,1.75809083 C24.1462053,0.677386901 25.7622578,0.0214163889 27.4133963,0.0214163889 C29.0657342,0.0214163889 30.4955613,0.862795918 31.5775278,1.94349985 C32.6600941,3.02510237 33.636203,4.453261 33.636203,6.10247271 C33.636203,7.752583 32.9779667,9.49914193 31.8960002,10.5801454 C30.813434,11.6620474 29.0660341,11.7833571 27.4133963,11.7833571 C25.7616581,11.7833571 24.0391482,11.6347902 22.9571817,10.5534872 C21.8752153,9.4727833 21.1465072,7.752583 21.1465072,6.10247271" id="Fill-26"></path>
                                    <path d="M45.6549374,24.2790262 C45.6549374,22.9152665 46.5635734,21.8396546 47.4587147,20.9455578 C48.3541559,20.0523596 49.4304247,19.0830808 50.7957777,19.0830808 C52.1617304,19.0830808 53.3387588,19.9517175 54.2336002,20.8446162 C55.1290414,21.7384135 55.7183053,22.9143679 55.7183053,24.2787267 C55.7183053,25.6430854 55.1125481,26.8031648 54.2186062,27.6975611 C53.3225652,28.5916579 52.1617304,29.0409528 50.7966773,29.0409528 C49.4307246,29.0409528 48.074368,28.7866519 47.1801263,27.891357 C46.2852849,26.9972602 45.6549374,25.643984 45.6549374,24.2790262" id="Fill-23"></path>
                                    <path d="M29.2031392,28.2837711 C29.2031392,26.4782048 30.1177727,24.7094806 31.3037975,23.5254389 C32.4901222,22.3419962 34.2591134,21.6246221 36.0685884,21.6246221 C37.8774636,21.6246221 39.4428364,22.5456765 40.6285614,23.7300178 C41.8145862,24.9134605 42.8851572,26.4782048 42.8851572,28.2840706 C42.8851572,30.0920332 42.1627467,32.0048312 40.9785211,33.1891725 C39.793396,34.3741129 37.878963,34.5077032 36.0688883,34.5077032 C34.2597132,34.5077032 32.3737688,34.3444594 31.187744,33.1601181 C30.0014193,31.9748782 29.2031392,30.0914341 29.2031392,28.2837711" id="Fill-32"></path>
                                    <path d="M29.1852663,15.1776001 C29.1852663,14.0292024 29.7664335,12.9047671 30.5200315,12.1511498 C31.2742294,11.3978321 32.3996784,10.9404499 33.5500175,10.9404499 C34.7012562,10.9404499 35.697757,11.5269295 36.4516549,12.2793486 C37.2064525,13.0329659 37.8883793,14.0283038 37.8883793,15.1776001 C37.8883793,16.3274954 37.4289633,17.5450845 36.6741658,18.2987018 C35.9190683,19.05172 34.7012562,19.1367865 33.5494178,19.1367865 C32.3990787,19.1367865 31.1992594,19.0331491 30.4450616,18.2792324 C29.6920633,17.5259146 29.1852663,16.3274954 29.1852663,15.1776001" id="Fill-34"></path>
                                    <path d="M15.4552376,26.0806088 C15.4552376,24.7159505 16.145561,23.3815447 17.0419018,22.4871484 C17.9370432,21.5939502 19.2733078,21.051801 20.6398602,21.051801 C22.0043135,21.051801 23.1855402,21.7482081 24.0806816,22.6423049 C24.9746234,23.5361022 25.7824997,24.7171486 25.7824997,26.0806088 C25.7824997,27.4458661 25.2379179,28.8881027 24.3439761,29.7810013 C23.4497344,30.6747986 22.0043135,30.7748416 20.6398602,30.7748416 C19.2733078,30.7748416 17.8488785,30.6532324 16.9537371,29.7612324 C16.0585958,28.8677346 15.4552376,27.4461657 15.4552376,26.0806088" id="Fill-29"></path>
                                    <path d="M8.99786483,19.4967915 L8.33363096,18.6793744 C8.33363096,32.4832105 17.4040967,43.6472894 28.6163043,43.6472894 L28.0711227,42.9757434 C17.7948401,42.2562725 9.58263053,32.147737 8.99786483,19.4967915" id="Fill-36"></path>
                                    <path d="M29.6614455,46.027414 L28.906648,46.7609628 C42.6702333,45.5224066 52.9878993,35.4965413 51.9821023,24.3426464 L51.3607513,24.9453005 C51.5655692,35.233554 42.2237122,44.3099095 29.6614455,46.027414" id="Fill-39"></path>
                                    <path d="M34.1769463,13.529886 L33.723528,14.2173072 C34.0944794,18.2873197 31.5083156,22.2075672 27.3909653,23.8100522 L26.7108378,24.8404351 C32.0597946,23.5198077 35.3965577,18.461047 34.1769463,13.529886" id="Fill-42"></path>
                                    <path d="M28.0621863,41.2864246 C28.2679039,44.0756471 28.2016305,47.7368013 29.5220014,50.1887532 L31.3983496,50.1887532 C29.0679833,47.7368013 29.2008301,43.2899802 28.9546287,39.9457287 C28.542294,34.3343353 27.5859771,28.8870843 27.5352974,23.1477916 C27.5478924,19.6367019 27.2983924,16.0258688 27.4270408,12.4449887 L26.9907156,8.9896116 C26.1078694,14.1226557 26.6614476,19.4105568 26.6422552,24.4929804 C26.6929349,30.2319736 27.6489519,35.6759298 28.0621863,41.2864246" id="Fill-50"></path>
                                    <path d="M27.835807,34.1632438 L27.2420449,33.7289254 C23.5889086,33.8792894 20.2008661,31.4018775 18.9497674,27.6622465 L18.0591243,27.0110685 C19.0040456,31.8364954 23.3765937,35.0324796 27.835807,34.1632438" id="Fill-47"></path>
                                    <path d="M35.0900505,30.2500352 L34.6783154,30.963815 C35.2894706,35.004174 32.9417112,39.0714907 28.9272197,40.9153969 L28.3094672,41.9841196 C33.5717588,40.3480872 36.6005453,35.1000236 35.0900505,30.2500352" id="Fill-45"></path>
                                </g>
                                <path d="M0.645041706,48.0514261 L0.645041706,62.1616158 L39.0827369,62.1616158 L9.62478815,122.540102 L27.3652628,122.540102 L57.9183026,59.8646082 L57.9183026,48.0514261 L0.645041706,48.0514261 Z M66.7885399,54.5049237 L66.7885399,69.8183079 C74.6731953,63.8023356 83.4339236,60.9584214 90.8805426,60.9584214 C98.4366707,60.9584214 103.255071,63.8023356 103.255071,69.2714014 C103.255071,76.3811869 96.5750159,79.3344824 88.7998696,83.8191163 C77.8489593,90.272614 64.2698305,97.2730182 64.2698305,115.211554 L64.2698305,122.540102 L120.119473,122.540102 L120.119473,108.429912 L82.8863781,108.539294 C82.9958872,103.726516 90.5520153,99.6794071 99.4222526,94.429104 C109.168563,88.6318942 119.571928,81.1939648 119.571928,68.6151135 C119.571928,53.4111106 107.416417,46.629469 92.41367,46.629469 C83.3244145,46.629469 74.4541771,49.035858 66.7885399,54.5049237 L66.7885399,54.5049237 Z M129.865783,85.3504548 C129.865783,106.789193 140.05013,124.07144 163.813605,124.07144 C187.577081,124.07144 197.761427,106.789193 197.761427,85.3504548 C197.761427,63.9117169 187.577081,46.629469 163.813605,46.629469 C140.05013,46.629469 129.865783,63.9117169 129.865783,85.3504548 L129.865783,85.3504548 Z M181.335062,85.3504548 C181.335062,101.210746 175.859606,109.633107 163.813605,109.633107 C151.767604,109.633107 146.292149,101.210746 146.292149,85.3504548 C146.292149,69.490164 151.767604,61.0678027 163.813605,61.0678027 C175.859606,61.0678027 181.335062,69.490164 181.335062,85.3504548 L181.335062,85.3504548 Z M207.17921,85.3504548 C207.17921,106.789193 217.363557,124.07144 241.127032,124.07144 C264.890507,124.07144 275.074854,106.789193 275.074854,85.3504548 C275.074854,63.9117169 264.890507,46.629469 241.127032,46.629469 C217.363557,46.629469 207.17921,63.9117169 207.17921,85.3504548 L207.17921,85.3504548 Z M258.648488,85.3504548 C258.648488,101.210746 253.173033,109.633107 241.127032,109.633107 C229.081031,109.633107 223.605575,101.210746 223.605575,85.3504548 C223.605575,69.490164 229.081031,61.0678027 241.127032,61.0678027 C253.173033,61.0678027 258.648488,69.490164 258.648488,85.3504548 L258.648488,85.3504548 Z" fill="#F7C7B8"></path>
                                <path d="M31.8287066,120.205128 C31.8287066,126.367128 36.7167066,129.383128 41.2407066,129.383128 C43.2687066,129.383128 45.0887066,128.915128 46.5447066,128.109128 L46.5447066,127.069128 C45.1407066,127.927128 43.4247066,128.395128 41.4227066,128.395128 C37.2887066,128.395128 32.8687066,125.795128 32.8687066,120.205128 C32.8947066,114.407128 37.2367066,111.599128 41.3707066,111.599128 C43.1647066,111.599128 44.9587066,112.067128 46.3367066,112.899128 L46.3367066,111.859128 C44.8547066,111.053128 43.0607066,110.611128 41.2407066,110.611128 C36.6387066,110.611128 31.8547066,113.835128 31.8287066,120.205128 L31.8287066,120.205128 Z M50.0460404,122.857128 C50.0460404,127.043128 53.1660404,129.383128 56.5200404,129.383128 C59.9000404,129.383128 63.0200404,127.043128 63.0200404,122.857128 C63.0200404,118.671128 59.9000404,116.331128 56.5200404,116.331128 C53.1660404,116.331128 50.0460404,118.671128 50.0460404,122.857128 L50.0460404,122.857128 Z M62.0320404,122.857128 C62.0320404,126.393128 59.4840404,128.421128 56.5200404,128.421128 C53.5820404,128.421128 51.0340404,126.393128 51.0340404,122.857128 C51.0340404,119.321128 53.5820404,117.293128 56.5200404,117.293128 C59.4840404,117.293128 62.0320404,119.321128 62.0320404,122.857128 L62.0320404,122.857128 Z M80.0413742,123.247128 C80.0413742,119.607128 77.3373742,117.137128 73.9313742,117.137128 C71.5133742,117.137128 69.2773742,118.437128 68.3153742,120.673128 C68.7573742,117.839128 69.8753742,115.681128 71.8513742,114.485128 C75.0233742,112.535128 77.0773742,113.185128 78.7933742,111.703128 L78.7933742,110.637128 C77.1033742,112.379128 74.8413742,111.547128 71.2793742,113.731128 C69.0173742,115.135128 67.3273742,118.203128 67.3273742,122.233128 C67.3273742,126.497128 69.9273742,129.383128 73.7753742,129.383128 C77.4933742,129.383128 80.0413742,126.991128 80.0413742,123.247128 L80.0413742,123.247128 Z M68.3153742,122.675128 C68.8353742,119.789128 71.2013742,118.073128 73.8013742,118.073128 C76.9213742,118.073128 79.0533742,120.257128 79.0533742,123.273128 C79.0533742,126.315128 76.9733742,128.421128 73.7493742,128.421128 C70.4473742,128.421128 68.3153742,125.925128 68.3153742,122.675128 L68.3153742,122.675128 Z M86.0127081,119.581128 L86.0127081,116.617128 L85.1027081,116.617128 L85.1027081,134.817128 L86.0907081,134.817128 L86.0907081,126.237128 C87.0527081,127.953128 88.9767081,129.383128 91.5507081,129.383128 C95.0867081,129.383128 97.7647081,126.783128 97.7647081,122.857128 C97.7647081,118.931128 95.0867081,116.331128 91.5507081,116.331128 C88.9767081,116.331128 87.0527081,117.761128 86.0127081,119.581128 L86.0127081,119.581128 Z M96.7767081,122.857128 C96.7767081,126.367128 94.4627081,128.447128 91.4467081,128.447128 C88.8727081,128.447128 86.8447081,126.757128 86.0907081,124.677128 L86.0907081,121.037128 C86.8447081,118.957128 88.8727081,117.267128 91.4467081,117.267128 C94.4627081,117.267128 96.7767081,119.373128 96.7767081,122.857128 L96.7767081,122.857128 Z M112.420042,127.095128 L112.420042,121.401128 C112.420042,118.229128 110.522042,116.331128 107.220042,116.331128 C105.244042,116.331128 103.658042,116.773128 102.696042,117.111128 L102.696042,118.073128 C103.710042,117.683128 105.270042,117.267128 107.142042,117.267128 C109.950042,117.267128 111.432042,118.879128 111.432042,121.297128 L111.432042,122.441128 C110.132042,122.025128 108.650042,121.765128 107.168042,121.765128 C104.490042,121.765128 101.734042,122.779128 101.734042,125.743128 C101.734042,128.239128 103.866042,129.383128 106.024042,129.383128 C108.234042,129.383128 110.184042,128.447128 111.432042,126.783128 L111.432042,127.121128 C111.432042,128.629128 112.394042,129.149128 113.408042,129.149128 C113.824042,129.149128 114.240042,129.071128 114.630042,128.941128 L114.630042,128.109128 C114.318042,128.213128 113.980042,128.291128 113.668042,128.291128 C112.992042,128.291128 112.420042,128.005128 112.420042,127.095128 L112.420042,127.095128 Z M102.748042,125.717128 C102.748042,123.403128 105.036042,122.623128 107.272042,122.623128 C108.728042,122.623128 110.210042,122.909128 111.432042,123.299128 L111.432042,125.561128 C110.314042,127.485128 108.286042,128.499128 106.206042,128.499128 C104.438042,128.499128 102.748042,127.615128 102.748042,125.717128 L102.748042,125.717128 Z M119.665376,129.097128 L119.665376,123.325128 L128.479376,123.325128 L128.479376,129.097128 L129.467376,129.097128 L129.467376,116.617128 L128.479376,116.617128 L128.479376,122.389128 L119.665376,122.389128 L119.665376,116.617128 L118.677376,116.617128 L118.677376,129.097128 L119.665376,129.097128 Z M136.40071,129.097128 L136.40071,123.325128 L145.21471,123.325128 L145.21471,129.097128 L146.20271,129.097128 L146.20271,116.617128 L145.21471,116.617128 L145.21471,122.389128 L136.40071,122.389128 L136.40071,116.617128 L135.41271,116.617128 L135.41271,129.097128 L136.40071,129.097128 Z M157.686043,129.097128 C160.572043,129.097128 162.392043,127.459128 162.392043,125.197128 C162.392043,122.935128 160.572043,121.297128 157.686043,121.297128 L153.136043,121.297128 L153.136043,116.617128 L152.148043,116.617128 L152.148043,129.097128 L157.686043,129.097128 Z M153.136043,122.207128 L157.582043,122.207128 C159.922043,122.207128 161.378043,123.377128 161.378043,125.197128 C161.378043,126.991128 159.948043,128.187128 157.582043,128.187128 L153.136043,128.187128 L153.136043,122.207128 Z M165.902043,129.097128 L165.902043,116.617128 L164.914043,116.617128 L164.914043,129.097128 L165.902043,129.097128 Z M180.453377,116.617128 L176.007377,121.973128 L171.561377,116.617128 L170.417377,116.617128 L175.435377,122.701128 L170.131377,129.097128 L171.301377,129.097128 L176.007377,123.403128 L180.739377,129.097128 L181.883377,129.097128 L176.605377,122.701128 L181.623377,116.617128 L180.453377,116.617128 Z M44.5947066,154.247128 C44.5947066,150.607128 41.8907066,148.137128 38.4847066,148.137128 C36.0667066,148.137128 33.8307066,149.437128 32.8687066,151.673128 C33.3107066,148.839128 34.4287066,146.681128 36.4047066,145.485128 C39.5767066,143.535128 41.6307066,144.185128 43.3467066,142.703128 L43.3467066,141.637128 C41.6567066,143.379128 39.3947066,142.547128 35.8327066,144.731128 C33.5707066,146.135128 31.8807066,149.203128 31.8807066,153.233128 C31.8807066,157.497128 34.4807066,160.383128 38.3287066,160.383128 C42.0467066,160.383128 44.5947066,157.991128 44.5947066,154.247128 L44.5947066,154.247128 Z M32.8687066,153.675128 C33.3887066,150.789128 35.7547066,149.073128 38.3547066,149.073128 C41.4747066,149.073128 43.6067066,151.257128 43.6067066,154.273128 C43.6067066,157.315128 41.5267066,159.421128 38.3027066,159.421128 C35.0007066,159.421128 32.8687066,156.925128 32.8687066,153.675128 L32.8687066,153.675128 Z M54.1540404,159.057128 L48.4340404,147.617128 L47.3680404,147.617128 L53.6860404,160.149128 L52.9320404,161.891128 C51.9440404,164.179128 50.8780404,165.219128 49.3700404,165.219128 C48.9800404,165.219128 48.5900404,165.141128 48.1740404,165.037128 L48.1740404,165.921128 C48.6160404,166.051128 49.0320404,166.103128 49.4740404,166.103128 C51.1640404,166.103128 52.4900404,165.089128 53.7380404,162.281128 L60.2380404,147.617128 L59.1980404,147.617128 L54.1540404,159.057128 Z M65.6113742,160.097128 L65.6113742,154.143128 L68.7313742,154.143128 L74.1653742,160.097128 L75.3613742,160.097128 L69.5893742,153.701128 L74.6593742,147.617128 L73.4893742,147.617128 L68.8093742,153.207128 L65.6113742,153.207128 L65.6113742,147.617128 L64.6233742,147.617128 L64.6233742,160.097128 L65.6113742,160.097128 Z M77.8747081,153.857128 C77.8747081,158.407128 81.1247081,160.383128 84.6867081,160.383128 C86.2207081,160.383128 87.7807081,160.045128 88.8727081,159.447128 L88.8727081,158.459128 C87.8067081,159.083128 86.2987081,159.447128 84.8167081,159.447128 C81.8267081,159.447128 79.0187081,157.965128 78.8627081,154.351128 L89.6007081,154.351128 C90.1727081,151.283128 88.6387081,147.331128 83.9847081,147.331128 C80.9167081,147.331128 77.8747081,149.619128 77.8747081,153.857128 L77.8747081,153.857128 Z M88.7427081,153.467128 L78.8627081,153.467128 C78.9667081,150.087128 81.3847081,148.267128 84.0367081,148.267128 C87.8327081,148.267128 88.9767081,151.335128 88.7427081,153.467128 L88.7427081,153.467128 Z M98.6400419,160.097128 L98.6400419,148.553128 L103.658042,148.553128 L103.658042,147.617128 L92.6080419,147.617128 L92.6080419,148.553128 L97.6520419,148.553128 L97.6520419,160.097128 L98.6400419,160.097128 Z M106.301376,153.857128 C106.301376,158.043128 109.421376,160.383128 112.775376,160.383128 C116.155376,160.383128 119.275376,158.043128 119.275376,153.857128 C119.275376,149.671128 116.155376,147.331128 112.775376,147.331128 C109.421376,147.331128 106.301376,149.671128 106.301376,153.857128 L106.301376,153.857128 Z M118.287376,153.857128 C118.287376,157.393128 115.739376,159.421128 112.775376,159.421128 C109.837376,159.421128 107.289376,157.393128 107.289376,153.857128 C107.289376,150.321128 109.837376,148.293128 112.775376,148.293128 C115.739376,148.293128 118.287376,150.321128 118.287376,153.857128 L118.287376,153.857128 Z M131.01871,160.097128 C133.38471,160.097128 134.97071,158.953128 134.97071,156.795128 C134.97071,154.949128 133.82671,154.013128 132.44871,153.727128 C133.74871,153.337128 134.50271,152.271128 134.50271,150.867128 C134.50271,148.813128 133.04671,147.617128 130.70671,147.617128 L124.31071,147.617128 L124.31071,160.097128 L131.01871,160.097128 Z M125.29871,154.195128 L130.99271,154.195128 C132.57871,154.195128 133.98271,154.819128 133.98271,156.743128 C133.98271,158.537128 132.63071,159.213128 130.88871,159.213128 L125.29871,159.213128 L125.29871,154.195128 Z M125.29871,148.501128 L130.60271,148.501128 C132.39671,148.501128 133.51471,149.359128 133.51471,150.945128 C133.51471,152.479128 132.52671,153.337128 130.68071,153.337128 L125.29871,153.337128 L125.29871,148.501128 Z" id="Собранных-букетов" fill="#000000"></path>
                            </g>
                        </g>
                    </g>
                </g>
            </g>
        </g>
    </g>
</svg>