<?xml version="1.0" encoding="UTF-8"?>
<svg width="243px" height="118px" viewBox="0 0 243 118" version="1.1" xmlns="http://www.w3.org/2000/svg" xmlns:xlink="http://www.w3.org/1999/xlink">
    <!-- Generator: Sketch 40.3 (33839) - http://www.bohemiancoding.com/sketch -->
    <title>800</title>
    <desc>Created with Sketch.</desc>
    <defs></defs>
    <g id="landing" stroke="none" stroke-width="1" fill="none" fill-rule="evenodd">
        <g id="Bart-Landing" transform="translate(-659.000000, -5756.000000)">
            <g id="Variant-2" transform="translate(0.000000, -4.000000)">
                <g id="Content" transform="translate(-678.000000, -92.000000)">
                    <g id="STATISTICKA" transform="translate(678.000000, 5428.000000)">
                        <g id="Group" transform="translate(142.000000, 369.171434)">
                            <g id="800" transform="translate(517.000000, 55.000000)">
                                <path d="M240.015829,84.0345294 C239.171565,85.6869807 236.920594,90.2271641 230.729223,90.3308556 C228.384611,90.3308556 225.247958,87.0998896 221.535356,84.3462049 C221.535356,84.3462049 224.16299,84.4477925 226.975503,83.0024236 C229.790718,81.558257 232.22897,79.9076091 234.762963,80.0100983 C237.295755,80.1128881 241.518577,81.0422041 240.015829,84.0345294 M240.484631,79.3921573 C238.609722,78.2551578 234.387201,78.0474743 228.758873,81.0422041 C227.070644,81.8675281 222.19294,84.5505823 220.503211,83.4153862 C218.814682,82.2792884 217.126754,80.4212575 215.250345,81.6613473 C213.374536,82.8984316 206.340101,89.6071192 203.055184,93.4256701 C201.742117,94.871039 200.792508,96.1006094 197.895358,97.4513034 C196.194524,98.2462713 194.23798,99.2056428 192.642492,98.5874012 C192.642492,98.5874012 191.236385,105.397977 195.551046,110.146746 C199.865708,114.895214 211.591466,117.062215 217.502516,114.58444 C223.411766,112.107266 225.099094,109.21773 226.037298,107.77146 C226.975203,106.328195 229.281398,103.554673 230.125962,103.040123 C230.519432,102.799078 232.096312,101.793121 232.096312,101.793121 C232.096312,101.793121 232.828628,102.386717 233.129958,102.609728 C233.129958,102.609728 233.824158,102.098785 235.419946,100.858395 C237.013934,99.6207092 241.611317,96.2454769 242.548021,87.4046523 C243.018924,81.3502729 242.36044,80.5258506 240.484631,79.3921573" id="Fill-3" fill="#F7C7B8"></path>
                                <path d="M3.02055362,20.9252585 C3.02055362,28.4983979 6.74696255,33.4374018 11.8981749,36.9495824 C4.88375809,41.1202969 0.280547059,48.2544137 0.280547059,55.7177974 C0.280547059,67.1323843 9.70616964,77.998193 31.9550229,77.998193 C54.4230768,77.998193 63.4102983,67.24214 63.4102983,56.2665757 C63.4102983,47.2666129 58.0398854,41.998342 51.2446691,38.5959171 C57.2726836,34.0959357 60.779892,28.6081535 60.6702917,21.364281 C60.5606915,10.9374949 50.6966678,0.291197517 31.7358224,0.291197517 C11.3501736,0.291197517 3.02055362,10.9374949 3.02055362,20.9252585 L3.02055362,20.9252585 Z M33.5990269,45.7300339 C40.9422445,48.2544137 47.0798592,50.3397709 47.0798592,56.7055982 C47.0798592,61.7543578 41.0518447,65.0470271 33.1606258,65.0470271 C21.8717988,65.0470271 16.8301867,60.1080232 16.7205864,53.7421959 C16.6109862,49.9007483 18.4741906,45.400767 22.5294004,41.998342 C26.3654095,43.4251654 30.311019,44.5227218 33.5990269,45.7300339 L33.5990269,45.7300339 Z M44.8878539,22.5715931 C44.9974542,26.1935294 43.1342497,30.5837551 39.6270413,34.0959357 C37.2158355,33.4374018 34.91423,32.6691123 32.7222248,32.1203341 C25.3790072,29.7057099 18.6933912,27.6203527 18.6933912,21.0350141 C18.6933912,16.8642997 23.1870019,13.2423634 31.0782208,13.2423634 C40.2846429,13.2423634 44.8878539,17.4130779 44.8878539,22.5715931 L44.8878539,22.5715931 Z M72.6167203,39.1446953 C72.6167203,60.6568014 82.8095448,77.998193 106.592802,77.998193 C130.376059,77.998193 140.568883,60.6568014 140.568883,39.1446953 C140.568883,17.6325892 130.376059,0.291197517 106.592802,0.291197517 C82.8095448,0.291197517 72.6167203,17.6325892 72.6167203,39.1446953 L72.6167203,39.1446953 Z M124.128844,39.1446953 C124.128844,55.0592636 118.648831,63.5104481 106.592802,63.5104481 C94.5367729,63.5104481 89.0567597,55.0592636 89.0567597,39.1446953 C89.0567597,23.230127 94.5367729,14.7789424 106.592802,14.7789424 C118.648831,14.7789424 124.128844,23.230127 124.128844,39.1446953 L124.128844,39.1446953 Z M149.994506,39.1446953 C149.994506,60.6568014 160.18733,77.998193 183.970587,77.998193 C207.753844,77.998193 217.946668,60.6568014 217.946668,39.1446953 C217.946668,17.6325892 207.753844,0.291197517 183.970587,0.291197517 C160.18733,0.291197517 149.994506,17.6325892 149.994506,39.1446953 L149.994506,39.1446953 Z M201.506629,39.1446953 C201.506629,55.0592636 196.026616,63.5104481 183.970587,63.5104481 C171.914558,63.5104481 166.434545,55.0592636 166.434545,39.1446953 C166.434545,23.230127 171.914558,14.7789424 183.970587,14.7789424 C196.026616,14.7789424 201.506629,23.230127 201.506629,39.1446953 L201.506629,39.1446953 Z" id="800-" fill="#F7C7B8"></path>
                                <path d="M19.4574536,57.4151696 C19.4574536,62.3341346 23.3540156,64.7417293 26.9604081,64.7417293 C28.5770668,64.7417293 30.0279144,64.368137 31.1885925,63.7247281 L31.1885925,62.894523 C30.0693672,63.5794422 28.7014252,63.9530344 27.1054929,63.9530344 C23.8099963,63.9530344 20.2865093,61.8775218 20.2865093,57.4151696 C20.3072357,52.7867763 23.7685435,50.5452227 27.0640401,50.5452227 C28.4941613,50.5452227 29.9242824,50.9188149 31.0227813,51.582979 L31.0227813,50.7527739 C29.8413769,50.109365 28.4112557,49.7565278 26.9604081,49.7565278 C23.2918364,49.7565278 19.47818,52.3301635 19.4574536,57.4151696 L19.4574536,57.4151696 Z M40.3220238,64.5134229 C42.2081256,64.5134229 43.4724356,63.6001973 43.4724356,61.8775218 C43.4724356,60.4039078 42.5604743,59.6567232 41.4619754,59.4284168 C42.4982951,59.1170899 43.0993605,58.2661298 43.0993605,57.1453529 C43.0993605,55.5056979 41.9386825,54.5509621 40.073307,54.5509621 L34.9746142,54.5509621 L34.9746142,64.5134229 L40.3220238,64.5134229 Z M35.7622171,59.8020091 L40.3012974,59.8020091 C41.5656074,59.8020091 42.6848326,60.3001322 42.6848326,61.8360115 C42.6848326,63.2681153 41.6070602,63.8077486 40.2183918,63.8077486 L35.7622171,63.8077486 L35.7622171,59.8020091 Z M35.7622171,55.2566364 L39.9904015,55.2566364 C41.4205226,55.2566364 42.3117576,55.9415556 42.3117576,57.2076183 C42.3117576,58.4321708 41.5241546,59.1170899 40.0525806,59.1170899 L35.7622171,59.1170899 L35.7622171,55.2566364 Z M46.8853822,59.5321925 C46.8853822,63.1643396 49.4761814,64.7417293 52.3156974,64.7417293 C53.5385546,64.7417293 54.7821382,64.4719126 55.6526468,63.9945447 L55.6526468,63.2058499 C54.8028646,63.7039729 53.6007338,63.9945447 52.4193293,63.9945447 C50.0357941,63.9945447 47.7973435,62.8115025 47.6729852,59.9265399 L56.2329858,59.9265399 C56.6889665,57.4774349 55.4661092,54.3226557 51.7560847,54.3226557 C49.3103703,54.3226557 46.8853822,56.1491068 46.8853822,59.5321925 L46.8853822,59.5321925 Z M55.5490148,59.2208656 L47.6729852,59.2208656 C47.7558908,56.5226991 49.6834454,55.0698403 51.7975375,55.0698403 C54.823591,55.0698403 55.7355523,57.5189452 55.5490148,59.2208656 L55.5490148,59.2208656 Z M73.0766356,64.5134229 L68.7240929,59.4076617 L72.5377493,54.5509621 L71.625788,54.5509621 L68.0608483,59.0548246 L66.2161992,59.0548246 L66.2161992,54.5509621 L65.4285963,54.5509621 L65.4285963,59.0548246 L63.6046736,59.0548246 L60.0190075,54.5509621 L59.1277726,54.5509621 L62.941429,59.4076617 L58.5681599,64.5134229 L59.4801213,64.5134229 L63.5839472,59.8020091 L65.4285963,59.8020091 L65.4285963,64.5134229 L66.2161992,64.5134229 L66.2161992,59.8020091 L68.0815747,59.8020091 L72.1854006,64.5134229 L73.0766356,64.5134229 Z M77.0491948,64.5134229 L84.324159,55.7962697 L84.324159,64.5134229 L85.111762,64.5134229 L85.111762,54.5509621 L84.3863382,54.5509621 L77.1321004,63.2681153 L77.1321004,54.5509621 L76.3444974,54.5509621 L76.3444974,64.5134229 L77.0491948,64.5134229 Z M96.7116341,54.5509621 L93.1674208,58.8265182 L89.6232075,54.5509621 L88.7112461,54.5509621 L92.7114401,59.4076617 L88.4832558,64.5134229 L89.4159435,64.5134229 L93.1674208,59.9680501 L96.9396245,64.5134229 L97.8515858,64.5134229 L93.6441279,59.4076617 L97.6443218,54.5509621 L96.7116341,54.5509621 Z M117.983824,67.3361201 L117.983824,63.7662383 L116.553703,63.7662383 L116.553703,54.5509621 L115.7661,54.5509621 L115.7661,63.7662383 L108.864211,63.7662383 L108.864211,54.5509621 L108.076608,54.5509621 L108.076608,64.5134229 L117.216947,64.5134229 L117.216947,67.3361201 L117.983824,67.3361201 Z M127.075802,64.5134229 C128.961904,64.5134229 130.226214,63.6001973 130.226214,61.8775218 C130.226214,60.4039078 129.314253,59.6567232 128.215754,59.4284168 C129.252074,59.1170899 129.853139,58.2661298 129.853139,57.1453529 C129.853139,55.5056979 128.692461,54.5509621 126.827086,54.5509621 L121.728393,54.5509621 L121.728393,64.5134229 L127.075802,64.5134229 Z M122.515996,59.8020091 L127.055076,59.8020091 C128.319386,59.8020091 129.438611,60.3001322 129.438611,61.8360115 C129.438611,63.2681153 128.360839,63.8077486 126.97217,63.8077486 L122.515996,63.8077486 L122.515996,59.8020091 Z M122.515996,55.2566364 L126.74418,55.2566364 C128.174301,55.2566364 129.065536,55.9415556 129.065536,57.2076183 C129.065536,58.4321708 128.277933,59.1170899 126.806359,59.1170899 L122.515996,59.1170899 L122.515996,55.2566364 Z M133.639161,59.5321925 C133.639161,63.1643396 136.22996,64.7417293 139.069476,64.7417293 C140.292333,64.7417293 141.535917,64.4719126 142.406425,63.9945447 L142.406425,63.2058499 C141.556643,63.7039729 140.354512,63.9945447 139.173108,63.9945447 C136.789573,63.9945447 134.551122,62.8115025 134.426764,59.9265399 L142.986764,59.9265399 C143.442745,57.4774349 142.219888,54.3226557 138.509863,54.3226557 C136.064149,54.3226557 133.639161,56.1491068 133.639161,59.5321925 L133.639161,59.5321925 Z M142.302793,59.2208656 L134.426764,59.2208656 C134.509669,56.5226991 136.437224,55.0698403 138.551316,55.0698403 C141.57737,55.0698403 142.489331,57.5189452 142.302793,59.2208656 L142.302793,59.2208656 Z M150.192641,64.5134229 L150.192641,55.2981467 L154.192835,55.2981467 L154.192835,54.5509621 L145.384118,54.5509621 L145.384118,55.2981467 L149.405038,55.2981467 L149.405038,64.5134229 L150.192641,64.5134229 Z M156.300019,59.5321925 C156.300019,62.8737679 158.787186,64.7417293 161.460891,64.7417293 C164.155322,64.7417293 166.642489,62.8737679 166.642489,59.5321925 C166.642489,56.1906171 164.155322,54.3226557 161.460891,54.3226557 C158.787186,54.3226557 156.300019,56.1906171 156.300019,59.5321925 L156.300019,59.5321925 Z M165.854886,59.5321925 C165.854886,62.3548897 163.8237,63.9737896 161.460891,63.9737896 C159.118808,63.9737896 157.087622,62.3548897 157.087622,59.5321925 C157.087622,56.7094953 159.118808,55.0905954 161.460891,55.0905954 C163.8237,55.0905954 165.854886,56.7094953 165.854886,59.5321925 L165.854886,59.5321925 Z M176.003911,64.5134229 C177.890013,64.5134229 179.154323,63.6001973 179.154323,61.8775218 C179.154323,60.4039078 178.242361,59.6567232 177.143863,59.4284168 C178.180182,59.1170899 178.781248,58.2661298 178.781248,57.1453529 C178.781248,55.5056979 177.62057,54.5509621 175.755194,54.5509621 L170.656501,54.5509621 L170.656501,64.5134229 L176.003911,64.5134229 Z M171.444104,59.8020091 L175.983185,59.8020091 C177.247495,59.8020091 178.36672,60.3001322 178.36672,61.8360115 C178.36672,63.2681153 177.288947,63.8077486 175.900279,63.8077486 L171.444104,63.8077486 L171.444104,59.8020091 Z M171.444104,55.2566364 L175.672289,55.2566364 C177.10241,55.2566364 177.993645,55.9415556 177.993645,57.2076183 C177.993645,58.4321708 177.206042,59.1170899 175.734468,59.1170899 L171.444104,59.1170899 L171.444104,55.2566364 Z M20.7839428,89.7160766 L28.058907,80.9989234 L28.058907,89.7160766 L28.84651,89.7160766 L28.84651,79.7536158 L28.1210862,79.7536158 L20.8668484,88.470769 L20.8668484,79.7536158 L20.0792454,79.7536158 L20.0792454,89.7160766 L20.7839428,89.7160766 Z M40.5292877,87.0801755 C40.5292877,85.7310923 39.4515152,84.8801321 38.3530163,84.6103155 C39.5966,84.3820091 40.3220238,83.551804 40.3220238,82.3272515 C40.3220238,80.5008004 38.6639123,79.5253094 36.3425562,79.5253094 C35.0575197,79.5253094 33.9382945,79.7951261 32.9019748,80.2309837 L32.9019748,80.9781683 C33.8968417,80.5423106 35.0575197,80.2517389 36.2596506,80.2517389 C38.0421204,80.2517389 39.5344208,80.936658 39.5344208,82.4310272 C39.5344208,83.5933142 38.6639123,84.1744578 37.2752439,84.2782334 L34.8502558,84.2782334 L34.8502558,85.025418 L37.2752439,85.025418 C38.3737427,85.025418 39.7416847,85.6065615 39.7416847,87.0179101 C39.7416847,88.6783203 38.021394,89.1971984 36.2389242,89.1971984 C35.016067,89.1971984 33.648125,88.8858715 32.75689,88.4500139 L32.75689,89.2179536 C33.7103041,89.6538112 35.016067,89.944383 36.3218298,89.944383 C38.6224595,89.944383 40.5292877,89.0934228 40.5292877,87.0801755 L40.5292877,87.0801755 Z M52.7025905,89.7160766 L52.7025905,75.9761828 L61.2625911,75.9761828 L61.2625911,75.187488 L51.8735348,75.187488 L51.8735348,89.7160766 L52.7025905,89.7160766 Z M60.0742783,84.7348462 C60.0742783,88.0764216 62.5614456,89.944383 65.2351504,89.944383 C67.9295816,89.944383 70.4167488,88.0764216 70.4167488,84.7348462 C70.4167488,81.3932708 67.9295816,79.5253094 65.2351504,79.5253094 C62.5614456,79.5253094 60.0742783,81.3932708 60.0742783,84.7348462 L60.0742783,84.7348462 Z M69.6291459,84.7348462 C69.6291459,87.5575434 67.5979593,89.1764433 65.2351504,89.1764433 C62.8930679,89.1764433 60.8618813,87.5575434 60.8618813,84.7348462 C60.8618813,81.912149 62.8930679,80.2932491 65.2351504,80.2932491 C67.5979593,80.2932491 69.6291459,81.912149 69.6291459,84.7348462 L69.6291459,84.7348462 Z M76.7728433,80.5008004 L81.9751682,80.5008004 L81.9751682,89.7160766 L82.7627711,89.7160766 L82.7627711,79.7536158 L76.0059668,79.7536158 C75.8194292,85.7103372 75.0525527,89.1556882 73.1871772,89.1556882 C72.9591869,89.1556882 72.7104702,89.1349331 72.4617534,89.0311574 L72.4617534,89.6745663 C72.8141021,89.7990971 73.1042717,89.8406074 73.3944412,89.8406074 C75.7157973,89.8406074 76.5241266,86.2914807 76.7728433,80.5008004 L76.7728433,80.5008004 Z M90.3002701,80.5008004 L95.5025949,80.5008004 L95.5025949,89.7160766 L96.2901979,89.7160766 L96.2901979,79.7536158 L89.5333935,79.7536158 C89.346856,85.7103372 88.5799794,89.1556882 86.714604,89.1556882 C86.4866137,89.1556882 86.2378969,89.1349331 85.9891802,89.0311574 L85.9891802,89.6745663 C86.3415289,89.7990971 86.6316984,89.8406074 86.9218679,89.8406074 C89.243224,89.8406074 90.0515534,86.2914807 90.3002701,80.5008004 L90.3002701,80.5008004 Z M108.677673,88.1179318 L108.677673,83.5725591 C108.677673,81.0404337 107.164646,79.5253094 104.532394,79.5253094 C102.957188,79.5253094 101.692878,79.8781466 100.926002,80.1479632 L100.926002,80.9159029 C101.734331,80.604576 102.977915,80.272494 104.470215,80.272494 C106.708666,80.272494 107.89007,81.5593118 107.89007,83.4895386 L107.89007,84.4027642 C106.85375,84.0706822 105.672346,83.8631309 104.490941,83.8631309 C102.356123,83.8631309 100.159125,84.6725808 100.159125,87.0386653 C100.159125,89.0311574 101.858689,89.944383 103.57898,89.944383 C105.340724,89.944383 106.895203,89.1971984 107.89007,87.8688703 L107.89007,88.138687 C107.89007,89.3424843 108.656947,89.7575869 109.465276,89.7575869 C109.796898,89.7575869 110.128521,89.6953215 110.439416,89.5915458 L110.439416,88.9273818 C110.1907,89.0104023 109.921257,89.0726677 109.67254,89.0726677 C109.133654,89.0726677 108.677673,88.8443613 108.677673,88.1179318 L108.677673,88.1179318 Z M100.967455,87.0179101 C100.967455,85.1707039 102.791377,84.5480501 104.573847,84.5480501 C105.734525,84.5480501 106.91593,84.7763565 107.89007,85.0876834 L107.89007,86.8933794 C106.998835,88.4292587 105.382176,89.2387087 103.724065,89.2387087 C102.31467,89.2387087 100.967455,88.5330344 100.967455,87.0179101 L100.967455,87.0179101 Z M114.453429,89.7160766 L114.453429,85.1084385 L121.479676,85.1084385 L121.479676,89.7160766 L122.267279,89.7160766 L122.267279,79.7536158 L121.479676,79.7536158 L121.479676,84.3612539 L114.453429,84.3612539 L114.453429,79.7536158 L113.665826,79.7536158 L113.665826,89.7160766 L114.453429,89.7160766 Z M126.612913,92.5387738 L126.612913,89.7160766 L136.540856,89.7160766 L136.540856,92.5387738 L137.328459,92.5387738 L137.328459,88.9896472 L135.898338,88.9896472 L135.898338,79.7536158 L129.017175,79.7536158 C129.017175,83.8631309 128.41611,86.4367666 127.131073,88.9896472 L125.846037,88.9896472 L125.846037,92.5387738 L126.612913,92.5387738 Z M129.763325,80.4800453 L135.090008,80.4800453 L135.090008,88.9896472 L127.960129,88.9896472 C129.100081,86.6028076 129.721872,84.1952129 129.763325,80.4800453 L129.763325,80.4800453 Z M141.756999,89.7160766 L149.031963,80.9989234 L149.031963,89.7160766 L149.819566,89.7160766 L149.819566,79.7536158 L149.094142,79.7536158 L141.839904,88.470769 L141.839904,79.7536158 L141.052301,79.7536158 L141.052301,89.7160766 L141.756999,89.7160766 Z M155.263699,89.7160766 L162.538663,80.9989234 L162.538663,89.7160766 L163.326266,89.7160766 L163.326266,79.7536158 L162.600843,79.7536158 L155.346605,88.470769 L155.346605,79.7536158 L154.559002,79.7536158 L154.559002,89.7160766 L155.263699,89.7160766 Z M19.374548,109.9375 C19.374548,113.569647 21.9653472,115.147037 24.8048632,115.147037 C26.0277204,115.147037 27.271304,114.87722 28.1418126,114.399852 L28.1418126,113.611157 C27.2920304,114.10928 26.0898996,114.399852 24.9084952,114.399852 C22.5249599,114.399852 20.2865093,113.21681 20.162151,110.331847 L28.7221516,110.331847 C29.1781323,107.882742 27.955275,104.727963 24.2452506,104.727963 C21.7995361,104.727963 19.374548,106.554414 19.374548,109.9375 L19.374548,109.9375 Z M28.0381806,109.626173 L20.162151,109.626173 C20.2450566,106.928007 22.1726112,105.475148 24.2867033,105.475148 C27.3127568,105.475148 28.2247182,107.924253 28.0381806,109.626173 L28.0381806,109.626173 Z M45.5658014,114.91873 L41.2132587,109.812969 L45.0269151,104.95627 L44.1149538,104.95627 L40.5500141,109.460132 L38.705365,109.460132 L38.705365,104.95627 L37.9177621,104.95627 L37.9177621,109.460132 L36.0938394,109.460132 L32.5081733,104.95627 L31.6169384,104.95627 L35.4305948,109.812969 L31.0573257,114.91873 L31.9692871,114.91873 L36.073113,110.207317 L37.9177621,110.207317 L37.9177621,114.91873 L38.705365,114.91873 L38.705365,110.207317 L40.5707405,110.207317 L44.6745664,114.91873 L45.5658014,114.91873 Z M47.6522588,109.9375 C47.6522588,113.569647 50.243058,115.147037 53.0825739,115.147037 C54.3054312,115.147037 55.5490148,114.87722 56.4195233,114.399852 L56.4195233,113.611157 C55.5697412,114.10928 54.3676104,114.399852 53.1862059,114.399852 C50.8026706,114.399852 48.5642201,113.21681 48.4398617,110.331847 L56.9998624,110.331847 C57.455843,107.882742 56.2329858,104.727963 52.5229613,104.727963 C50.0772469,104.727963 47.6522588,106.554414 47.6522588,109.9375 L47.6522588,109.9375 Z M56.3158914,109.626173 L48.4398617,109.626173 C48.5227673,106.928007 50.4503219,105.475148 52.5644141,105.475148 C55.5904676,105.475148 56.5024289,107.924253 56.3158914,109.626173 L56.3158914,109.626173 Z M61.8014774,114.91873 L61.8014774,110.311092 L68.8277248,110.311092 L68.8277248,114.91873 L69.6153278,114.91873 L69.6153278,104.95627 L68.8277248,104.95627 L68.8277248,109.563908 L61.8014774,109.563908 L61.8014774,104.95627 L61.0138744,104.95627 L61.0138744,114.91873 L61.8014774,114.91873 Z M73.6500662,109.9375 C73.6500662,113.569647 76.2408655,115.147037 79.0803814,115.147037 C80.3032386,115.147037 81.5468223,114.87722 82.4173308,114.399852 L82.4173308,113.611157 C81.5675487,114.10928 80.3654178,114.399852 79.1840134,114.399852 C76.8004781,114.399852 74.5620276,113.21681 74.4376692,110.331847 L82.9976698,110.331847 C83.4536505,107.882742 82.2307933,104.727963 78.5207688,104.727963 C76.0750543,104.727963 73.6500662,106.554414 73.6500662,109.9375 L73.6500662,109.9375 Z M82.3136988,109.626173 L74.4376692,109.626173 C74.5205748,106.928007 76.4481294,105.475148 78.5622216,105.475148 C81.588275,105.475148 82.5002364,107.924253 82.3136988,109.626173 L82.3136988,109.626173 Z M86.4520692,117.741428 L86.4520692,114.91873 L96.3800118,114.91873 L96.3800118,117.741428 L97.1676148,117.741428 L97.1676148,114.192301 L95.7374936,114.192301 L95.7374936,104.95627 L88.8563309,104.95627 C88.8563309,109.065785 88.2552655,111.63942 86.9702291,114.192301 L85.6851927,114.192301 L85.6851927,117.741428 L86.4520692,117.741428 Z M89.6024811,105.682699 L94.9291643,105.682699 L94.9291643,114.192301 L87.7992848,114.192301 C88.9392365,111.805461 89.5610283,109.397867 89.6024811,105.682699 L89.6024811,105.682699 Z M100.000222,109.9375 C100.000222,113.569647 102.591022,115.147037 105.430538,115.147037 C106.653395,115.147037 107.896978,114.87722 108.767487,114.399852 L108.767487,113.611157 C107.917705,114.10928 106.715574,114.399852 105.53417,114.399852 C103.150634,114.399852 100.912184,113.21681 100.787825,110.331847 L109.347826,110.331847 C109.803807,107.882742 108.580949,104.727963 104.870925,104.727963 C102.42521,104.727963 100.000222,106.554414 100.000222,109.9375 L100.000222,109.9375 Z M108.663855,109.626173 L100.787825,109.626173 C100.870731,106.928007 102.798286,105.475148 104.912378,105.475148 C107.938431,105.475148 108.850393,107.924253 108.663855,109.626173 L108.663855,109.626173 Z M116.056269,105.703454 L121.258594,105.703454 L121.258594,114.91873 L122.046197,114.91873 L122.046197,104.95627 L115.289393,104.95627 C115.102855,110.912991 114.335979,114.358342 112.470603,114.358342 C112.242613,114.358342 111.993896,114.337587 111.745179,114.233811 L111.745179,114.87722 C112.097528,115.001751 112.387697,115.043261 112.677867,115.043261 C114.999223,115.043261 115.807552,111.494134 116.056269,105.703454 L116.056269,105.703454 Z M131.200355,114.91873 C133.500984,114.91873 134.951832,113.611157 134.951832,111.805461 C134.951832,109.999765 133.500984,108.692192 131.200355,108.692192 L127.573236,108.692192 L127.573236,104.95627 L126.785633,104.95627 L126.785633,114.91873 L131.200355,114.91873 Z M127.573236,109.418622 L131.117449,109.418622 C132.982825,109.418622 134.143503,110.352602 134.143503,111.805461 C134.143503,113.237565 133.003551,114.192301 131.117449,114.192301 L127.573236,114.192301 L127.573236,109.418622 Z M139.484004,114.91873 L139.484004,110.311092 L146.510251,110.311092 L146.510251,114.91873 L147.297854,114.91873 L147.297854,104.95627 L146.510251,104.95627 L146.510251,109.563908 L139.484004,109.563908 L139.484004,104.95627 L138.696401,104.95627 L138.696401,114.91873 L139.484004,114.91873 Z M151.311866,109.9375 C151.311866,113.279075 153.799034,115.147037 156.472738,115.147037 C159.16717,115.147037 161.654337,113.279075 161.654337,109.9375 C161.654337,106.595925 159.16717,104.727963 156.472738,104.727963 C153.799034,104.727963 151.311866,106.595925 151.311866,109.9375 L151.311866,109.9375 Z M160.866734,109.9375 C160.866734,112.760197 158.835547,114.379097 156.472738,114.379097 C154.130656,114.379097 152.099469,112.760197 152.099469,109.9375 C152.099469,107.114803 154.130656,105.495903 156.472738,105.495903 C158.835547,105.495903 160.866734,107.114803 160.866734,109.9375 L160.866734,109.9375 Z" id="Свежих-цветов-из-Гол" fill="#000000"></path>
                            </g>
                        </g>
                    </g>
                </g>
            </g>
        </g>
    </g>
</svg>