<?xml version="1.0" encoding="UTF-8"?>
<svg width="28px" height="28px" viewBox="0 0 28 28" version="1.1" xmlns="http://www.w3.org/2000/svg" xmlns:xlink="http://www.w3.org/1999/xlink">
    <!-- Generator: Sketch 40.3 (33839) - http://www.bohemiancoding.com/sketch -->
    <title>fb</title>
    <desc>Created with Sketch.</desc>
    <defs></defs>
    <g id="landing" stroke="none" stroke-width="1" fill="none" fill-rule="evenodd">
        <g id="Bart-Landing" transform="translate(-421.000000, -8505.000000)">
            <g id="Variant-2" transform="translate(0.000000, -4.000000)">
                <g id="Content" transform="translate(-678.000000, -92.000000)">
                    <g id="footer" transform="translate(678.000000, 8565.000000)">
                        <g id="Social" transform="translate(421.000000, 25.000000)">
                            <g id="fb" transform="translate(0.000000, 11.000000)">
                                <path d="M14.0062373,27.717169 C6.38667911,27.717169 0.18761982,21.5695824 0.18761982,14.0129606 C0.18761982,6.45606929 6.38667911,0.307943785 14.0062373,0.307943785 C21.6257954,0.307943785 27.8248547,6.45606929 27.8248547,14.0129606 C27.8248547,21.5695824 21.6257954,27.717169 14.0062373,27.717169" id="Fill-17" fill="#000000"></path>
                                <path d="M11.8620122,18.1079743 C11.8620122,16.8379833 11.8571214,15.5679923 11.8669029,14.2982707 C11.8682615,14.0840456 11.8073985,14.0172181 11.5913892,14.02638 C11.1925192,14.042009 10.7922906,14.0247632 10.3928772,14.0336555 C10.2309382,14.037967 10.1714337,13.9929662 10.1733357,13.8234724 C10.1812153,13.0307048 10.1806719,12.2384762 10.1741508,11.4454391 C10.1725206,11.2934606 10.2189829,11.2428011 10.3741292,11.2463041 C10.7827808,11.2557354 11.1922475,11.2349866 11.5998122,11.254927 C11.8361997,11.266514 11.8851075,11.1835186 11.8802167,10.9657905 C11.8660878,10.3629961 11.8660878,9.75912385 11.8791299,9.15579053 C11.8957042,8.41961071 12.0948675,7.73139575 12.537211,7.13291281 C13.0972049,6.37409788 13.893043,6.02756521 14.8111504,5.98714538 C15.7542552,5.94510876 16.6998053,5.96828279 17.6439969,5.9580431 C17.7757761,5.95669577 17.8149024,6.00331331 17.8140872,6.13050104 C17.8102833,6.93162206 17.8091964,7.733282 17.8149024,8.53521142 C17.8162609,8.67775868 17.7692551,8.72114263 17.6282377,8.71871744 C17.1739389,8.71198081 16.7199118,8.71548386 16.2658847,8.71629225 C15.6613304,8.71817851 15.2996847,9.02698601 15.261917,9.6203491 C15.2314855,10.0959558 15.253494,10.5745265 15.2423539,11.0514805 C15.2385499,11.2212438 15.3404411,11.2093873 15.4537441,11.2093873 C16.143887,11.2085789 16.8340299,11.2166629 17.5241729,11.2048064 C17.7265967,11.2010339 17.7934373,11.247382 17.7703419,11.4586429 C17.6836665,12.2549136 17.6086746,13.052801 17.539932,13.8512274 C17.5244446,14.0312303 17.4415731,14.0657219 17.2785472,14.0627578 C16.7340407,14.0546738 16.1889909,14.0573685 15.6442127,14.0606021 C15.2526789,14.0627578 15.2907182,14.0042838 15.2907182,14.3993203 C15.2888163,16.8854092 15.2858275,19.3709593 15.2964241,21.8565093 C15.297511,22.1195077 15.2298552,22.1847183 14.967927,22.1795985 C14.0327018,22.1628916 13.0972049,22.1620832 12.1619798,22.1801374 C11.8984213,22.1855267 11.8552194,22.0968726 11.8571214,21.8637849 C11.8671746,20.6115786 11.8620122,19.3599112 11.8620122,18.1079743" id="Fill-21" fill="#FFFFFF"></path>
                            </g>
                        </g>
                    </g>
                </g>
            </g>
        </g>
    </g>
</svg>