<?xml version="1.0" encoding="UTF-8"?>
<svg width="9px" height="18px" viewBox="0 0 9 18" version="1.1" xmlns="http://www.w3.org/2000/svg" xmlns:xlink="http://www.w3.org/1999/xlink">
    <!-- Generator: Sketch 40.3 (33839) - http://www.bohemiancoding.com/sketch -->
    <title>fb</title>
    <desc>Created with Sketch.</desc>
    <defs></defs>
    <g id="landing" stroke="none" stroke-width="1" fill="none" fill-rule="evenodd">
        <g id="Bart-Landing" transform="translate(-874.000000, -27.000000)" fill="#000000">
            <g id="Variant-2" transform="translate(0.000000, -4.000000)">
                <g id="Content" transform="translate(-678.000000, -92.000000)">
                    <g id="Header-" transform="translate(677.000000, 0.000000)">
                        <g id="top" transform="translate(1.000000, 0.000000)">
                            <g id="Social" transform="translate(819.000000, 122.000000)">
                                <g id="fb" transform="translate(55.000000, 1.000000)">
                                    <path d="M1.79227411,13.4014011 C1.79227411,12.0406964 1.78708343,10.6799917 1.79746479,9.31957573 C1.79890665,9.09004884 1.73431149,9.018448 1.50505633,9.02826425 C1.08172733,9.04500961 0.656956461,9.02653197 0.233050709,9.0360595 C0.0611814387,9.04067891 -0.00197186708,8.99246383 4.67317351e-05,8.81086331 C0.00840949826,7.96146947 0.00783275574,7.11265305 0.000911845513,6.2629705 C-0.000818382043,6.10013633 0.0484931033,6.04585827 0.213153092,6.04961154 C0.646863466,6.0597165 1.08143895,6.03748559 1.51399584,6.05885036 C1.76487884,6.07126502 1.81678567,5.9823414 1.81159498,5.74906124 C1.79659968,5.10321011 1.79659968,4.45620413 1.8104415,3.80977557 C1.82803214,3.02101147 2.03940828,2.2836383 2.50887669,1.64240658 C3.10320985,0.829390583 3.94784927,0.458105579 4.92225576,0.414798619 C5.9231924,0.369759381 6.92672438,0.394588704 7.92881451,0.383617608 C8.06867457,0.382174043 8.11020003,0.432121403 8.10933492,0.568393971 C8.10529772,1.42673792 8.10414423,2.28565929 8.11020003,3.14486938 C8.11164189,3.29759859 8.06175366,3.34408139 7.91208898,3.34148298 C7.42993223,3.33426515 6.94806385,3.33801842 6.46619548,3.33888456 C5.82456943,3.34090555 5.44074728,3.67177072 5.40066368,4.3075169 C5.3683661,4.81709546 5.39172417,5.32984986 5.37990095,5.84087199 C5.37586375,6.02276122 5.48400297,6.01005785 5.60425379,6.01005785 C6.33671679,6.00919171 7.06917978,6.0178531 7.80164278,6.00514973 C8.01647937,6.00110774 8.0874187,6.05076639 8.06290714,6.27711744 C7.97091671,7.13026455 7.89132624,7.98514394 7.81836832,8.84060075 C7.80193115,9.03346108 7.71397792,9.07041636 7.54095516,9.06724051 C6.96305916,9.05857912 6.38458641,9.06146625 5.80640204,9.06493081 C5.39085905,9.06724051 5.43123103,9.00458978 5.43123103,9.42784313 C5.42921243,12.0915099 5.42604035,14.7545992 5.43728683,17.4176885 C5.43844031,17.6994725 5.36663587,17.7693411 5.08864597,17.7638555 C4.0960721,17.7459553 3.10320985,17.7450892 2.11063598,17.7644329 C1.83091586,17.7702072 1.78506483,17.6752206 1.78708343,17.4254838 C1.79775316,16.0838342 1.79227411,14.742762 1.79227411,13.4014011" id="Fill-21"></path>
                                </g>
                            </g>
                        </g>
                    </g>
                </g>
            </g>
        </g>
    </g>
</svg>