<?xml version="1.0" encoding="UTF-8"?>
<svg width="123px" height="79px" viewBox="0 0 123 79" version="1.1" xmlns="http://www.w3.org/2000/svg" xmlns:xlink="http://www.w3.org/1999/xlink">
    <!-- Generator: Sketch 40.3 (33839) - http://www.bohemiancoding.com/sketch -->
    <title>logo</title>
    <desc>Created with Sketch.</desc>
    <defs>
        <polygon id="path-1" points="0 79.9278947 122.467368 79.9278947 122.467368 1.05210526 0 1.05210526"></polygon>
    </defs>
    <g id="landing" stroke="none" stroke-width="1" fill="none" fill-rule="evenodd">
        <g id="Bart-Landing" transform="translate(-50.000000, -8480.000000)">
            <g id="Variant-2" transform="translate(0.000000, -4.000000)">
                <g id="Content" transform="translate(-678.000000, -92.000000)">
                    <g id="footer" transform="translate(678.000000, 8565.000000)">
                        <g id="logo" transform="translate(50.000000, 10.000000)">
                            <g id="Group-3" transform="translate(0.000000, 0.980526)" fill="#000000">
                                <path d="M119.636105,32.1815789 C118.577158,33.1215789 117.251895,33.4731579 115.692947,33.2352632 C117.776105,31.9657895 118.632947,29.9078947 118.632947,29.8057895 C118.632947,29.6573684 118.379263,29.5784211 118.058211,29.5784211 C117.839263,29.5784211 117.077158,31.6310526 115.090842,32.8036842 C114.741368,31.4847368 114.918211,30.17 115.626632,28.9710526 C116.740316,27.0868421 119.032947,25.6868421 121.797158,25.1889474 C122.074,28.0373684 121.241368,30.7563158 119.636105,32.1815789 M100.812947,47.9173684 C99.9445263,45.7363158 100.138211,43.2573684 101.336105,41.0689474 C103.721368,42.6352632 105.140316,44.4236842 105.446632,46.2573684 C105.691895,47.7289474 105.241368,49.2689474 104.106632,50.8415789 C103.867684,48.7847368 103.452947,46.35 103.143474,46.3573684 C102.697158,46.3689474 102.564526,46.3257895 102.570842,46.5721053 C102.578211,46.8563158 103.202421,48.1626316 103.503474,50.99 C102.364526,50.4584211 101.384526,49.3510526 100.812947,47.9173684 M65.0213684,27.3373684 C65.0213684,26.0594737 65.4834737,25.0321053 66.5918947,25.0321053 C67.4582105,25.0321053 68.5129474,25.7636842 68.5129474,28.7868421 C68.5129474,30.05 68.4087368,31.5257895 68.2171579,33.1278947 C66.3603158,32.0373684 65.0213684,30.3015789 65.0213684,27.3373684 M45.8350526,56.9394737 C41.6382105,56.9394737 42.2234737,37.6068421 50.1329474,37.6068421 C51.2876842,37.6068421 52.1055789,38.2952632 52.6866316,39.3363158 C52.3129474,41.47 51.9529474,44.4531579 51.7771579,47.0857895 C50.5518947,51.6405263 48.3834737,56.9394737 45.8350526,56.9394737 M22.2434737,46.7552632 C20.9087368,46.7552632 20.2529474,46.1868421 20.2529474,45.5373684 C20.2529474,44.4205263 21.0771579,43.81 22.5266316,43.81 C24.1624211,43.81 25.3192632,44.8678947 26.1161053,46.3542105 C24.8087368,46.61 23.5097895,46.7552632 22.2434737,46.7552632 M29.5003158,0.699473684 C30.7350526,0.699473684 31.3992632,2.95 31.3992632,4.84368421 C31.3992632,18.4721053 24.6266316,25.9215789 17.6676842,32.3089474 C18.9666316,18.1005263 24.4329474,0.699473684 29.5003158,0.699473684 M5.81189474,53.3784211 C5.78978947,55.7942105 4.64031579,58.0794737 2.64452632,59.6952632 C0.981368421,57.2773684 0.325578947,55.0215789 0.747684211,53.1563158 C1.06873684,51.7342105 2.014,50.4994737 3.55715789,49.4752632 C3.04452632,51.1752632 2.75505263,53.0121053 2.75505263,55.0342105 C2.75505263,55.21 3.38557895,55.4910526 3.38557895,55.0078947 C3.38557895,52.9805263 3.734,51.0952632 4.34873684,49.3163158 C5.28347368,50.2636842 5.82557895,51.7384211 5.81189474,53.3784211 M122.375053,24.7910526 L122.335053,24.4763158 L122.021368,24.5247368 C118.934,24.9973684 116.344526,26.5426316 115.095053,28.6563158 C114.275053,30.0447368 114.082421,31.5710526 114.525579,33.0952632 C113.697158,33.4668421 112.689789,33.6784211 111.464526,33.5742105 C107.979263,33.2773684 103.354,30.9605263 98.4571579,28.5089474 C98.0413684,28.3005263 97.6213684,28.0910526 97.2013684,27.8815789 C98.6318947,20.9310526 99.9561053,15.6310526 99.9561053,15.1268421 C99.9561053,13.77 97.2876842,12.4142105 96.1403158,12.4142105 C95.2708421,12.4142105 93.7213684,18.1152632 92.3371579,25.5542105 C92.2666316,25.5226316 92.194,25.4878947 92.1234737,25.4563158 C83.9276842,21.8215789 78.9424211,22.1931579 75.2055789,26.6668421 C74.9750526,26.9415789 75.3076842,27.5131579 75.4897895,27.2942105 C79.434,22.5268421 83.9813684,22.5226316 91.8729474,26.0215789 C91.9876842,26.0731579 92.1055789,26.1289474 92.2213684,26.1805263 C91.6234737,29.4573684 91.0624211,33.0405263 90.6055789,36.6078947 C87.8803158,46.9963158 83.7287368,58.5710526 78.7382105,58.5710526 C75.0013684,58.5710526 74.9897895,55.3005263 74.9897895,52.8478947 C74.9897895,46.6531579 79.2624211,38.6331579 79.2624211,37.3142105 C79.2624211,34.9036842 73.1918947,35.5078947 68.9782105,33.5289474 C69.2403158,31.5826316 69.3761053,29.9131579 69.3761053,28.7163158 C69.3761053,25.3215789 68.2213684,23.9289474 65.9550526,23.9289474 C64.5961053,23.9289474 62.9371579,25.1457895 62.9371579,27.1026316 C62.9371579,30.9078947 65.4992632,32.7342105 68.1287368,33.8184211 C66.8234737,43.6584211 62.3897895,57.6805263 58.0529474,57.6805263 C54.1192632,57.6805263 57.4750526,40.3510526 57.4750526,38.6794737 C57.4750526,37.6626316 55.4918947,36.4668421 53.5213684,36.4668421 C53.3361053,36.4668421 53.0982105,37.2373684 52.8550526,38.4415789 C52.0961053,37.5247368 51.0592632,36.8552632 49.6445263,36.61 C48.4045263,36.3963158 46.654,36.6584211 44.9118947,37.65 C44.9087368,37.6510526 44.9066316,37.6510526 44.9024211,37.6521053 C44.8729474,37.6710526 44.8403158,37.6910526 44.8087368,37.71 C44.6887368,37.7805263 44.5687368,37.8552632 44.4487368,37.9331579 C41.0676842,40.0226316 35.7445263,43.3257895 30.1824211,45.2426316 C28.1455789,42.3047368 25.1118947,41.8636842 24.2729474,41.8636842 C21.6076842,41.8636842 19.5613684,43.4794737 19.5613684,45.3973684 C19.5613684,47.1184211 21.1245263,47.4826316 22.6929474,47.4826316 C23.8529474,47.4826316 25.1161053,47.3121053 26.4371579,47.0163158 C27.3245263,49.0552632 27.6497895,51.6478947 27.6497895,53.4889474 C27.6497895,57.5384211 26.7666316,62.0563158 23.9697895,62.0563158 C20.4055789,62.0563158 17.3782105,50.5552632 17.3782105,38.2078947 C17.3782105,36.6552632 17.4497895,35.0131579 17.5824211,33.3173684 C26.0266316,25.9826316 35.1066316,18.4921053 35.1066316,6.39210526 C35.1066316,2.03736842 32.2013684,0.0721052632 29.6929474,0.0721052632 C23.9687368,0.0721052632 13.6318947,14.2921053 12.7255789,36.7878947 C8.89294737,40.3352632 5.52242105,43.9384211 3.85821053,48.5636842 C1.79715789,49.7468421 0.546631579,51.2436842 0.144526316,53.0194737 C-0.339684211,55.1594737 0.395052632,57.6152632 2.32768421,60.3194737 L2.51189474,60.5773684 L2.76557895,60.3857895 C5.06978947,58.6447368 6.40557895,56.0931579 6.42978947,53.3847368 C6.44663158,51.4636842 5.76136842,49.7278947 4.58347368,48.6763158 C6.16452632,44.5984211 9.16452632,41.0805263 12.6929474,37.7121053 C12.6718947,38.4563158 12.6613684,39.21 12.6613684,39.9710526 C12.6613684,57.8994737 19.7076842,62.7584211 24.1318947,62.7584211 C27.7729474,62.7584211 32.1076842,58.5710526 32.1076842,52.6036842 C32.1076842,49.5542105 31.4603158,47.3615789 30.5329474,45.7878947 C34.6045263,44.2952632 38.8161053,42.0510526 42.114,40.0215789 C40.1403158,42.39 38.6350526,46.1405263 38.6350526,51.7973684 C38.6350526,55.2036842 40.1350526,59.2236842 43.8961053,59.2236842 C47.3518947,59.2236842 49.9971579,55.2310526 51.6676842,50.4089474 C51.7318947,54.9889474 52.9382105,59.0278947 57.0761053,59.0278947 C63.2897895,59.0278947 67.5266316,43.6468421 68.8961053,34.1163158 C71.4034737,35.0268421 73.7508421,35.3657895 73.7508421,36.2131579 C73.7508421,37.3015789 70.6003158,46.3478947 70.6003158,50.3784211 C70.6003158,55.9794737 73.1918947,59.57 78.3424211,59.57 C83.7245263,59.57 87.434,50.9426316 89.994,42.0647368 C89.6318947,45.8721053 89.4403158,49.4552632 89.5129474,52.3794737 C89.6971579,59.8215789 92.5866316,62.9910526 97.1434737,62.8773684 C101.699263,62.7647368 104.438211,58.8584211 104.296105,53.0984211 C104.287684,52.7573684 104.252947,52.2784211 104.201368,51.7331579 L104.229789,51.6973684 C105.742421,49.8194737 106.356105,47.9552632 106.056105,46.1552632 C105.704526,44.0447368 104.135053,42.0994737 101.394,40.3721053 L101.125579,40.2026316 L100.963474,40.4752632 C99.5266316,42.8963158 99.2624211,45.6921053 100.239263,48.1457895 C100.920316,49.8563158 102.148737,51.1542105 103.567684,51.6878947 C103.607684,52.1868421 103.637158,52.7247368 103.650842,53.3078947 C103.769789,58.1026316 101.402421,62.1184211 97.7855789,62.2089474 C94.6508421,62.2857895 93.7645263,57.2847368 93.7129474,55.1784211 C93.5266316,47.67 95.3497895,36.9678947 97.0729474,28.5078947 C97.4434737,28.6931579 97.814,28.8773684 98.1803158,29.0615789 C103.131895,31.5405263 107.807684,33.8826316 111.411895,34.19 C111.646632,34.21 111.875053,34.2194737 112.096105,34.2194737 C113.140316,34.2194737 114.041368,34.0121053 114.812947,33.6868421 L114.874,33.7015789 C115.468737,33.85 116.041368,33.9236842 116.589789,33.9236842 C117.916105,33.9236842 119.090842,33.4921053 120.046632,32.6436842 C121.859263,31.0342105 122.774,27.9510526 122.375053,24.7910526" id="Fill-1"></path>
                            </g>
                            <path d="M15.8561053,75.8783158 L14.9834737,75.8783158 L14.9834737,75.1614737 L15.8561053,75.1614737 L15.8561053,74.5993684 C15.8561053,73.3014737 16.6887368,72.9141053 17.5024211,72.9141053 C17.9297895,72.9141053 18.3455789,73.0004211 18.6655789,73.1267368 L18.6655789,73.8435789 C18.4045263,73.7172632 18.0361053,73.6309474 17.6876842,73.6309474 C17.1255789,73.6309474 16.6308421,73.7762105 16.6308421,74.6288421 L16.6308421,75.1614737 L18.3750526,75.1614737 L18.3750526,75.8783158 L16.6308421,75.8783158 L16.6308421,79.812 L15.8561053,79.812 L15.8561053,75.8783158 Z" id="Fill-4" fill="#000000"></path>
                            <mask id="mask-2" fill="white">
                                <use xlink:href="#path-1"></use>
                            </mask>
                            <g id="Clip-7"></g>
                            <polygon id="Fill-6" fill="#000000" mask="url(#mask-2)" points="19.6915789 79.8121053 20.4663158 79.8121053 20.4663158 72.7394737 19.6915789 72.7394737"></polygon>
                            <path d="M24.9135789,75.7812632 C23.9641053,75.7812632 23.2083158,76.4117895 23.2083158,77.4865263 C23.2083158,78.5623158 23.9641053,79.1917895 24.9135789,79.1917895 C25.8630526,79.1917895 26.6188421,78.5623158 26.6188421,77.4865263 C26.6188421,76.4117895 25.8630526,75.7812632 24.9135789,75.7812632 M24.9135789,75.0454737 C26.1830526,75.0454737 27.3935789,75.8981053 27.3935789,77.4865263 C27.3935789,79.0749474 26.1830526,79.9275789 24.9135789,79.9275789 C23.6546316,79.9275789 22.4335789,79.0749474 22.4335789,77.4865263 C22.4335789,75.8981053 23.6546316,75.0454737 24.9135789,75.0454737" id="Fill-8" fill="#000000" mask="url(#mask-2)"></path>
                            <polygon id="Fill-9" fill="#000000" mask="url(#mask-2)" points="34.1454737 79.8116842 33.3023158 79.8116842 32.0433684 76.2169474 30.7833684 79.8116842 29.9402105 79.8116842 28.3517895 75.1611579 29.1654737 75.1611579 30.3675789 78.9590526 31.6938947 75.1611579 32.3917895 75.1611579 33.7191579 78.9590526 34.9202105 75.1611579 35.7338947 75.1611579"></polygon>
                            <path d="M39.056,75.7618947 C38.2612632,75.7618947 37.5254737,76.2366316 37.4675789,77.1471579 L40.4802105,77.1471579 C40.5486316,76.6534737 40.2381053,75.7618947 39.056,75.7618947 M39.0075789,75.0450526 C40.8002105,75.0450526 41.4591579,76.5082105 41.1686316,77.8261053 L37.4675789,77.8261053 C37.5644211,78.804 38.4454737,79.2113684 39.3854737,79.2113684 C39.9570526,79.2113684 40.5191579,79.0555789 40.916,78.8334737 L40.916,79.5892632 C40.4896842,79.8113684 39.8802105,79.9282105 39.2696842,79.9282105 C37.8938947,79.9282105 36.6917895,79.1429474 36.6917895,77.4861053 C36.6917895,75.8587368 37.9033684,75.0450526 39.0075789,75.0450526" id="Fill-10" fill="#000000" mask="url(#mask-2)"></path>
                            <path d="M45.5077895,75.0643158 L45.5077895,75.8401053 C44.5972632,75.7327368 43.8604211,76.1685263 43.5793684,76.9148421 L43.5793684,79.8116842 L42.8046316,79.8116842 L42.8046316,75.1611579 L43.5025263,75.1611579 L43.5025263,75.9843158 C43.8698947,75.3748421 44.6941053,74.9969474 45.5077895,75.0643158" id="Fill-11" fill="#000000" mask="url(#mask-2)"></path>
                            <path d="M48.336,75.0449474 C48.956,75.0449474 49.5465263,75.2102105 49.9823158,75.4417895 L49.9823158,76.1786316 C49.5949474,75.9270526 48.9465263,75.7428421 48.3844211,75.7428421 C47.8802105,75.7428421 47.3475789,75.9070526 47.3475789,76.3628421 C47.3475789,77.3702105 50.3023158,76.9438947 50.3023158,78.6196842 C50.3023158,79.5891579 49.3917895,79.9281053 48.3844211,79.9281053 C47.7254737,79.9281053 47.0181053,79.7533684 46.5823158,79.4723158 L46.5823158,78.7165263 C47.0570526,79.0365263 47.7644211,79.2112632 48.3454737,79.2112632 C49.0044211,79.2112632 49.5275789,79.1049474 49.5275789,78.6396842 C49.5275789,77.6607368 46.5633684,78.0481053 46.5633684,76.3817895 C46.5633684,75.4228421 47.4633684,75.0449474 48.336,75.0449474" id="Fill-12" fill="#000000" mask="url(#mask-2)"></path>
                            <path d="M56.1432632,79.2594737 C56.7337895,79.2594737 57.3253684,79.0173684 57.7327368,78.5815789 L57.7327368,77.7289474 C57.4022105,77.6615789 56.9285263,77.5931579 56.5506316,77.5931579 C55.8716842,77.5931579 55.1358947,77.7963158 55.1358947,78.4752632 C55.1358947,79.0173684 55.6295789,79.2594737 56.1432632,79.2594737 M58.8653684,79.2015789 C58.9822105,79.2015789 59.1074737,79.1721053 59.2243158,79.1331579 L59.2243158,79.7636842 C59.0401053,79.8310526 58.8369474,79.87 58.6432632,79.87 C58.2653684,79.87 57.9264211,79.7152632 57.7906316,79.3078947 C57.3253684,79.6952632 56.7337895,79.9278947 55.9790526,79.9278947 C55.1548421,79.9278947 54.3411579,79.4921053 54.3411579,78.5131579 C54.3411579,77.3121053 55.4453684,76.9436842 56.4432632,76.9436842 C56.8506316,76.9436842 57.3443158,77.0015789 57.7327368,77.0889474 L57.7327368,76.9247368 C57.7327368,76.2268421 57.258,75.7615789 56.4053684,75.7615789 C55.6885263,75.7615789 55.1169474,75.9363158 54.7095789,76.1110526 L54.7095789,75.3552632 C55.078,75.2289474 55.7169474,75.0447368 56.4822105,75.0447368 C57.7222105,75.0447368 58.5074737,75.7236842 58.5074737,77.0215789 L58.5074737,78.8426316 C58.5074737,79.1236842 58.6622105,79.2015789 58.8653684,79.2015789" id="Fill-13" fill="#000000" mask="url(#mask-2)"></path>
                            <path d="M62.8564211,75.0449474 C63.9701053,75.0449474 64.7943158,75.8102105 64.7943158,76.9438947 L64.7943158,79.8112632 L64.0185263,79.8112632 L64.0185263,77.0407368 C64.0185263,76.1691579 63.4858947,75.7617895 62.7690526,75.7617895 C62.0816842,75.7617895 61.568,76.2270526 61.2574737,76.6923158 L61.2574737,79.8112632 L60.4827368,79.8112632 L60.4827368,75.1617895 L61.1806316,75.1617895 L61.1806316,75.8491579 C61.4901053,75.4417895 62.1101053,75.0449474 62.8564211,75.0449474" id="Fill-14" fill="#000000" mask="url(#mask-2)"></path>
                            <path d="M68.7462105,75.7618947 C67.8451579,75.7618947 67.1083158,76.4208421 67.1083158,77.4861053 C67.1083158,78.5524211 67.8451579,79.2113684 68.7462105,79.2113684 C69.5788421,79.2113684 70.1988421,78.6682105 70.4609474,78.0682105 L70.4609474,76.9050526 C70.1988421,76.304 69.5788421,75.7618947 68.7462105,75.7618947 L68.7462105,75.7618947 Z M71.2356842,79.8113684 L70.5377895,79.8113684 L70.5377895,79.0366316 C70.122,79.5113684 69.5504211,79.9282105 68.6588421,79.9282105 C67.3314737,79.9282105 66.3335789,78.8818947 66.3335789,77.4861053 C66.3335789,76.0913684 67.3314737,75.0450526 68.6588421,75.0450526 C69.5504211,75.0450526 70.122,75.4618947 70.4609474,75.8587368 L70.4609474,73.0303158 L71.2356842,73.0303158 L71.2356842,79.8113684 Z" id="Fill-15" fill="#000000" mask="url(#mask-2)"></path>
                            <path d="M78.1421053,75.7618947 C77.2410526,75.7618947 76.5042105,76.4208421 76.5042105,77.4861053 C76.5042105,78.5524211 77.2410526,79.2113684 78.1421053,79.2113684 C78.9747368,79.2113684 79.5947368,78.6682105 79.8568421,78.0682105 L79.8568421,76.9050526 C79.5947368,76.304 78.9747368,75.7618947 78.1421053,75.7618947 L78.1421053,75.7618947 Z M80.6315789,79.8113684 L79.9336842,79.8113684 L79.9336842,79.0366316 C79.5178947,79.5113684 78.9463158,79.9282105 78.0547368,79.9282105 C76.7273684,79.9282105 75.7294737,78.8818947 75.7294737,77.4861053 C75.7294737,76.0913684 76.7273684,75.0450526 78.0547368,75.0450526 C78.9463158,75.0450526 79.5178947,75.4618947 79.8568421,75.8587368 L79.8568421,73.0303158 L80.6315789,73.0303158 L80.6315789,79.8113684 Z" id="Fill-16" fill="#000000" mask="url(#mask-2)"></path>
                            <path d="M84.5932632,75.7618947 C83.7985263,75.7618947 83.0627368,76.2366316 83.0048421,77.1471579 L86.0174737,77.1471579 C86.0858947,76.6534737 85.7753684,75.7618947 84.5932632,75.7618947 M84.5448421,75.0450526 C86.3374737,75.0450526 86.9964211,76.5082105 86.7058947,77.8261053 L83.0048421,77.8261053 C83.1016842,78.804 83.9827368,79.2113684 84.9227368,79.2113684 C85.4943158,79.2113684 86.0564211,79.0555789 86.4532632,78.8334737 L86.4532632,79.5892632 C86.0269474,79.8113684 85.4174737,79.9282105 84.8069474,79.9282105 C83.4311579,79.9282105 82.2290526,79.1429474 82.2290526,77.4861053 C82.2290526,75.8587368 83.4406316,75.0450526 84.5448421,75.0450526" id="Fill-17" fill="#000000" mask="url(#mask-2)"></path>
                            <path d="M90.5411579,75.0449474 C91.0643158,75.0449474 91.578,75.1617895 91.9748421,75.4228421 L91.9748421,76.1786316 C91.6264211,75.9070526 91.1316842,75.7617895 90.638,75.7617895 C89.7369474,75.7617895 88.7969474,76.266 88.7969474,77.486 C88.7969474,78.6775789 89.7074737,79.2112632 90.6190526,79.2112632 C91.1222105,79.2112632 91.6358947,79.066 92.0232632,78.8333684 L92.0232632,79.6081053 C91.5874737,79.8217895 91.0937895,79.9281053 90.5116842,79.9281053 C89.2916842,79.9281053 88.0222105,79.1628421 88.0222105,77.506 C88.0222105,75.8102105 89.3306316,75.0449474 90.5411579,75.0449474" id="Fill-18" fill="#000000" mask="url(#mask-2)"></path>
                            <path d="M95.7044211,75.7812632 C94.7549474,75.7812632 93.9991579,76.4117895 93.9991579,77.4865263 C93.9991579,78.5623158 94.7549474,79.1917895 95.7044211,79.1917895 C96.6538947,79.1917895 97.4096842,78.5623158 97.4096842,77.4865263 C97.4096842,76.4117895 96.6538947,75.7812632 95.7044211,75.7812632 M95.7044211,75.0454737 C96.9738947,75.0454737 98.1844211,75.8981053 98.1844211,77.4865263 C98.1844211,79.0749474 96.9738947,79.9275789 95.7044211,79.9275789 C94.4454737,79.9275789 93.2244211,79.0749474 93.2244211,77.4865263 C93.2244211,75.8981053 94.4454737,75.0454737 95.7044211,75.0454737" id="Fill-19" fill="#000000" mask="url(#mask-2)"></path>
                            <path d="M102.485053,75.0643158 L102.485053,75.8401053 C101.574526,75.7327368 100.837684,76.1685263 100.556632,76.9148421 L100.556632,79.8116842 L99.7818947,79.8116842 L99.7818947,75.1611579 L100.479789,75.1611579 L100.479789,75.9843158 C100.847158,75.3748421 101.671368,74.9969474 102.485053,75.0643158" id="Fill-20" fill="#000000" mask="url(#mask-2)"></path>
                        </g>
                    </g>
                </g>
            </g>
        </g>
    </g>
</svg>