<?xml version="1.0" encoding="UTF-8"?>
<svg width="90px" height="56px" viewBox="0 0 90 56" version="1.1" xmlns="http://www.w3.org/2000/svg" xmlns:xlink="http://www.w3.org/1999/xlink">
    <!-- Generator: Sketch 40.3 (33839) - http://www.bohemiancoding.com/sketch -->
    <title>Ideofios</title>
    <desc>Created with Sketch.</desc>
    <defs></defs>
    <g id="landing" stroke="none" stroke-width="1" fill="none" fill-rule="evenodd">
        <g id="Bart-Landing" transform="translate(-911.000000, -8493.000000)" fill="#000000">
            <g id="Variant-2" transform="translate(0.000000, -4.000000)">
                <g id="Content" transform="translate(-678.000000, -92.000000)">
                    <g id="footer" transform="translate(678.000000, 8565.000000)">
                        <g id="Ideofios" transform="translate(911.000000, 24.000000)">
                            <path d="M2.47163052,30.4114752 C3.85784343,30.4322332 4.99868611,29.287277 5.02024682,27.8533411 C5.04157317,26.4205714 3.93518075,25.2427289 2.54896784,25.2217376 C1.16275492,25.2014461 0.0216778858,26.3466356 0.000351533283,27.7796385 C-0.0212091748,29.2131079 1.0854176,30.3911837 2.47163052,30.4114752" id="Fill-1"></path>
                            <path d="M65.6356933,26.6994985 C66.916915,27.2177493 68.3947609,26.5621224 68.9372939,25.2338426 C69.4795926,23.9062624 68.8810486,22.4102857 67.5991239,21.8918017 C66.319074,21.3733178 64.8402907,22.0296443 64.2977577,23.356758 C63.7556933,24.6848047 64.3544717,26.1810146 65.6356933,26.6994985" id="Fill-3"></path>
                            <path d="M47.910729,35.1875685 C47.7764433,35.0208047 47.664187,34.8367813 47.5816938,34.6361983 C47.4931075,34.4211545 47.4370965,34.1552653 47.4042867,33.8634869 L47.4042867,33.8641866 C47.4042867,33.8641866 47.4042867,33.8597551 47.4035836,33.852758 C47.3557751,33.4196385 47.3595248,32.9326414 47.3874131,32.4726997 C47.4131922,31.7317085 47.590365,30.4134577 47.8305794,29.5087347 C47.8931523,29.2470437 47.9718958,28.9921166 48.0750122,28.7507172 C48.0754809,28.7507172 48.0750122,28.7502507 48.0750122,28.7502507 C48.132195,28.6170729 48.1957053,28.4878601 48.2695273,28.3642449 C48.315461,28.2884431 48.3674879,28.2173061 48.4204523,28.1466356 C48.6384029,27.8879767 49.1277372,27.4807464 50.0904697,27.381621 C49.9411852,28.2602216 49.9271239,29.1283265 49.8387719,30.1027872 C49.678004,31.8882099 49.632539,34.1062857 49.4701306,35.9096676 C49.4115418,35.9005714 49.3564682,35.8921749 49.3020977,35.882379 C48.3541296,35.6598717 48.1052441,35.3862857 47.910729,35.1875685 L47.910729,35.1875685 Z M14.2497766,38.1762566 C13.04308,38.3472187 12.5141396,38.1107172 12.3207963,37.9763732 C12.1904946,37.8627872 12.0690985,37.7387055 11.9673882,37.5964315 C11.8323994,37.407277 11.7177996,37.1605131 11.6198389,36.8841283 L11.6198389,36.8845948 C11.6198389,36.8845948 11.6181985,36.8803965 11.6163236,36.8736327 C11.4710232,36.4619708 11.3643914,35.9864023 11.2868197,35.5329913 C11.1438629,34.8041283 11.0156704,33.8662857 11.0449648,32.931242 C11.046371,32.6623207 11.0653538,32.3957318 11.1110531,32.1375394 L11.1110531,32.1368397 C11.1180838,32.0971895 11.1272236,32.0582391 11.1354261,32.0190554 C11.2219033,31.6724665 11.5882009,30.6541574 12.9465256,30.2525248 C12.9938654,31.170309 13.1832246,32.0416793 13.3233692,33.0387638 C13.5619432,34.7418542 13.9926886,36.4559067 14.2497766,38.1762566 L14.2497766,38.1762566 Z M23.8906941,28.9363732 C23.9612351,28.6816793 24.0474779,28.4316501 24.1527036,28.1893178 C24.196528,28.0855277 24.2239476,28.0302507 24.2239476,28.0302507 C25.0709085,28.8227872 25.4154111,29.9579475 25.4470491,31.0422624 C25.4564233,31.3711254 25.4538454,31.7004548 25.4372062,32.0290845 C25.4210357,32.2648863 25.3008113,33.3137493 24.4716614,34.1160816 C24.2572261,34.2854111 24.0378694,34.4458776 23.8142942,34.5977143 C23.7610955,34.4015627 23.7191458,34.2156735 23.6868048,34.0482099 C23.6722747,33.9553819 23.6568073,33.861621 23.6455582,33.7725248 C23.3022274,31.4392303 23.5963436,29.9360233 23.8906941,28.9363732 L23.8906941,28.9363732 Z M54.2005969,34.9694927 L54.2005969,34.9692595 L54.2235637,34.5482682 C54.3051194,32.9125831 54.3737856,30.8843615 54.5312725,29.2815627 C54.582362,28.7626122 54.6022822,28.3157318 54.638373,27.8767813 C55.3777646,28.0897259 55.5910282,28.3399883 55.7599985,28.523312 C55.88491,28.6910087 55.9896669,28.8745656 56.0670042,29.0751487 C56.1497317,29.2899592 56.2017587,29.5563149 56.2322249,29.8478601 L56.2326936,29.8473936 C56.2326936,29.8473936 56.2329279,29.8518251 56.233631,29.8588222 C56.2772211,30.2921749 56.2744089,30.7798717 56.2486298,31.2386472 C56.2235537,31.9798717 56.0599736,33.297656 55.8347579,34.2026122 C55.776169,34.4638367 55.7025814,34.7194636 55.60673,34.9606297 L55.60673,34.9610962 L55.6060269,34.9610962 C55.5844662,35.0161399 55.5607963,35.069551 55.5366577,35.1231953 C55.3880763,35.4254694 54.9781885,36.060105 54.1157602,36.2091429 C54.1312276,36.0845948 54.1473982,35.9588805 54.1605221,35.8375977 C54.1520853,35.8385306 54.1431798,35.8396968 54.1349773,35.8403965 C54.1616938,35.5509504 54.1832545,35.2605714 54.2005969,34.9694927 L54.2005969,34.9694927 Z M89.4905545,35.8562566 C89.5273483,34.9447697 89.0912127,34.2966064 88.5953164,33.8590554 C88.5608661,33.8317668 88.5261815,33.8049446 88.4900908,33.7788222 C87.5261865,32.9902507 85.9487395,32.6928746 85.9487395,32.6928746 C85.3820678,32.5680933 84.8271139,32.5041866 84.3396545,32.475965 C81.9811005,32.3875685 80.1425814,32.8575394 79.4029554,33.0851778 C79.3652241,33.0070437 79.3256181,32.9321749 79.2831997,32.8619708 L79.5309135,32.8619708 C79.5309135,32.8619708 79.0837632,31.7683265 77.43765,31.3342741 C77.4249948,31.3286764 77.4121052,31.3235452 77.3992157,31.3179475 C77.2389165,31.2647697 76.9773757,31.1996968 76.6417786,31.1915335 C76.600532,31.1910671 76.558348,31.1915335 76.515461,31.1924665 C76.5004622,31.1926997 76.4861665,31.1931662 76.4709334,31.1936327 C76.3296171,31.1996968 76.1768173,31.2157901 76.0155807,31.247277 C75.2304897,31.415207 74.8625515,31.9210962 74.7158449,32.1981808 C74.5672635,32.4988222 74.4465704,32.8955569 74.4552416,33.3762566 C74.47399,33.6736327 74.5787469,34.1118834 74.9593403,34.5398717 C75.0385525,34.6257026 75.1290137,34.7154985 75.2342393,34.8036618 C75.2382234,34.8071603 75.2424418,34.8104257 75.2471289,34.8139242 C75.3713373,34.918414 75.5149973,35.0217376 75.6792805,35.1192303 L75.6319407,35.4707172 C75.6197542,35.5717085 75.6075677,35.6733994 75.5930376,35.7753236 C75.5897567,35.8030787 75.1594799,40.6364315 73.1365231,40.3803382 C73.1365231,40.3803382 72.8794351,40.3682099 72.6657028,40.0059942 C72.6204722,39.9047697 72.5803974,39.802379 72.5447754,39.7011545 C72.4660319,39.4690845 72.4032246,39.2330496 72.3535413,38.9937493 C72.3530726,38.9918834 72.3528382,38.9897843 72.3528382,38.9897843 L72.3521351,38.9883848 C72.241285,38.4484431 72.2058973,37.8651195 72.2239427,37.268035 C72.2237083,37.2685015 72.2218335,37.2689679 72.2218335,37.2689679 C72.2232396,37.2386472 72.2248801,37.2104257 72.2262862,37.1805714 C72.2269893,37.1355569 72.2295672,37.0917085 72.2316764,37.0473936 C72.3233094,35.1101341 72.7669444,33.6803965 73.1123844,32.837481 C73.2091733,32.5893178 73.3237731,32.3437201 73.4554809,32.1062857 C73.4824318,32.0554402 73.5046956,32.017656 73.5189913,31.9931662 C73.5203974,31.9899009 73.5220379,31.987102 73.5241471,31.98407 C73.5344587,31.9654111 73.5417238,31.9558484 73.5417238,31.9558484 L73.5421925,31.9553819 C73.9291134,31.3100175 74.4505545,30.7467522 75.1065156,30.4160233 C75.1334665,30.4020292 75.1625266,30.392 75.1901805,30.379172 C75.1894774,30.3787055 75.1868995,30.3775394 75.1868995,30.3775394 C75.1868995,30.3775394 75.2490037,30.3472187 75.3554011,30.3068688 C75.3788367,30.2975394 75.4011005,30.2856443 75.424536,30.2763149 C75.4610955,30.2634869 75.495077,30.2459942 75.5321052,30.2420292 C75.5419481,30.2410962 75.5501506,30.2396968 75.5597592,30.2385306 C75.8105196,30.163895 76.1690835,30.0911254 76.5838928,30.1044198 C76.6895871,30.1023207 76.8004373,30.1109504 76.9286298,30.1340408 C76.9431598,30.1361399 76.9581586,30.1394052 76.9726886,30.1417376 C76.9799536,30.1433703 76.9869843,30.1445364 76.9944837,30.1461691 C77.2018883,30.1825539 77.4174954,30.2420292 77.6361491,30.337656 L77.6361491,30.3371895 C77.6361491,30.3371895 77.9033144,30.5151487 78.1606367,30.3033703 C78.1732919,30.2956735 78.1843067,30.2870437 78.1934465,30.277481 C78.1941496,30.2763149 78.1946183,30.2763149 78.1953214,30.2751487 C78.1967275,30.2739825 78.1976649,30.2725831 78.1986023,30.2714169 L78.1988367,30.2711837 C78.3059372,30.1566647 78.2953912,30.0491429 78.2607066,29.971242 C78.2377397,29.91993 78.2039925,29.8812128 78.1864159,29.8639534 C78.1664956,29.844828 78.1447006,29.8257026 78.1238429,29.8061108 C78.075097,29.7499009 78.0303351,29.7002216 77.9855732,29.651242 C77.4695223,29.1567813 75.9284004,27.9903673 73.06856,28.2445948 C72.6896071,28.2882099 72.2762039,28.366344 71.8480364,28.5011545 C71.8480364,28.5011545 71.85038,28.5034869 71.8520204,28.505586 C71.3083156,28.6802799 70.7758599,28.9624956 70.2912127,29.3981808 C69.823439,29.8250029 69.3894126,30.3938659 69.0369419,31.1497843 C68.9635886,31.3214461 68.6207265,32.1557318 68.3711379,33.3582974 C68.3324692,33.563312 68.288176,33.776723 68.2544288,33.9961983 C68.0624916,35.204828 68.0017936,36.6805131 68.3516864,38.1925831 C68.3650446,38.2352653 68.3807464,38.2753819 68.3950421,38.3175977 C67.5417537,38.345586 67.0463261,37.9511837 66.7906442,37.6400466 C66.5935512,37.372758 66.4827011,37.1264606 66.4395797,37.0142741 C65.5607464,34.475965 66.3366976,30.6870437 67.6626811,28.4638367 C67.8869594,28.0894927 65.573636,27.6706006 65.4513024,27.6556735 C64.9167375,27.5875685 64.3648302,27.5509504 63.8262812,27.6043615 C63.5827858,27.6281516 63.2610157,27.6465773 63.1175901,27.8870437 C62.2657078,29.3151487 61.6195896,31.8772478 61.4888192,33.5458192 C61.4018733,34.6590554 61.5966228,35.7354402 61.9959646,36.7434869 C62.3439825,37.5507172 63.1885999,38.922379 65.0955507,39.5810379 C66.5197292,40.1438367 67.978358,40.0489096 69.1759147,39.7603965 C69.6863411,40.4113586 70.2668397,40.8197551 70.6443864,41.0387638 C71.75945,41.6479767 72.8679516,41.8788805 73.4517312,41.963312 C73.4550122,41.9642449 73.4578245,41.9644781 73.4611055,41.9649446 C73.7200683,42.0020292 73.8735712,42.0101924 73.8740399,42.0101924 C73.9621576,42.021621 74.0537906,42.0314169 74.1484702,42.0405131 C76.8435587,42.1965481 78.3328881,40.5641283 78.3328881,40.5641283 C79.7087893,39.0858776 79.8976799,35.8506589 79.9145535,35.116898 C79.9150222,35.0611545 79.916194,35.0058776 79.9166627,34.9492012 C79.9164283,34.838414 79.9154909,34.724828 79.9138504,34.6100758 C80.0425116,34.5720583 80.1692979,34.5335743 80.2918659,34.4946239 L80.2913972,34.4946239 L80.2918659,34.4941574 C80.4606018,34.4407464 80.6211354,34.3873353 80.7753413,34.3341574 C81.7987719,34.0316501 84.1427958,33.5432536 84.781649,35.1714752 C84.7982882,35.2183557 84.8158649,35.2647697 84.8292231,35.3151487 C84.8751568,35.4639534 84.8997641,35.6202216 84.901639,35.7890845 L84.9028108,35.7888513 C84.9028108,35.7949155 84.901639,35.8012128 84.9011703,35.807277 C84.9011703,35.8310671 84.9021077,35.8534577 84.9011703,35.8777143 L84.9011703,36.0302507 C84.8995298,36.0778309 84.8960145,36.126344 84.8894525,36.1764898 C84.8725789,36.3166647 84.831098,36.4461108 84.7736809,36.568793 C84.7558699,36.6110087 84.7368871,36.6522915 84.7157951,36.6938076 C84.426366,37.2234869 83.655805,38.0097259 81.6009758,38.2956735 C81.25038,38.3551487 80.8988467,38.4157901 80.5498913,38.4911254 C80.5173159,38.4948571 80.4531025,38.5041866 80.3774056,38.5193469 C79.9733767,38.5965481 80.0153264,38.8360816 80.0153264,38.8360816 C79.9998589,39.0005131 80.1299262,39.0728163 80.1953114,39.099172 C80.2074979,39.1029038 80.21945,39.1073353 80.2314021,39.1108338 C80.2318709,39.1103673 80.233277,39.1113003 80.233277,39.1113003 C80.4509933,39.1852362 80.6394151,39.2612711 80.8008861,39.3349738 C80.8060419,39.335207 80.8116664,39.3368397 80.8170566,39.3377726 C80.8231498,39.3403382 80.8287744,39.3419708 80.8367425,39.3447697 C80.8585375,39.3536327 80.9621227,39.4040117 81.0420379,39.4422624 C81.0420379,39.4422624 81.0469594,39.444828 81.0535213,39.4478601 C81.1017986,39.4709504 81.1381237,39.4875102 81.1334365,39.4821458 C81.2393652,39.5462857 81.3399038,39.6188222 81.436927,39.6964898 C81.5728532,39.7946822 81.631442,39.8590554 81.631442,39.8590554 L81.6309733,39.8590554 C81.6951867,39.9164315 81.7589314,39.9749738 81.8191608,40.0365481 C81.9377447,40.1533994 82.0270342,40.277481 82.0987469,40.4076268 C82.631437,41.1570146 83.1324892,42.4195219 82.9700808,44.4636035 C82.9700808,44.4715335 82.9691434,44.4801633 82.9691434,44.4883265 C82.9679716,44.4999883 82.9679716,44.5114169 82.9665654,44.5237784 L83.2881012,44.5237784 C83.2506043,45.0522915 83.14491,45.7286764 82.8932122,46.4367813 C82.388176,47.7307755 81.3256081,48.6070437 80.483803,49.1283265 C80.4800534,49.1306589 80.4756006,49.1329913 80.4713822,49.1357901 C80.2096071,49.2971895 79.9707988,49.4238367 79.7767524,49.5182974 C77.0865854,50.7334577 73.118712,49.7869854 71.63946,49.3594636 C71.6087594,49.3494344 71.5775901,49.3394052 71.5487644,49.3296093 L68.9232795,48.5226122 C67.7915767,48.1506006 66.4878569,47.7429038 65.1042219,47.3226122 L65.1044562,47.3226122 C60.0709683,45.6489096 55.5439227,44.3940991 51.8523545,43.4795802 C51.1211653,43.2820292 50.4204423,43.1015044 49.7529978,42.9366064 C49.752529,42.9363732 49.7508886,42.9359067 49.7508886,42.9359067 L49.7511229,42.9359067 C49.7501855,42.9359067 49.7490137,42.9356735 49.7483106,42.9354402 C50.1703849,42.754449 50.5624617,42.5338076 50.9217287,42.2742157 C50.9238379,42.2728163 50.9264159,42.2716501 50.9285251,42.2700175 L50.9268846,42.270484 C51.906725,41.5600466 52.6519756,40.5795219 53.1652142,39.4452945 C53.1752914,39.4222041 53.1856031,39.3995802 53.1952117,39.376723 C53.2078669,39.3482682 53.2200534,39.3193469 53.2324742,39.2911254 C53.4738604,38.7194636 53.5760394,38.5830204 53.7229803,37.9691429 C53.7452441,37.8732828 53.7649299,37.7769563 53.7850845,37.6803965 C54.9950621,37.7230787 55.8956904,37.5787055 56.7063261,37.4068105 C56.7578843,37.3977143 56.807802,37.3862857 56.8591259,37.3757901 C57.5821127,37.1910671 58.7801381,36.6889096 59.7079516,35.4511254 C59.7079516,35.4511254 59.7086547,35.4492595 59.711467,35.4464606 C60.0576101,34.9837201 60.352195,34.416723 60.5476475,33.7219125 C60.8373109,32.8731662 61.1356455,31.4012128 60.9519107,30.2233703 C60.951442,30.1995802 60.9509733,30.1757901 60.9500359,30.152 C60.9005869,29.7081516 60.7663012,29.157481 60.4480464,28.620105 C60.4473433,28.6175394 60.4464059,28.6159067 60.4457028,28.6135743 L60.4452341,28.6142741 C60.1208861,28.0689679 59.6038978,27.536723 58.7874031,27.1423207 C58.7789663,27.1369563 57.8462314,26.4962566 54.8598389,26.3066356 C54.8680414,26.2781808 54.8734316,26.2513586 54.881634,26.2224373 C54.9472536,25.9931662 55.1291134,25.2437784 55.2291832,25.002379 C55.5324393,24.4031953 55.8434291,24.2777143 55.8450696,24.2770146 C56.3365131,24.1506006 57.1403525,23.8662857 56.381275,23.6195219 C56.2434739,23.5745073 56.1077821,23.5348571 55.9739651,23.4998717 C54.6261865,23.1458192 53.4860469,23.2796968 52.7515767,23.4613878 C51.2437332,23.7669271 50.5617587,25.301621 50.382711,25.7209796 C50.3759147,25.7394052 50.3684154,25.7573644 50.3625565,25.7750904 C50.3468546,25.8149738 50.3334964,25.8548571 50.3189663,25.8949738 C48.8460419,25.7853528 47.8097218,25.9460525 46.8905794,26.1410379 C46.8392555,26.1508338 46.7888691,26.1615627 46.7373109,26.1713586 C46.0147928,26.3570146 44.8162987,26.8598717 43.8889539,28.0964898 L43.8889539,28.240863 C43.8889539,28.240863 43.9658225,28.2429621 43.9639476,28.2455277 C43.8247405,28.4314169 43.6946731,28.6352653 43.5756205,28.8566064 C43.2915817,28.9475685 43.0129329,29.0168397 42.7413149,29.0667522 C42.3738454,29.1092012 42.0213747,29.1203965 41.6876525,29.1068688 C41.5782084,28.906519 41.4542344,28.7315918 41.3220578,28.6637201 L41.3227609,28.6637201 C41.3227609,28.5839534 40.6653937,27.5982974 38.9182732,27.4998717 C38.9037432,27.4970729 38.8896819,27.4942741 38.8751518,27.4914752 C38.7036036,27.4709504 38.4268297,27.4588222 38.0851394,27.4975394 L38.0846707,27.4975394 C38.0434241,27.5257609 38.0010057,27.5346239 37.9574156,27.5439534 C37.9424169,27.5472187 37.9274181,27.5507172 37.9126537,27.5539825 C37.7701655,27.5875685 37.6194749,27.6339825 37.4617537,27.6971895 C36.6993952,28.0178892 36.4212152,28.5872187 36.3246607,28.8885598 C36.2313872,29.213691 36.1831099,29.626519 36.2822423,30.0969563 C36.3574705,30.3854694 36.5454236,30.7954985 37.0108537,31.1392886 C37.1074081,31.2083265 37.215446,31.2773644 37.3389514,31.3438367 C37.3436385,31.3459359 37.34856,31.3487347 37.3537158,31.3513003 C37.4997193,31.4292012 37.6642368,31.5022041 37.8491434,31.5649446 L37.8674231,31.9196968 C37.8742194,32.021621 37.8798439,32.123312 37.8840623,32.2261691 C37.887109,32.2543907 38.3588666,37.0840117 36.2630252,37.2346822 C36.2630252,37.2346822 36.0012501,37.2750321 35.715805,36.9622624 C35.6515916,36.8713003 35.5913623,36.7787055 35.5369918,36.6854111 C35.4134864,36.4743324 35.3054485,36.2548571 35.2105345,36.0293178 C35.2095971,36.0276851 35.2091284,36.0260525 35.2084253,36.0244198 C34.9944587,35.5166647 34.8493927,34.9515335 34.754713,34.3612128 C34.7542443,34.3612128 34.7530726,34.362379 34.7530726,34.362379 C34.7486198,34.3329913 34.7446358,34.3043032 34.7404174,34.2753819 C34.7338554,34.2315335 34.7272934,34.1874519 34.7209658,34.143137 C34.4500509,32.223137 34.6302703,30.7315918 34.8222074,29.8350321 C34.8732969,29.5721749 34.9426662,29.3083848 35.0317213,29.0494927 C35.0502354,28.9939825 35.0649998,28.9526997 35.075077,28.9254111 C35.0762488,28.9226122 35.0776549,28.9188805 35.0788267,28.9156152 C35.0865605,28.8955569 35.0912476,28.8841283 35.0912476,28.8841283 L35.0914819,28.8841283 C35.3616938,28.173691 35.7842368,27.5175977 36.3853588,27.0613878 C36.4805071,26.9900175 36.5794051,26.923312 36.6813498,26.8615044 C36.7155657,26.8419125 36.7495472,26.8241866 36.7837632,26.8057609 C36.7837632,26.8057609 37.8128182,26.3061691 39.1535662,26.6893761 C39.1535662,26.6893761 39.457994,26.8101924 39.6782882,26.5522332 C39.6893029,26.5412711 39.6989115,26.5307755 39.7059422,26.5193469 C39.7064109,26.5186472 39.7073483,26.5177143 39.7080514,26.5170146 C39.7089888,26.5158484 39.7092231,26.5142157 39.7106293,26.5130496 C39.7108636,26.5125831 39.7108636,26.5123499 39.7108636,26.5123499 C39.8566328,26.2889096 39.6724293,26.1485015 39.6225116,26.1153819 C39.58853,26.0866939 39.5550172,26.0615044 39.5210357,26.0346822 C39.2299661,25.8177726 38.2993403,25.2269854 36.6928332,25.1115335 C36.6501805,25.1101341 36.6077622,25.1089679 36.5653438,25.1075685 C36.3771563,25.0956735 36.1945934,25.091242 36.0171862,25.0924082 C35.5723795,25.0987055 35.08492,25.1425539 34.5550421,25.2353819 C34.5388716,25.238414 34.5217636,25.2409796 34.5060618,25.2440117 C34.4847355,25.2479767 34.4634091,25.2521749 34.4420828,25.2556735 C34.3593553,25.2713003 34.2756904,25.2873936 34.1908537,25.3053528 C33.1615642,25.5276268 32.1013398,26.0178892 31.3207016,27.0194052 C30.927453,27.5308921 30.5949025,28.176723 30.3804672,28.9883848 C30.3382832,29.1719417 30.1479865,30.0596385 30.1205669,31.2880933 C30.1205669,31.4977726 30.1151768,31.7160816 30.1224418,31.9374227 C30.1552516,33.1560816 30.3694525,34.6075102 31.0003376,36.0157901 C31.0003376,36.0157901 31.0001032,36.0162566 30.9998689,36.0164898 C28.7894276,38.1967813 26.5996096,37.6955569 26.202377,37.580105 C25.3804921,37.2990554 24.8140548,36.7124665 24.4247903,36.0561399 C24.5932919,35.9822041 24.7669494,35.9047697 24.9392007,35.8285015 C25.2356604,35.706519 25.5138404,35.5859359 25.7695223,35.4683848 C25.9448202,35.3876851 26.1086348,35.3088513 26.265653,35.2311837 C26.2670591,35.230484 26.2679965,35.2302507 26.2691683,35.229551 L26.2689339,35.229551 C26.4936809,35.1182974 26.7022573,35.0098426 26.8918509,34.9060525 C27.576169,34.4915918 28.3830551,33.8725831 28.9572261,33.0287347 C29.1229155,32.7553819 29.279465,32.4465773 29.416563,32.0941574 C29.5199137,31.7918834 29.593267,31.2372478 29.593267,31.2372478 L29.593267,31.2367813 C29.593267,31.2367813 29.8327784,29.4924082 29.7186472,28.960863 C29.6553712,28.7094344 29.5796744,28.4922915 29.504915,28.3143324 C29.1493977,27.5271603 28.5831947,26.868035 27.7610755,26.4883265 C27.7601381,26.4878601 27.7589663,26.4878601 27.7580289,26.4876268 C27.5703101,26.4010962 27.3694675,26.3297259 27.1545635,26.274449 C25.0434889,25.642379 23.0966976,26.2238367 23.0966976,26.2238367 L23.0978694,26.2236035 C21.4702703,26.6501924 20.5776101,27.5399883 20.3880165,27.747102 C20.386376,27.7485015 20.3849698,27.7506006 20.383095,27.7522332 C20.3608312,27.7764898 20.3479417,27.7916501 20.3477073,27.7916501 C20.193267,27.963312 20.0603874,28.1501341 19.9432097,28.3481516 L19.9429753,28.3476851 C19.9399287,28.3532828 19.9371164,28.3588805 19.9343042,28.3644781 C19.7538504,28.6728163 19.6113623,29.0079767 19.485982,29.3592303 C19.3577896,29.7181808 19.2640474,30.0864606 19.1928033,30.4598717 C19.1632745,30.6035452 19.1370267,30.7483848 19.1126537,30.8922915 C18.6889389,34.1615627 19.3549773,36.0633703 19.464187,36.3458192 L18.7151867,36.6504257 C18.4262264,34.8402799 17.9647804,33.0361983 17.7407365,31.2428455 C17.6708985,30.6840117 17.5818434,30.2154402 17.5178644,29.7450029 C17.51763,29.7438367 17.51763,29.7436035 17.51763,29.7436035 C17.4555258,29.283895 17.4180289,28.8234869 17.4463859,28.2753819 C17.4585724,28.0405131 17.4873982,27.7543324 17.5288791,27.5003382 C17.6861316,26.8556735 17.957281,26.6667522 17.9589215,26.6651195 C18.4034939,26.4342157 19.1133568,25.9817376 18.3277971,25.9136327 C18.1853089,25.9005714 18.0451643,25.8924082 17.908535,25.8882099 C16.532165,25.8480933 15.4651444,26.2301341 14.799106,26.5676268 C13.4166427,27.1964315 13.0829205,28.3502507 13.0048801,28.7933994 C13.0020678,28.8125248 12.9990212,28.8314169 12.9966776,28.8500758 C12.9905844,28.8920583 12.9868347,28.9333411 12.9819132,28.9743907 C11.5406268,29.1966647 10.3932221,29.6003965 9.5514171,29.992 C9.50431164,30.012758 9.45837796,30.034449 9.4112725,30.055207 C8.75742059,30.3945656 7.62360858,31.1539825 7.00819097,32.5503673 C7.00819097,32.5503673 7.00772226,32.5522332 7.00631613,32.5554985 C6.77664772,33.0777143 6.62056694,33.6890262 6.58892895,34.4013294 C6.50081127,35.2824956 6.54369833,36.379172 6.98452107,37.4725831 C6.99084867,37.4956735 6.99694191,37.5185306 7.0028008,37.540688 C7.14974171,37.9565481 7.40190825,38.4568397 7.82960708,38.9039534 C7.83101321,38.9051195 7.83218499,38.9067522 7.79820344,38.9086181 L7.79820344,38.9074519 C8.23879182,39.3300758 8.80476041,39.701621 9.58680479,39.9113003 C9.30253154,40.2310671 9.0018534,40.4059942 8.71758015,40.4918251 C8.70844029,40.4941574 8.69906607,40.497656 8.69016056,40.4995219 C8.68687958,40.500688 8.6835986,40.5013878 8.68031763,40.5023207 C8.44455597,40.5585306 8.23387036,40.5673936 8.06044727,40.5557318 C7.7414894,40.5265773 7.5059621,40.4220875 7.44057691,40.3906006 C7.04146946,40.1979475 6.77453852,39.9474519 6.67446871,39.8422624 C4.93859736,37.8718834 4.38622139,34.5396385 4.84485515,32.0388805 C4.92219247,31.6178892 2.58988631,32.0943907 2.46895886,32.1251778 C1.93954974,32.2611545 1.40592221,32.4311837 0.916587883,32.6781808 C0.695121915,32.7901341 0.398193468,32.9251778 0.348978808,33.1957318 C0.0546282723,34.8015627 0.291561705,36.9769563 0.763788083,38.5342741 C1.07923062,39.5731079 1.64754276,40.4747988 2.38365345,41.238414 C3.00000848,41.8396968 4.28732336,42.7675102 6.32246672,42.6590554 C8.78765246,42.6317668 10.7393652,41.0602216 11.7126437,40.0878601 L11.7124094,40.0880933 C11.7124094,40.0880933 12.1956505,40.0843615 13.2624368,39.8795802 C13.6048302,39.8170729 13.9851892,39.7373061 14.3964832,39.6349155 C14.3997641,39.6843615 14.4025764,39.7375394 14.405623,39.7900175 C14.4133568,39.7890845 14.4215592,39.7876851 14.4295273,39.7862857 C14.4428856,39.9987638 14.5455333,40.9958484 14.6355258,41.9320583 C14.640916,41.9306589 14.6470092,41.9304257 14.6523994,41.9292595 C14.806371,44.0696676 15.2040723,46.5958484 14.3540648,48.6275685 C13.7972361,49.7475685 12.4382084,49.487277 12.4382084,49.487277 C9.8865455,48.9629621 9.52048217,46.7008047 9.47642334,45.823137 C9.46681476,45.705586 9.46517427,45.5894344 9.47407978,45.4760816 L9.47431414,45.4737493 C9.50595213,45.0781808 9.65640838,44.7161983 9.97302269,44.4297843 C10.4860269,43.9665773 9.90927799,43.9290262 9.42416205,43.9670437 C8.3121451,44.0258192 7.4080015,44.3686764 6.83242433,44.657656 C6.59666268,44.7675102 6.37613413,44.8939242 6.18138469,45.0380641 C6.15794914,45.0548571 6.14177861,45.0662857 6.14177861,45.0662857 L6.14271603,45.0660525 C6.08600199,45.1094344 6.0311628,45.1539825 5.97937023,45.200863 C4.58495487,46.4608047 5.03491748,48.220105 6.06022289,49.5311254 C6.37425929,49.9131662 7.45768487,51.0364315 9.55680728,51.3706589 L9.55633857,51.3708921 C9.55633857,51.3708921 9.56266617,51.3718251 9.57344652,51.3732245 C9.99973922,51.4403965 10.4691533,51.4730496 10.9809858,51.4618542 C12.6374106,51.461621 15.3847604,51.1140991 17.2835089,49.095207 C17.3552216,49.0205714 17.4243565,48.9445364 17.4909135,48.8678017 C17.5007564,48.8561399 17.510365,48.8442449 17.5199736,48.8325831 C18.4838778,47.7034869 18.929622,46.349551 19.129996,45.2253528 L19.1302304,45.2241866 C19.2682658,44.4498426 19.2905295,43.7841866 19.2858424,43.3774227 C19.2820927,43.2566064 19.2741247,43.1355569 19.2680314,43.0149738 C19.2633443,41.0462274 19.0186771,38.9377726 18.9319656,38.2501924 C19.3756006,38.0922915 19.8422024,37.9206297 20.3322398,37.7345073 C21.3015343,38.7257609 23.7407066,40.3938659 28.18854,39.2538076 L28.1878369,39.255207 C28.1878369,39.255207 28.2091633,39.250309 28.2471289,39.2398134 C28.2719706,39.2328163 28.2958748,39.2281516 28.3209509,39.2211545 C28.3495423,39.212758 28.3781336,39.2017959 28.4069594,39.1924665 C29.0120653,39.0096093 30.7502802,38.4164898 32.0324393,37.3221458 C32.7026961,37.9192303 33.4177148,38.2289679 33.8646308,38.3768397 C35.1071837,38.7532828 36.2728681,38.7591137 36.8798489,38.7269271 C36.8826612,38.7269271 36.8859422,38.7255277 36.8894575,38.7257609 C37.1589663,38.7108338 37.3157502,38.6884431 37.3157502,38.6884431 C37.4069145,38.682379 37.5013598,38.6732828 37.5986173,38.6637201 C40.3560444,38.2828455 41.5580539,36.3824373 41.5580539,36.3824373 C42.6426512,34.7029038 42.2765879,31.6113586 42.1448801,30.783137 C42.1455831,30.7826706 42.1460519,30.7824373 42.1467549,30.7824373 C42.1561291,30.7803382 42.4647754,30.7087347 42.9585625,30.5636618 C42.7481112,31.3970146 42.5955457,32.4901924 42.7385026,33.4061108 C42.7389713,33.4294344 42.73944,33.4532245 42.7403775,33.4763149 C42.7891234,33.9145656 42.9212999,34.4582391 43.2362737,34.9900175 C43.2369768,34.9916501 43.2376799,34.9937493 43.2383829,34.9956152 L43.2388517,34.9949155 C43.5599187,35.533691 44.0708138,36.0598717 44.876528,36.4496093 C44.8854336,36.4549738 45.8931623,37.1490845 49.1853887,37.2985889 C49.1200035,37.6883265 49.1284403,37.6069271 49.0286048,37.9887347 L49.0288392,37.988035 C49.0269643,37.995965 49.0250895,38.0024956 49.0232147,38.0108921 C49.0182932,38.0283848 49.0140748,38.0456443 49.0091533,38.0629038 C48.2606218,40.9575977 47.2685949,41.9166647 46.80129,42.220105 C44.0972959,41.6454111 42.3602528,41.410309 42.0138753,41.3657609 C42.0009858,41.3641283 41.9876275,41.3624956 41.9749723,41.3606297 C41.9740349,41.3606297 41.9723944,41.3606297 41.971457,41.3603965 C41.9025565,41.352 41.8357651,41.34407 41.7680364,41.3359067 C41.3958798,41.2890262 41.0319257,41.2482099 40.6719556,41.2099592 L40.67219,41.2094927 C40.67219,41.2094927 29.9649549,39.5488513 24.3882309,43.1600466 C22.7210257,44.1508338 21.8653937,45.2101924 21.4967524,45.7708921 C21.4137906,45.9015044 21.3362189,46.0365481 21.2631,46.1741574 C21.0008561,46.6662857 20.8018883,47.2036618 20.6943191,47.789551 C20.6788517,47.8625539 20.6654934,47.9353236 20.6542443,48.0085598 C20.6537756,48.0115918 20.6530726,48.0153236 20.6526038,48.0188222 C20.6301057,48.1680933 20.6153413,48.3178309 20.608545,48.4675685 C20.6083106,48.4696676 20.6080763,48.4713003 20.6078419,48.488793 L20.6083106,48.488793 C20.5443316,49.9015044 21.1794351,51.3251778 22.0531124,52.4948571 C23.0723246,53.7785889 25.8995896,56.3467522 31.9921301,55.8954402 L31.9921301,55.8973061 C34.4561441,55.6402799 37.401993,54.7649446 39.4188566,52.3106006 C39.630714,52.0430787 41.0872336,50.0817959 40.0844263,47.8686181 L36.2885699,45.9231953 L36.4012949,45.9229621 C36.3952017,45.9227289 36.3895772,45.9229621 36.3832496,45.9229621 C36.2780239,45.91993 36.1697517,45.9189971 36.0593702,45.9203965 C35.9590661,45.9206297 35.8608711,45.9215627 35.7643166,45.923895 C35.7608013,45.923895 35.7568173,45.923895 35.7528332,45.9241283 C35.7064308,45.9252945 35.6614346,45.9273936 35.6162039,45.928793 C34.8875926,45.9588805 32.3745984,46.1366064 32.2719506,47.1794052 C32.2719506,47.1794052 32.2529678,47.2538076 32.5109933,47.4394636 C33.7659671,47.7102507 34.6541745,48.4043615 35.1477273,48.892758 C35.2799038,49.0294344 36.842352,50.7143324 35.1681162,52.55993 C33.6965979,54.0405131 31.5149823,53.4597551 31.0340848,53.3067522 C31.0003376,53.2957901 30.9677622,53.284828 30.9372959,53.2743324 C30.0631498,52.9515335 29.2534515,52.4559067 28.5541346,51.8462274 C27.5890586,51.0042449 26.738348,49.8480933 26.3106492,48.5925831 C25.2532371,45.1243615 28.2459571,43.7858192 28.9605071,43.5206297 C30.0221376,43.1462857 31.0083057,43.0364315 31.195087,43.0187055 C32.8477622,42.8715335 34.3870092,43.0392303 35.2759197,43.1787055 C37.0549125,43.495207 40.2894874,44.1627289 43.6777996,45.3212128 C43.6777996,45.3212128 52.3121601,48.4421458 60.2115817,50.4458776 C60.2115817,50.4458776 68.5194849,52.3971312 72.8876375,52.5818542 C72.9202129,52.586519 76.1004174,53.0275685 80.1203176,51.9015044 C81.2904547,51.6241866 82.27217,51.2482099 83.0884303,50.8386472 C83.1022573,50.8318834 83.1163186,50.8260525 83.1299112,50.8192886 L83.1254585,50.8195219 C85.5756455,49.5787055 86.514005,48.0444781 86.5247853,48.026519 C87.6892979,46.4824956 87.8242867,44.9499009 87.8320204,44.4080933 C87.831083,44.0006297 87.8008512,43.5915335 87.7396844,43.1878017 C87.3436235,40.700105 85.6082209,39.3918834 85.1577896,39.0585889 L85.0338155,38.9722915 C85.0338155,38.9722915 88.4654834,38.8974227 89.3140848,36.6891429 C89.3211154,36.670484 89.3283805,36.6520583 89.3354111,36.6324665 C89.3358798,36.6313003 89.3361142,36.6299009 89.3370516,36.6275685 C89.4038429,36.4477434 89.4544637,36.2429621 89.478368,36.0125248 C89.4807115,35.9985306 89.4818833,35.9836035 89.4844612,35.9691429 C89.4844612,35.9600466 89.4858674,35.9509504 89.4863361,35.9413878 C89.4861017,35.9385889 89.4861017,35.9353236 89.4870391,35.9315918 C89.4893827,35.9061691 89.4926637,35.8812128 89.4940698,35.8550904 L89.4905545,35.8562566 Z" id="Fill-5"></path>
                            <path d="M15.6751429,0.1 L10.5241429,7.733 L5.35614286,0.1 L4.50614286,0.1 L4.50614286,12 L5.50914286,12 L5.50914286,2.038 L10.2011429,8.974 L10.8301429,8.974 L15.5221429,2.038 L15.5221429,12 L16.5251429,12 L16.5251429,0.1 L15.6751429,0.1 Z M20.5824761,12 L22.0104761,8.804 L28.7254761,8.804 L30.1364761,12 L31.2244761,12 L25.9374761,0.1 L24.7984761,0.1 L19.4944761,12 L20.5824761,12 Z M25.2064761,1.511 C25.2574761,1.375 25.3084761,1.256 25.3594761,1.137 C25.4104761,1.256 25.4614761,1.375 25.5124761,1.511 L28.3174761,7.852 L22.4014761,7.852 L25.2064761,1.511 Z M34.2108093,0.1 L34.2108093,12 L37.8998093,12 C42.1328093,12 44.2068093,9.484 44.2068093,6.05 C44.2068093,2.616 42.1328093,0.1 37.8998093,0.1 L34.2108093,0.1 Z M43.2038093,6.05 C43.2038093,9.059 41.4528093,11.031 37.9168093,11.031 L35.2308093,11.031 L35.2308093,1.069 L37.9168093,1.069 C41.4528093,1.069 43.2038093,3.041 43.2038093,6.05 L43.2038093,6.05 Z M47.8391425,0.1 L47.8391425,12 L55.8631425,12 L55.8631425,11.031 L48.8421425,11.031 L48.8421425,6.492 L55.2341425,6.492 L55.2341425,5.523 L48.8421425,5.523 L48.8421425,1.069 L55.7441425,1.069 L55.7441425,0.1 L47.8391425,0.1 Z M65.0318089,0.1 L65.0318089,12 L69.6898089,12 C71.4748089,12 74.1438089,11.524 74.1608089,8.77 C74.1438089,6.73 72.6478089,5.982 71.5428089,5.744 C72.6308089,5.506 73.6848089,4.673 73.6848089,3.092 C73.6848089,1.052 72.0528089,0.1 69.6558089,0.1 L65.0318089,0.1 Z M73.1408089,8.668 C73.1408089,10.861 71.1348089,11.031 69.5028089,11.031 L66.0518089,11.031 L66.0518089,6.288 L69.9958089,6.288 C71.1858089,6.288 73.1408089,6.56 73.1408089,8.668 L73.1408089,8.668 Z M72.6648089,3.228 C72.6648089,4.758 71.4238089,5.336 70.0808089,5.336 L66.0518089,5.336 L66.0518089,1.069 L69.5878089,1.069 C71.4578089,1.069 72.6648089,1.63 72.6648089,3.228 L72.6648089,3.228 Z M81.5501421,12 L81.5501421,7.359 L86.2251421,0.1 L85.1031421,0.1 L81.0401421,6.441 L76.9771421,0.1 L75.8551421,0.1 L80.5301421,7.359 L80.5301421,12 L81.5501421,12 Z" id="MADE-BY"></path>
                        </g>
                    </g>
                </g>
            </g>
        </g>
    </g>
</svg>