<?xml version="1.0" encoding="UTF-8"?>
<svg width="27px" height="27px" viewBox="0 0 27 27" version="1.1" xmlns="http://www.w3.org/2000/svg" xmlns:xlink="http://www.w3.org/1999/xlink">
    <!-- Generator: Sketch 40.3 (33839) - http://www.bohemiancoding.com/sketch -->
    <title>inst</title>
    <desc>Created with Sketch.</desc>
    <defs></defs>
    <g id="landing" stroke="none" stroke-width="1" fill="none" fill-rule="evenodd">
        <g id="Bart-Landing" transform="translate(-551.000000, -8507.000000)">
            <g id="Variant-2" transform="translate(0.000000, -4.000000)">
                <g id="Content" transform="translate(-678.000000, -92.000000)">
                    <g id="footer" transform="translate(678.000000, 8565.000000)">
                        <g id="Social" transform="translate(421.000000, 25.000000)">
                            <g id="inst" transform="translate(129.761905, 13.000000)">
                                <path d="M13.6858556,26.651124 C6.35935731,26.651124 0.398723384,20.7399831 0.398723384,13.4740006 C0.398723384,6.20775893 6.35935731,0.296099794 13.6858556,0.296099794 C21.0126151,0.296099794 26.973249,6.20775893 26.973249,13.4740006 C26.973249,20.7399831 21.0126151,26.651124 13.6858556,26.651124" id="Fill-29" fill="#000000"></path>
                                <path d="M13.6858556,6.80936664 C15.8744258,6.80936664 16.1335952,6.81765788 16.9981026,6.85704131 C17.797034,6.89279731 18.2309859,7.02571636 18.5199388,7.1368709 C18.9026839,7.28404053 19.1757,7.46074773 19.4623016,7.74472294 C19.7494257,8.02921636 19.9270821,8.3002365 20.0754775,8.67982015 C20.187819,8.96586817 20.3213226,9.39623571 20.3578989,10.1890862 C20.3970878,11.046453 20.4057094,11.3032225 20.4057094,13.4739746 C20.4057094,15.6444677 20.3970878,15.9014963 20.3578989,16.7580858 C20.3213226,17.5509363 20.187819,17.9813038 20.0754775,18.2681291 C19.9270821,18.6471946 19.7494257,18.9176965 19.4623016,19.202449 C19.1757,19.4872016 18.9026839,19.6628724 18.5199388,19.8108193 C18.2309859,19.9217147 17.797034,20.0541156 16.9981026,20.0906489 C16.1338564,20.1295141 15.8746871,20.1375463 13.6858556,20.1375463 C11.4972853,20.1375463 11.2381159,20.1295141 10.3738697,20.0906489 C9.5749384,20.0541156 9.14072522,19.9217147 8.85177229,19.8108193 C8.46928848,19.6628724 8.19601112,19.4872016 7.90940952,19.202449 C7.62254667,18.9176965 7.44489025,18.6471946 7.29623364,18.2681291 C7.18389208,17.9813038 7.05064977,17.5509363 7.01407345,16.7580858 C6.97488454,15.9014963 6.96626297,15.6444677 6.96626297,13.4739746 C6.96626297,11.3032225 6.97488454,11.046453 7.01407345,10.1890862 C7.05064977,9.39623571 7.18389208,8.96586817 7.29623364,8.67982015 C7.44489025,8.3002365 7.62254667,8.02921636 7.90940952,7.74472294 C8.19601112,7.46074773 8.46928848,7.28404053 8.85177229,7.1368709 C9.14072522,7.02571636 9.5749384,6.89279731 10.3738697,6.85704131 C11.2381159,6.81765788 11.4972853,6.80936664 13.6858556,6.80936664 M13.6858556,5.34518423 C11.4596639,5.34518423 11.1806389,5.35425278 10.3064648,5.3936362 C9.43411956,5.43301963 8.8381868,5.57086161 8.31697424,5.77140615 C7.77799603,5.97946463 7.32079202,6.2572214 6.86515557,6.70909437 C6.40925787,7.16096733 6.12918776,7.6141358 5.91965769,8.14918034 C5.71718163,8.66582867 5.57871413,9.25683912 5.53874144,10.1219789 C5.49876875,10.9894507 5.48936341,11.2659119 5.48936341,13.4739746 C5.48936341,15.6812601 5.49876875,15.9584986 5.53874144,16.824934 C5.57871413,17.6903329 5.71718163,18.2810842 5.91965769,18.7982508 C6.12918776,19.3330362 6.40925787,19.7864638 6.86515557,20.2380776 C7.32079202,20.6899506 7.77799603,20.9682256 8.31697424,21.1755067 C8.8381868,21.3768286 9.43411956,21.5141524 10.3064648,21.5532767 C11.1806389,21.5934374 11.4596639,21.6027651 13.6858556,21.6027651 C15.9120472,21.6027651 16.1910722,21.5934374 17.0655076,21.5532767 C17.9375915,21.5141524 18.5337856,21.3768286 19.0549981,21.1755067 C19.5939763,20.9682256 20.0509191,20.6899506 20.5065555,20.2380776 C20.9624532,19.7864638 21.2427846,19.3330362 21.4523147,18.7982508 C21.6547907,18.2810842 21.7932582,17.6903329 21.8332309,16.824934 C21.8732036,15.9584986 21.8823477,15.6812601 21.8823477,13.4739746 C21.8823477,11.2659119 21.8732036,10.9894507 21.8332309,10.1219789 C21.7932582,9.25683912 21.6547907,8.66582867 21.4523147,8.14918034 C21.2427846,7.6141358 20.9624532,7.16096733 20.5065555,6.70909437 C20.0509191,6.2572214 19.5939763,5.97946463 19.0549981,5.77140615 C18.5337856,5.57086161 17.9375915,5.43301963 17.0655076,5.3936362 C16.1910722,5.35425278 15.9120472,5.34518423 13.6858556,5.34518423" id="Fill-33" fill="#FFFFFF"></path>
                                <path d="M13.6858556,9.2991763 C11.3614304,9.2991763 9.47696611,11.1685934 9.47696611,13.4735601 C9.47696611,15.7793041 11.3614304,17.648203 13.6858556,17.648203 C16.0102807,17.648203 17.894745,15.7793041 17.894745,13.4735601 C17.894745,11.1685934 16.0102807,9.2991763 13.6858556,9.2991763 M13.6858556,16.1829842 C12.1770823,16.1829842 10.9538657,14.9703893 10.9538657,13.4735601 C10.9538657,11.9772491 12.1770823,10.7638769 13.6858556,10.7638769 C15.19489,10.7638769 16.4181067,11.9772491 16.4181067,13.4735601 C16.4181067,14.9703893 15.19489,16.1829842 13.6858556,16.1829842" id="Fill-35" fill="#FFFFFF"></path>
                                <path d="M19.0449919,9.13443959 C19.0449919,9.67311154 18.6045085,10.1102157 18.0610889,10.1102157 C17.5179305,10.1102157 17.0777084,9.67311154 17.0777084,9.13443959 C17.0777084,8.59576763 17.5179305,8.15892255 18.0610889,8.15892255 C18.6045085,8.15892255 19.0449919,8.59576763 19.0449919,9.13443959" id="Fill-37" fill="#FFFFFF"></path>
                            </g>
                        </g>
                    </g>
                </g>
            </g>
        </g>
    </g>
</svg>