<?xml version="1.0" encoding="UTF-8"?>
<svg width="19px" height="20px" viewBox="0 0 19 20" version="1.1" xmlns="http://www.w3.org/2000/svg" xmlns:xlink="http://www.w3.org/1999/xlink">
    <!-- Generator: Sketch 40.3 (33839) - http://www.bohemiancoding.com/sketch -->
    <title>inst</title>
    <desc>Created with Sketch.</desc>
    <defs></defs>
    <g id="landing" stroke="none" stroke-width="1" fill="none" fill-rule="evenodd">
        <g id="Bart-Landing" transform="translate(-944.000000, -26.000000)" fill="#000000">
            <g id="Variant-2" transform="translate(0.000000, -4.000000)">
                <g id="Content" transform="translate(-678.000000, -92.000000)">
                    <g id="Header-" transform="translate(677.000000, 0.000000)">
                        <g id="top" transform="translate(1.000000, 0.000000)">
                            <g id="Social" transform="translate(819.000000, 122.000000)">
                                <g id="inst" transform="translate(125.000000, 0.000000)">
                                    <path d="M9.10608585,2.58757997 C11.5217719,2.58757997 11.8078362,2.59681879 12.7620567,2.64070317 C13.643896,2.68054557 14.1228806,2.82865538 14.4418193,2.95251328 C14.8642832,3.1165023 15.1656311,3.31340462 15.4819744,3.62983414 C15.7988944,3.94684108 15.9949869,4.24883495 16.1587817,4.67179959 C16.2827814,4.99053882 16.4301391,5.47009122 16.4705111,6.35355321 C16.5137668,7.30890475 16.523283,7.59501939 16.523283,10.0138575 C16.523283,12.4324068 16.5137668,12.7188102 16.4705111,13.6732956 C16.4301391,14.5567576 16.2827814,15.03631 16.1587817,15.3559153 C15.9949869,15.7783026 15.7988944,16.079719 15.4819744,16.3970147 C15.1656311,16.7143103 14.8642832,16.9100578 14.4418193,17.0749129 C14.1228806,17.1984821 13.643896,17.3460145 12.7620567,17.386723 C11.8081245,17.43003 11.5220603,17.4389801 9.10608585,17.4389801 C6.69039981,17.4389801 6.40433552,17.43003 5.45040339,17.386723 C4.56856408,17.3460145 4.08929105,17.1984821 3.77035244,17.0749129 C3.34817691,16.9100578 3.04654057,16.7143103 2.7301973,16.3970147 C2.41356566,16.079719 2.2174732,15.7783026 2.05338996,15.3559153 C1.92939032,15.03631 1.78232097,14.5567576 1.741949,13.6732956 C1.69869331,12.7188102 1.68917706,12.4324068 1.68917706,10.0138575 C1.68917706,7.59501939 1.69869331,7.30890475 1.741949,6.35355321 C1.78232097,5.47009122 1.92939032,4.99053882 2.05338996,4.67179959 C2.2174732,4.24883495 2.41356566,3.94684108 2.7301973,3.62983414 C3.04654057,3.31340462 3.34817691,3.1165023 3.77035244,2.95251328 C4.08929105,2.82865538 4.56856408,2.68054557 5.45040339,2.64070317 C6.40433552,2.59681879 6.69039981,2.58757997 9.10608585,2.58757997 M9.10608585,0.956062428 C6.64887435,0.956062428 6.34089384,0.966167385 5.37600361,1.01005177 C4.41313197,1.05393616 3.75535713,1.20753151 3.18005647,1.43099542 C2.58514656,1.66283201 2.08049686,1.97233242 1.57757738,2.47584801 C1.07436953,2.9793636 0.765235542,3.48432275 0.533961792,4.08051523 C0.310474066,4.65620909 0.157637298,5.31476359 0.113516495,6.27877652 C0.0693956928,7.24538787 0.0590143274,7.55344471 0.0590143274,10.0138575 C0.0590143274,12.4734041 0.0693956928,12.7823271 0.113516495,13.7477836 C0.157637298,14.7120852 0.310474066,15.370351 0.533961792,15.9466223 C0.765235542,16.542526 1.07436953,17.0477739 1.57757738,17.5510008 C2.08049686,18.0545164 2.58514656,18.3645942 3.18005647,18.5955647 C3.75535713,18.8198947 4.41313197,18.9729126 5.37600361,19.0165083 C6.34089384,19.0612588 6.64887435,19.0716525 9.10608585,19.0716525 C11.5632973,19.0716525 11.8712779,19.0612588 12.8364565,19.0165083 C13.7990397,18.9729126 14.4571029,18.8198947 15.0324036,18.5955647 C15.6273135,18.3645942 16.1316748,18.0545164 16.6345943,17.5510008 C17.1378022,17.0477739 17.4472245,16.542526 17.6784983,15.9466223 C17.901986,15.370351 18.0548228,14.7120852 18.0989436,13.7477836 C18.1430644,12.7823271 18.1531574,12.4734041 18.1531574,10.0138575 C18.1531574,7.55344471 18.1430644,7.24538787 18.0989436,6.27877652 C18.0548228,5.31476359 17.901986,4.65620909 17.6784983,4.08051523 C17.4472245,3.48432275 17.1378022,2.9793636 16.6345943,2.47584801 C16.1316748,1.97233242 15.6273135,1.66283201 15.0324036,1.43099542 C14.4571029,1.20753151 13.7990397,1.05393616 12.8364565,1.01005177 C11.8712779,0.966167385 11.5632973,0.956062428 9.10608585,0.956062428" id="Fill-33"></path>
                                    <path d="M9.10608585,5.36193931 C6.54044675,5.36193931 4.46042486,7.44500408 4.46042486,10.0133955 C4.46042486,12.5826531 6.54044675,14.6651405 9.10608585,14.6651405 C11.6717249,14.6651405 13.7517468,12.5826531 13.7517468,10.0133955 C13.7517468,7.44500408 11.6717249,5.36193931 9.10608585,5.36193931 M9.10608585,13.0324681 C7.44074182,13.0324681 6.09058759,11.6812909 6.09058759,10.0133955 C6.09058759,8.34607757 7.44074182,6.99403427 9.10608585,6.99403427 C10.7717182,6.99403427 12.1218725,8.34607757 12.1218725,10.0133955 C12.1218725,11.6812909 10.7717182,13.0324681 9.10608585,13.0324681" id="Fill-35"></path>
                                    <path d="M15.021359,5.17837554 C15.021359,5.77861001 14.535165,6.26566895 13.9353528,6.26566895 C13.335829,6.26566895 12.8499234,5.77861001 12.8499234,5.17837554 C12.8499234,4.57814108 13.335829,4.09137085 13.9353528,4.09137085 C14.535165,4.09137085 15.021359,4.57814108 15.021359,5.17837554" id="Fill-37"></path>
                                </g>
                            </g>
                        </g>
                    </g>
                </g>
            </g>
        </g>
    </g>
</svg>