<?xml version="1.0" encoding="UTF-8"?>
<svg width="80px" height="44px" viewBox="0 0 80 44" version="1.1" xmlns="http://www.w3.org/2000/svg" xmlns:xlink="http://www.w3.org/1999/xlink">
    <!-- Generator: Sketch 40.3 (33839) - http://www.bohemiancoding.com/sketch -->
    <title>LOGO</title>
    <desc>Created with Sketch.</desc>
    <defs></defs>
    <g id="landing" stroke="none" stroke-width="1" fill="none" fill-rule="evenodd">
        <g id="iPhone-7" transform="translate(-141.000000, -8.000000)" fill="#000000">
            <g id="HEADER" transform="translate(-91.000000, 8.000000)">
                <g id="LOGO" transform="translate(232.000000, 0.000000)">
                    <g id="Logo">
                        <path d="M78.1507623,22.494103 C77.4587564,23.1528505 76.5936158,23.3993496 75.5750513,23.2325377 C76.9356233,22.3432286 77.4955142,20.9014215 77.4955142,20.829703 C77.4955142,20.7255784 77.3298376,20.6703286 77.1204779,20.6703286 C76.9771757,20.6703286 76.4790806,22.1084169 75.1813697,22.9297264 C74.952832,22.0064173 75.0689654,21.084702 75.5319008,20.2453302 C76.2595991,18.9246476 77.756548,17.9444951 79.5624756,17.5954651 C79.7436011,19.5908326 79.1991592,21.495888 78.1507623,22.494103 M65.8550053,33.5174991 C65.2876564,31.9896298 65.4139115,30.2535113 66.1964801,28.7203296 C67.754692,29.8168255 68.6816284,31.0700395 68.8813991,32.3545972 C69.0422812,33.3857496 68.7476859,34.4647143 68.0061368,35.5659914 C67.8500493,34.1252468 67.5794265,32.4199407 67.3769921,32.4252532 C67.0861259,32.4326907 66.9992922,32.4029408 67.0030213,32.5750651 C67.0078158,32.7742831 67.4158808,33.6896234 67.6119225,35.6706472 C66.8682426,35.2971799 66.2279107,34.5215578 65.8550053,33.5174991 M42.4743686,19.1004907 C42.4743686,18.2053379 42.7764219,17.4854968 43.5003912,17.4854968 C44.066142,17.4854968 44.7549515,17.9981511 44.7549515,20.1157057 C44.7549515,21.0012961 44.6872958,22.0345735 44.5615734,23.1571005 C43.3490981,22.3931659 42.4743686,21.1771392 42.4743686,19.1004907 M29.9415503,39.8377566 C27.1996301,39.8377566 27.5815917,26.29412 32.7484626,26.29412 C33.5033297,26.29412 34.0371172,26.7764932 34.416948,27.5064279 C34.1729613,29.0013598 33.9374982,31.0907582 33.8224302,32.9352513 C33.0222817,36.1259268 31.6063066,39.8377566 29.9415503,39.8377566 M14.5299022,32.7036271 C13.658369,32.7036271 13.2300605,32.3051911 13.2300605,31.8504428 C13.2300605,31.0679145 13.7686425,30.6407911 14.7147568,30.6407911 C15.7833972,30.6407911 16.5398624,31.3813509 17.0597991,32.4225969 C16.2058457,32.6016275 15.3577523,32.7036271 14.5299022,32.7036271 M19.2711282,0.439342099 C20.0771366,0.439342099 20.5113051,2.01661742 20.5113051,3.34314369 C20.5113051,12.8902016 16.0870487,18.1086507 11.540799,22.5838839 C12.3899579,12.6293588 15.9607936,0.439342099 19.2711282,0.439342099 M3.79608625,37.3435472 C3.78223548,39.0355721 3.03109743,40.6367536 1.72805936,41.7688431 C0.64077372,40.0741619 0.212465215,38.4942304 0.4878825,37.1873603 C0.698307698,36.1912703 1.31573252,35.3263985 2.32364258,34.6086825 C1.98856043,35.7997405 1.79944411,37.0864232 1.79944411,38.5032616 C1.79944411,38.6259799 2.21177096,38.8230729 2.21177096,38.4846679 C2.21177096,37.064642 2.43871054,35.7439595 2.84091566,34.4971204 C3.45088238,35.1611804 3.80567524,36.1939265 3.79608625,37.3435472 M79.9396428,17.3170912 L79.9135394,17.0966233 L79.7089742,17.1300919 C77.6920886,17.4615906 76.0006962,18.5437428 75.1840333,20.0248623 C74.6486477,20.9970461 74.5223926,22.0659171 74.8121934,23.1342568 C74.2709478,23.3945684 73.6130361,23.5427865 72.8128876,23.4700056 C70.535501,23.2617564 67.5144344,21.6387937 64.3154387,19.9207377 C64.0442832,19.7751757 63.7699313,19.6285513 63.4955795,19.4813956 C64.4299739,14.6130388 65.2951145,10.8996153 65.2951145,10.5463354 C65.2951145,9.59646395 63.552048,8.64659251 62.8025081,8.64659251 C62.2346265,8.64659251 61.2219219,12.6399838 60.3178926,17.8515267 C60.2715458,17.8292143 60.2246663,17.8047769 60.1783195,17.7829957 C54.8244632,15.236724 51.5684662,15.4970355 49.1270011,18.6303363 C48.9767735,18.8231793 49.1941241,19.2237403 49.3123884,19.0702096 C51.8896975,15.7307846 54.8596228,15.7275972 60.0147738,18.1787755 C60.0898876,18.2143691 60.1671323,18.2536814 60.2427788,18.2903375 C59.8522936,20.5858602 59.4852481,23.096007 59.1869238,25.5949976 C57.4065668,32.872564 54.694479,40.9810023 51.4347529,40.9810023 C48.9932879,40.9810023 48.9863625,38.6897296 48.9863625,36.9716736 C48.9863625,32.6313774 51.7767605,27.0134298 51.7767605,26.0895895 C51.7767605,24.4007521 47.8117105,24.824688 45.0591358,23.4375994 C45.2301396,22.0744171 45.3185714,20.904609 45.3185714,20.0668309 C45.3185714,17.6884335 44.5647698,16.7130622 43.0843353,16.7130622 C42.1962877,16.7130622 41.1132638,17.5657153 41.1132638,18.9363351 C41.1132638,21.6021376 42.7865437,22.8813828 44.5045722,23.6405362 C43.6516842,30.5340103 40.7552746,40.3573171 37.9222589,40.3573171 C35.3529406,40.3573171 37.544559,28.2172377 37.544559,27.0458359 C37.544559,26.3339636 36.2495117,25.4956542 34.9624553,25.4956542 C34.8409947,25.4956542 34.6854399,26.0359334 34.5266887,26.8795553 C34.0312573,26.2367452 33.3541676,25.7681844 32.4298949,25.5965913 C31.6196247,25.4462481 30.4758705,25.6305912 29.338509,26.3254636 C29.3358454,26.3259948 29.3342472,26.3259948 29.3321163,26.3265261 C29.3124056,26.3398073 29.2910967,26.3536197 29.2708533,26.3669009 C29.1925431,26.416307 29.1137003,26.4683693 29.0353901,26.5230879 C26.8267246,27.9866761 23.3491153,30.3007924 19.7159511,31.6432561 C18.3857442,29.5857326 16.4040183,29.2770775 15.8558474,29.2770775 C14.1143791,29.2770775 12.7783122,30.4086358 12.7783122,31.752162 C12.7783122,32.9580949 13.7995404,33.213094 14.8239648,33.213094 C15.5814955,33.213094 16.4066819,33.0935632 17.2696916,32.8863764 C17.8498259,34.3149023 18.0618492,36.130708 18.0618492,37.4205782 C18.0618492,40.2574425 17.4849113,43.4226181 15.6582075,43.4226181 C13.3296795,43.4226181 11.3522154,35.3657109 11.3522154,26.7159309 C11.3522154,25.6284662 11.3985622,24.4772518 11.4853959,23.2893813 C17.0011997,18.1516818 22.9325267,12.904014 22.9325267,4.42742087 C22.9325267,1.37699483 21.0349708,0 19.3963179,0 C15.657142,0 8.9043577,9.96196257 8.31303626,25.7209034 C5.80924276,28.2055503 3.60750265,30.7300408 2.52074973,33.9706536 C1.17402846,34.7988693 0.356832883,35.8480841 0.0942009265,37.0922669 C-0.221703232,38.5909175 0.257746587,40.3116298 1.52029778,42.2055289 L1.64122567,42.3866845 L1.8063695,42.2522788 C3.31184193,41.0330646 4.18390788,39.2448838 4.19988954,37.3477972 C4.2110767,36.0016147 3.76305748,34.7861193 2.99433961,34.0492783 C4.02675488,31.1927578 5.98610647,28.7277671 8.29172738,26.3690259 C8.27787661,26.8901802 8.27095122,27.4177095 8.27095122,27.9510825 C8.27095122,40.5103166 12.8736695,43.9145538 15.7642192,43.9145538 C18.1422903,43.9145538 20.9737078,40.980471 20.9737078,36.8006117 C20.9737078,34.6644635 20.5507265,33.1286255 19.9455543,32.0257547 C22.6049026,30.9802586 25.3558791,29.4077645 27.5107397,27.9861449 C26.2210197,29.6457636 25.2381476,32.2733162 25.2381476,36.2358951 C25.2381476,38.6222611 26.2172907,41.4378756 28.6747373,41.4378756 C30.9318805,41.4378756 32.6600308,38.6413861 33.7510455,35.26318 C33.7931305,38.4713867 34.5810264,41.3013448 37.2840579,41.3013448 C41.3433997,41.3013448 44.1108906,30.5260416 45.0058636,23.8498479 C46.6434511,24.4873455 48.1766251,24.7248134 48.1766251,25.3182174 C48.1766251,26.0810895 46.1187199,32.418347 46.1187199,35.2413988 C46.1187199,39.1657279 47.8117105,41.6806559 51.1763828,41.6806559 C54.6923481,41.6806559 57.1151678,35.6366474 58.7873823,29.4178582 C58.5508537,32.0847232 58.425664,34.59487 58.4730763,36.6438936 C58.5934715,41.8570302 60.4814383,44.0771157 63.4572235,43.9979597 C66.4335414,43.9188037 68.2229547,41.1823453 68.1297283,37.1469854 C68.1244011,36.9079238 68.1020268,36.5727063 68.0679326,36.1912703 L68.0871106,36.1657704 C69.0747772,34.8504003 69.4759169,33.5440615 69.2798752,32.28341 C69.0497393,30.8049468 68.0253148,29.4417644 66.2343034,28.2315814 L66.0590379,28.1131131 L65.9530262,28.3043624 C65.01437,30.000106 64.841768,31.9588174 65.479969,33.677936 C65.9247919,34.8759002 66.7270713,35.7853968 67.6545403,36.1593954 C67.680111,36.5084253 67.699289,36.8850802 67.708878,37.2936099 C67.7866554,40.652691 66.2396306,43.4661804 63.8775412,43.5288677 C61.8297577,43.5835863 61.2506889,40.0800057 61.2165947,38.6041987 C61.0951341,33.3443122 62.2857678,25.8468091 63.4119421,19.9207377 C63.6532652,20.0498309 63.8956537,20.1794554 64.1348459,20.3080175 C67.369534,22.0451984 70.4241621,23.6856923 72.7782607,23.901379 C72.9316846,23.9151914 73.0808468,23.9220976 73.2252145,23.9220976 C73.9076314,23.9220976 74.4962892,23.7760044 75.0002442,23.548099 L75.0401984,23.5592552 C75.4285528,23.6628486 75.8030563,23.7143797 76.1605128,23.7143797 C77.0267188,23.7143797 77.794904,23.4120995 78.4187215,22.817633 C79.6034952,21.6897935 80.2001439,19.5308016 79.9396428,17.3170912" id="Fill-1"></path>
                    </g>
                </g>
            </g>
        </g>
    </g>
</svg>