<?xml version="1.0" encoding="UTF-8"?>
<svg width="151px" height="104px" viewBox="0 0 151 104" version="1.1" xmlns="http://www.w3.org/2000/svg" xmlns:xlink="http://www.w3.org/1999/xlink">
    <!-- Generator: Sketch 40.3 (33839) - http://www.bohemiancoding.com/sketch -->
    <title>Logo</title>
    <desc>Created with Sketch.</desc>
    <defs>
        <polygon id="path-1" points="0 105.01 150.172 105.01 150.172 1 0 1"></polygon>
    </defs>
    <g id="landing" stroke="none" stroke-width="1" fill="none" fill-rule="evenodd">
        <g id="Bart-Landing" transform="translate(-450.000000, -7.000000)">
            <g id="Variant-2" transform="translate(0.000000, -4.000000)">
                <g id="Content" transform="translate(-678.000000, -92.000000)">
                    <g id="Header-" transform="translate(677.000000, 0.000000)">
                        <g id="top" transform="translate(1.000000, 0.000000)">
                            <g id="LOGO" transform="translate(137.000000, 0.000000)">
                                <g id="Logo" transform="translate(313.000000, 102.000000)">
                                    <g id="Group-3" transform="translate(0.000000, 0.010000)" fill="#509A44">
                                        <path d="M146.7009,43.3316 C145.4019,44.5716 143.7779,45.0356 141.8659,44.7216 C144.4199,43.0476 145.4709,40.3336 145.4709,40.1986 C145.4709,40.0026 145.1599,39.8986 144.7669,39.8986 C144.4979,39.8986 143.5629,42.6056 141.1269,44.1516 C140.6979,42.4136 140.9159,40.6786 141.7849,39.0986 C143.1509,36.6126 145.9609,34.7676 149.3509,34.1106 C149.6909,37.8666 148.6689,41.4526 146.7009,43.3316 M123.6199,64.0816 C122.5549,61.2056 122.7919,57.9376 124.2609,55.0516 C127.1859,57.1156 128.9259,59.4746 129.3009,61.8926 C129.6029,63.8336 129.0499,65.8646 127.6579,67.9376 C127.3649,65.2256 126.8569,62.0156 126.4769,62.0256 C125.9309,62.0396 125.7679,61.9836 125.7749,62.3076 C125.7839,62.6826 126.5499,64.4056 126.9179,68.1346 C125.5219,67.4316 124.3199,65.9716 123.6199,64.0816 M79.7309,36.9436 C79.7309,35.2586 80.2979,33.9036 81.6569,33.9036 C82.7189,33.9036 84.0119,34.8686 84.0119,38.8546 C84.0119,40.5216 83.8849,42.4666 83.6489,44.5796 C81.3729,43.1416 79.7309,40.8526 79.7309,36.9436 M56.2049,75.9786 C51.0579,75.9786 51.7749,50.4846 61.4739,50.4846 C62.8909,50.4846 63.8929,51.3926 64.6059,52.7666 C64.1479,55.5806 63.7059,59.5136 63.4899,62.9856 C61.9879,68.9916 59.3299,75.9786 56.2049,75.9786 M27.2749,62.5496 C25.6389,62.5496 24.8349,61.7996 24.8349,60.9436 C24.8349,59.4706 25.8459,58.6666 27.6219,58.6666 C29.6279,58.6666 31.0479,60.0606 32.0239,62.0206 C30.4209,62.3576 28.8289,62.5496 27.2749,62.5496 M36.1749,1.8166 C37.6879,1.8166 38.5029,4.7856 38.5029,7.2826 C38.5029,25.2536 30.1979,35.0766 21.6639,43.5006 C23.2579,24.7626 29.9609,1.8166 36.1749,1.8166 M7.1259,71.2836 C7.0999,74.4686 5.6899,77.4826 3.2439,79.6136 C1.2029,76.4236 0.3989,73.4496 0.9159,70.9896 C1.3109,69.1146 2.4699,67.4866 4.3619,66.1356 C3.7329,68.3776 3.3779,70.7996 3.3779,73.4666 C3.3779,73.6976 4.1519,74.0686 4.1519,73.4316 C4.1519,70.7586 4.5779,68.2726 5.3329,65.9256 C6.4779,67.1756 7.1439,69.1196 7.1259,71.2836 M150.0589,33.5866 L150.0099,33.1716 L149.6259,33.2346 C145.8399,33.8586 142.6649,35.8956 141.1319,38.6836 C140.1269,40.5136 139.8899,42.5256 140.4339,44.5366 C139.4179,45.0266 138.1829,45.3056 136.6809,45.1686 C132.4059,44.7766 126.7349,41.7216 120.7299,38.4876 C120.2209,38.2136 119.7059,37.9376 119.1909,37.6606 C120.9449,28.4966 122.5689,21.5066 122.5689,20.8416 C122.5689,19.0536 119.2969,17.2656 117.8899,17.2656 C116.8239,17.2656 114.9229,24.7826 113.2259,34.5926 C113.1389,34.5506 113.0509,34.5046 112.9639,34.4636 C102.9139,29.6706 96.8019,30.1606 92.2189,36.0586 C91.9369,36.4216 92.3449,37.1756 92.5669,36.8866 C97.4049,30.6006 102.9799,30.5946 112.6569,35.2086 C112.7979,35.2756 112.9429,35.3496 113.0849,35.4186 C112.3519,39.7396 111.6629,44.4646 111.1029,49.1686 C107.7609,62.8676 102.6699,78.1306 96.5509,78.1306 C91.9679,78.1306 91.9549,73.8176 91.9549,70.5836 C91.9549,62.4136 97.1929,51.8386 97.1929,50.0996 C97.1929,46.9206 89.7499,47.7186 84.5829,45.1076 C84.9039,42.5416 85.0699,40.3396 85.0699,38.7626 C85.0699,34.2856 83.6549,32.4496 80.8759,32.4496 C79.2089,32.4496 77.1759,34.0546 77.1759,36.6346 C77.1759,41.6526 80.3169,44.0606 83.5419,45.4896 C81.9409,58.4656 76.5039,76.9566 71.1859,76.9566 C66.3629,76.9566 70.4769,54.1046 70.4769,51.8996 C70.4769,50.5596 68.0459,48.9816 65.6299,48.9816 C65.4019,48.9816 65.1099,49.9986 64.8119,51.5866 C63.8819,50.3766 62.6109,49.4946 60.8759,49.1716 C59.3549,48.8886 57.2079,49.2356 55.0729,50.5436 C55.0679,50.5446 55.0649,50.5446 55.0609,50.5456 C55.0239,50.5706 54.9839,50.5966 54.9459,50.6216 C54.7989,50.7146 54.6509,50.8126 54.5039,50.9156 C50.3579,53.6706 43.8299,58.0266 37.0099,60.5536 C34.5129,56.6806 30.7929,56.0996 29.7639,56.0996 C26.4949,56.0996 23.9869,58.2296 23.9869,60.7586 C23.9869,63.0286 25.9039,63.5086 27.8269,63.5086 C29.2489,63.5086 30.7979,63.2836 32.4179,62.8936 C33.5069,65.5826 33.9049,69.0006 33.9049,71.4286 C33.9049,76.7686 32.8219,82.7266 29.3929,82.7266 C25.0219,82.7266 21.3099,67.5606 21.3099,51.2786 C21.3099,49.2316 21.3969,47.0646 21.5599,44.8286 C31.9139,35.1576 43.0479,25.2796 43.0479,9.3236 C43.0479,3.5816 39.4859,0.9896 36.4099,0.9896 C29.3909,0.9896 16.7149,19.7416 15.6049,49.4056 C10.9049,54.0826 6.7719,58.8346 4.7319,64.9346 C2.2039,66.4936 0.6699,68.4686 0.1769,70.8106 C-0.4161,73.6316 0.4839,76.8706 2.8539,80.4356 L3.0809,80.7766 L3.3909,80.5236 C6.2169,78.2286 7.8539,74.8626 7.8839,71.2916 C7.9049,68.7576 7.0639,66.4696 5.6209,65.0826 C7.5589,59.7056 11.2369,55.0656 15.5649,50.6256 C15.5389,51.6066 15.5259,52.5996 15.5259,53.6036 C15.5259,77.2446 24.1659,83.6526 29.5919,83.6526 C34.0559,83.6526 39.3709,78.1296 39.3709,70.2616 C39.3709,66.2406 38.5769,63.3496 37.4409,61.2736 C42.4329,59.3056 47.5969,56.3456 51.6419,53.6696 C49.2209,56.7936 47.3759,61.7396 47.3759,69.1986 C47.3759,73.6906 49.2139,78.9906 53.8269,78.9906 C58.0639,78.9906 61.3079,73.7266 63.3559,67.3676 C63.4349,73.4066 64.9139,78.7336 69.9879,78.7336 C77.6079,78.7336 82.8029,58.4506 84.4829,45.8836 C87.5569,47.0836 90.4349,47.5306 90.4349,48.6476 C90.4349,50.0836 86.5719,62.0126 86.5719,67.3266 C86.5719,74.7136 89.7499,79.4476 96.0659,79.4476 C102.6659,79.4476 107.2139,68.0706 110.3529,56.3646 C109.9089,61.3846 109.6739,66.1096 109.7629,69.9666 C109.9889,79.7796 113.5329,83.9586 119.1189,83.8096 C124.7059,83.6606 128.0649,78.5096 127.8899,70.9136 C127.8799,70.4636 127.8379,69.8326 127.7739,69.1146 L127.8099,69.0666 C129.6639,66.5906 130.4169,64.1316 130.0489,61.7586 C129.6169,58.9756 127.6939,56.4096 124.3319,54.1316 L124.0029,53.9086 L123.8039,54.2686 C122.0419,57.4606 121.7179,61.1476 122.9159,64.3836 C123.7509,66.6386 125.2569,68.3506 126.9979,69.0546 C127.0459,69.7116 127.0819,70.4206 127.0999,71.1896 C127.2459,77.5126 124.3419,82.8086 119.9079,82.9266 C116.0639,83.0296 114.9769,76.4346 114.9129,73.6566 C114.6849,63.7556 116.9199,49.6426 119.0339,38.4876 C119.4869,38.7306 119.9419,38.9746 120.3909,39.2166 C126.4629,42.4866 132.1969,45.5746 136.6159,45.9806 C136.9039,46.0066 137.1839,46.0196 137.4549,46.0196 C138.7359,46.0196 139.8409,45.7446 140.7869,45.3156 L140.8619,45.3366 C141.5909,45.5316 142.2939,45.6286 142.9649,45.6286 C144.5909,45.6286 146.0329,45.0596 147.2039,43.9406 C149.4279,41.8176 150.5479,37.7536 150.0589,33.5866" id="Fill-1"></path>
                                    </g>
                                    <path d="M19.4431,99.67 L18.3741,99.67 L18.3741,98.725 L19.4431,98.725 L19.4431,97.984 C19.4431,96.271 20.4651,95.761 21.4621,95.761 C21.9851,95.761 22.4961,95.876 22.8881,96.042 L22.8881,96.987 C22.5671,96.821 22.1161,96.706 21.6881,96.706 C20.9991,96.706 20.3931,96.897 20.3931,98.022 L20.3931,98.725 L22.5321,98.725 L22.5321,99.67 L20.3931,99.67 L20.3931,104.857 L19.4431,104.857 L19.4431,99.67 Z" id="Fill-4" fill="#509A44"></path>
                                    <mask id="mask-2" fill="white">
                                        <use xlink:href="#path-1"></use>
                                    </mask>
                                    <g id="Clip-7"></g>
                                    <polygon id="Fill-6" fill="#509A44" mask="url(#mask-2)" points="24.147 104.857 25.097 104.857 25.097 95.531 24.147 95.531"></polygon>
                                    <path d="M30.5497,99.5419 C29.3857,99.5419 28.4587,100.3729 28.4587,101.7909 C28.4587,103.2089 29.3857,104.0389 30.5497,104.0389 C31.7137,104.0389 32.6407,103.2089 32.6407,101.7909 C32.6407,100.3729 31.7137,99.5419 30.5497,99.5419 M30.5497,98.5709 C32.1057,98.5709 33.5907,99.6959 33.5907,101.7909 C33.5907,103.8859 32.1057,105.0099 30.5497,105.0099 C29.0057,105.0099 27.5087,103.8859 27.5087,101.7909 C27.5087,99.6959 29.0057,98.5709 30.5497,98.5709" id="Fill-8" fill="#509A44" mask="url(#mask-2)"></path>
                                    <polygon id="Fill-9" fill="#509A44" mask="url(#mask-2)" points="41.87 104.8568 40.836 104.8568 39.292 100.1168 37.747 104.8568 36.714 104.8568 34.766 98.7248 35.764 98.7248 37.237 103.7328 38.864 98.7248 39.72 98.7248 41.347 103.7328 42.82 98.7248 43.818 98.7248"></polygon>
                                    <path d="M47.8915,99.5164 C46.9175,99.5164 46.0145,100.1424 45.9435,101.3434 L49.6385,101.3434 C49.7215,100.6924 49.3405,99.5164 47.8915,99.5164 M47.8325,98.5714 C50.0295,98.5714 50.8375,100.5004 50.4815,102.2374 L45.9435,102.2374 C46.0625,103.5284 47.1435,104.0644 48.2955,104.0644 C48.9965,104.0644 49.6855,103.8604 50.1725,103.5664 L50.1725,104.5634 C49.6495,104.8564 48.9015,105.0104 48.1535,105.0104 C46.4665,105.0104 44.9935,103.9754 44.9935,101.7904 C44.9935,99.6444 46.4785,98.5714 47.8325,98.5714" id="Fill-10" fill="#509A44" mask="url(#mask-2)"></path>
                                    <path d="M55.8028,98.5966 L55.8028,99.6186 C54.6858,99.4776 53.7828,100.0526 53.4388,101.0366 L53.4388,104.8566 L52.4878,104.8566 L52.4878,98.7246 L53.3438,98.7246 L53.3438,99.8106 C53.7948,99.0056 54.8048,98.5076 55.8028,98.5966" id="Fill-11" fill="#509A44" mask="url(#mask-2)"></path>
                                    <path d="M59.2709,98.5711 C60.0309,98.5711 60.7559,98.7881 61.2899,99.0951 L61.2899,100.0661 C60.8149,99.7341 60.0189,99.4911 59.3299,99.4911 C58.7129,99.4911 58.0589,99.7081 58.0589,100.3081 C58.0589,101.6371 61.6829,101.0751 61.6829,103.2851 C61.6829,104.5631 60.5659,105.0101 59.3299,105.0101 C58.5229,105.0101 57.6549,104.7801 57.1209,104.4091 L57.1209,103.4131 C57.7029,103.8351 58.5699,104.0651 59.2829,104.0651 C60.0909,104.0651 60.7319,103.9241 60.7319,103.3111 C60.7319,102.0211 57.0969,102.5311 57.0969,100.3341 C57.0969,99.0691 58.2019,98.5711 59.2709,98.5711" id="Fill-12" fill="#509A44" mask="url(#mask-2)"></path>
                                    <path d="M68.8443,104.1285 C69.5693,104.1285 70.2933,103.8095 70.7923,103.2345 L70.7923,102.1105 C70.3883,102.0205 69.8073,101.9305 69.3433,101.9305 C68.5123,101.9305 67.6093,102.1995 67.6093,103.0935 C67.6093,103.8095 68.2153,104.1285 68.8443,104.1285 M72.1823,104.0515 C72.3253,104.0515 72.4793,104.0135 72.6223,103.9625 L72.6223,104.7925 C72.3963,104.8825 72.1473,104.9335 71.9093,104.9335 C71.4463,104.9335 71.0303,104.7295 70.8643,104.1925 C70.2933,104.7035 69.5693,105.0095 68.6423,105.0095 C67.6323,105.0095 66.6353,104.4345 66.6353,103.1445 C66.6353,101.5605 67.9893,101.0755 69.2123,101.0755 C69.7123,101.0755 70.3173,101.1515 70.7923,101.2665 L70.7923,101.0495 C70.7923,100.1295 70.2103,99.5165 69.1653,99.5165 C68.2863,99.5165 67.5853,99.7465 67.0863,99.9765 L67.0863,98.9805 C67.5373,98.8145 68.3223,98.5715 69.2603,98.5715 C70.7813,98.5715 71.7433,99.4655 71.7433,101.1775 L71.7433,103.5795 C71.7433,103.9495 71.9333,104.0515 72.1823,104.0515" id="Fill-13" fill="#509A44" mask="url(#mask-2)"></path>
                                    <path d="M77.0762,98.5711 C78.4422,98.5711 79.4522,99.5811 79.4522,101.0751 L79.4522,104.8571 L78.5022,104.8571 L78.5022,101.2031 C78.5022,100.0531 77.8482,99.5161 76.9692,99.5161 C76.1262,99.5161 75.4962,100.1301 75.1162,100.7431 L75.1162,104.8571 L74.1652,104.8571 L74.1652,98.7251 L75.0212,98.7251 L75.0212,99.6321 C75.4012,99.0951 76.1612,98.5711 77.0762,98.5711" id="Fill-14" fill="#509A44" mask="url(#mask-2)"></path>
                                    <path d="M84.2984,99.5164 C83.1934,99.5164 82.2904,100.3854 82.2904,101.7904 C82.2904,103.1964 83.1934,104.0644 84.2984,104.0644 C85.3204,104.0644 86.0804,103.3494 86.4014,102.5574 L86.4014,101.0244 C86.0804,100.2314 85.3204,99.5164 84.2984,99.5164 L84.2984,99.5164 Z M87.3514,104.8564 L86.4964,104.8564 L86.4964,103.8344 C85.9854,104.4614 85.2844,105.0104 84.1914,105.0104 C82.5634,105.0104 81.3404,103.6304 81.3404,101.7904 C81.3404,99.9514 82.5634,98.5714 84.1914,98.5714 C85.2844,98.5714 85.9854,99.1204 86.4014,99.6444 L86.4014,95.9134 L87.3514,95.9134 L87.3514,104.8564 Z" id="Fill-15" fill="#509A44" mask="url(#mask-2)"></path>
                                    <path d="M95.8199,99.5164 C94.7149,99.5164 93.8119,100.3854 93.8119,101.7904 C93.8119,103.1964 94.7149,104.0644 95.8199,104.0644 C96.8419,104.0644 97.6019,103.3494 97.9219,102.5574 L97.9219,101.0244 C97.6019,100.2314 96.8419,99.5164 95.8199,99.5164 L95.8199,99.5164 Z M98.8729,104.8564 L98.0169,104.8564 L98.0169,103.8344 C97.5069,104.4614 96.8059,105.0104 95.7129,105.0104 C94.0849,105.0104 92.8619,103.6304 92.8619,101.7904 C92.8619,99.9514 94.0849,98.5714 95.7129,98.5714 C96.8059,98.5714 97.5069,99.1204 97.9219,99.6444 L97.9219,95.9134 L98.8729,95.9134 L98.8729,104.8564 Z" id="Fill-16" fill="#509A44" mask="url(#mask-2)"></path>
                                    <path d="M103.7305,99.5164 C102.7565,99.5164 101.8535,100.1424 101.7825,101.3434 L105.4775,101.3434 C105.5605,100.6924 105.1795,99.5164 103.7305,99.5164 M103.6715,98.5714 C105.8685,98.5714 106.6765,100.5004 106.3205,102.2374 L101.7825,102.2374 C101.9015,103.5284 102.9825,104.0644 104.1345,104.0644 C104.8355,104.0644 105.5245,103.8604 106.0115,103.5664 L106.0115,104.5634 C105.4885,104.8564 104.7405,105.0104 103.9925,105.0104 C102.3055,105.0104 100.8325,103.9754 100.8325,101.7904 C100.8325,99.6444 102.3175,98.5714 103.6715,98.5714" id="Fill-17" fill="#509A44" mask="url(#mask-2)"></path>
                                    <path d="M111.024,98.5711 C111.666,98.5711 112.295,98.7251 112.782,99.0691 L112.782,100.0661 C112.354,99.7081 111.749,99.5161 111.143,99.5161 C110.038,99.5161 108.886,100.1811 108.886,101.7901 C108.886,103.3621 110.002,104.0651 111.119,104.0651 C111.737,104.0651 112.366,103.8731 112.842,103.5661 L112.842,104.5891 C112.307,104.8691 111.701,105.0101 110.988,105.0101 C109.491,105.0101 107.935,104.0011 107.935,101.8161 C107.935,99.5811 109.539,98.5711 111.024,98.5711" id="Fill-18" fill="#509A44" mask="url(#mask-2)"></path>
                                    <path d="M117.3552,99.5419 C116.1912,99.5419 115.2642,100.3729 115.2642,101.7909 C115.2642,103.2089 116.1912,104.0389 117.3552,104.0389 C118.5192,104.0389 119.4462,103.2089 119.4462,101.7909 C119.4462,100.3729 118.5192,99.5419 117.3552,99.5419 M117.3552,98.5709 C118.9112,98.5709 120.3962,99.6959 120.3962,101.7909 C120.3962,103.8859 118.9112,105.0099 117.3552,105.0099 C115.8112,105.0099 114.3142,103.8859 114.3142,101.7909 C114.3142,99.6959 115.8112,98.5709 117.3552,98.5709" id="Fill-19" fill="#509A44" mask="url(#mask-2)"></path>
                                    <path d="M125.6699,98.5966 L125.6699,99.6186 C124.5529,99.4776 123.6499,100.0526 123.3059,101.0366 L123.3059,104.8566 L122.3549,104.8566 L122.3549,98.7246 L123.2109,98.7246 L123.2109,99.8106 C123.6619,99.0056 124.6719,98.5076 125.6699,98.5966" id="Fill-20" fill="#509A44" mask="url(#mask-2)"></path>
                                </g>
                            </g>
                        </g>
                    </g>
                </g>
            </g>
        </g>
    </g>
</svg>