<?xml version="1.0" encoding="UTF-8"?>
<svg width="24px" height="24px" viewBox="0 0 24 24" version="1.1" xmlns="http://www.w3.org/2000/svg" xmlns:xlink="http://www.w3.org/1999/xlink">
    <!-- Generator: Sketch 40.3 (33839) - http://www.bohemiancoding.com/sketch -->
    <title>phone-in-talk</title>
    <desc>Created with Sketch.</desc>
    <defs></defs>
    <g id="landing" stroke="none" stroke-width="1" fill="none" fill-rule="evenodd">
        <g id="iPhone-7" transform="translate(-20.000000, -20.000000)">
            <g id="HEADER" transform="translate(-91.000000, 8.000000)">
                <g id="phone-in-talk" transform="translate(111.000000, 12.000000)">
                    <circle id="Oval-2" fill="#509A44" cx="12" cy="12" r="12"></circle>
                    <path d="M14.9333333,13.9333333 C14.7333333,13.8666667 14.4666667,13.9333333 14.2666667,14.0666667 L12.8,15.5333333 C10.9333333,14.6 9.4,13 8.4,11.1333333 L9.86666667,9.66666667 C10.0666667,9.46666667 10.1333333,9.2 10,9 C9.8,8.26666667 9.66666667,7.46666667 9.66666667,6.66666667 C9.66666667,6.26666667 9.4,6 9,6 L6.66666667,6 C6.26666667,6 6,6.26666667 6,6.66666667 C6,12.9333333 11.0666667,18 17.3333333,18 C17.7333333,18 18,17.7333333 18,17.3333333 L18,15 C18,14.6 17.7333333,14.3333333 17.3333333,14.3333333 C16.5333333,14.3333333 15.7333333,14.2 14.9333333,13.9333333 Z" id="Shape" fill="#FFFFFF"></path>
                </g>
            </g>
        </g>
    </g>
</svg>