<?xml version="1.0" encoding="UTF-8"?>
<svg width="28px" height="28px" viewBox="0 0 28 28" version="1.1" xmlns="http://www.w3.org/2000/svg" xmlns:xlink="http://www.w3.org/1999/xlink">
    <!-- Generator: Sketch 40.3 (33839) - http://www.bohemiancoding.com/sketch -->
    <title>vk</title>
    <desc>Created with Sketch.</desc>
    <defs></defs>
    <g id="landing" stroke="none" stroke-width="1" fill="none" fill-rule="evenodd">
        <g id="Bart-Landing" transform="translate(-481.000000, -8494.000000)">
            <g id="Variant-2" transform="translate(0.000000, -4.000000)">
                <g id="Content" transform="translate(-678.000000, -92.000000)">
                    <g id="footer" transform="translate(678.000000, 8565.000000)">
                        <g id="Social" transform="translate(421.000000, 25.000000)">
                            <g id="vk" transform="translate(60.000000, 0.000000)">
                                <path d="M14.0331289,27.717169 C6.41357069,27.717169 0.214511397,21.5695824 0.214511397,14.0129606 C0.214511397,6.45606929 6.41357069,0.307943785 14.0331289,0.307943785 C21.652687,0.307943785 27.8517463,6.45606929 27.8517463,14.0129606 C27.8517463,21.5695824 21.652687,27.717169 14.0331289,27.717169" id="Fill-23" fill="#000000"></path>
                                <path d="M13.3172279,20.012395 L14.445367,20.012395 C14.445367,20.012395 14.783374,20.1379659 14.9561814,19.9531126 C15.1151317,19.7836188 15.1102409,19.4659189 15.1102409,19.4659189 C15.1102409,19.4659189 15.0885041,17.9757745 15.785168,17.7569685 C16.4725939,17.5403182 17.3551073,19.1964534 18.2903325,19.8332004 C18.9975931,20.3147353 19.5353068,20.2818605 19.5353068,20.2818605 L22.0461772,20.24683 C22.0461772,20.24683 23.3723927,20.1654514 22.7433845,19.1315122 C22.6920314,19.0474389 22.3771197,18.366769 20.8582619,16.9685124 C19.2682161,15.5047756 19.4815083,15.7416358 21.3962473,13.2108156 C22.5626975,11.6689338 23.0289515,10.7282297 22.8833151,10.3251092 C22.7441997,9.9408514 21.8866835,10.0421704 21.8866835,10.0421704 L19.0628035,10.0421704 C19.0628035,10.0421704 18.8541303,10.0971414 18.6992557,10.1892986 C18.5479134,10.2790306 18.450913,10.4884054 18.450913,10.4884054 C18.450913,10.4884054 18.0047655,11.6651613 17.4105361,12.6659563 C16.1568671,14.7777576 15.6552908,14.8893164 15.4504216,14.7583561 C14.9735708,14.4525128 15.0925797,13.5304017 15.0925797,12.8758699 C15.0925797,10.8292793 15.4058612,9.97615139 14.4831346,9.75518965 C14.1771894,9.68162556 13.9516703,9.63312177 13.1686026,9.62530727 C12.1638197,9.61506758 11.3136397,9.62854086 10.8321699,9.86216747 C10.5118241,10.0179185 10.2645681,10.3644512 10.4150954,10.3846611 C10.6014883,10.408913 11.0229102,10.4970283 11.2462557,10.7990991 C11.5348115,11.1884768 11.5247582,12.062623 11.5247582,12.062623 C11.5247582,12.062623 11.6907729,14.4716448 11.1375718,14.771021 C10.7579932,14.9763537 10.2371255,14.5573348 9.1193113,12.6414349 C8.54654703,11.6600415 8.11425672,10.5754427 8.11425672,10.5754427 C8.11425672,10.5754427 8.03084181,10.3728046 7.88194483,10.2636711 C7.70152952,10.1327109 7.44938282,10.311636 7.44938282,10.311636 L4.77331291,10.3288818 C4.77331291,10.3288818 4.37172581,10.3399299 4.22418739,10.5134657 C4.09295155,10.6675999 4.21359071,10.9863777 4.21359071,10.9863777 C4.21359071,10.9863777 6.30847333,15.8475358 8.68104338,18.2972469 C10.8560804,20.5432421 13.3259226,20.3958445 13.3259226,20.3958445" id="Fill-27" fill="#FFFFFF"></path>
                            </g>
                        </g>
                    </g>
                </g>
            </g>
        </g>
    </g>
</svg>