<?xml version="1.0" encoding="UTF-8"?>
<svg width="21px" height="12px" viewBox="0 0 21 12" version="1.1" xmlns="http://www.w3.org/2000/svg" xmlns:xlink="http://www.w3.org/1999/xlink">
    <!-- Generator: Sketch 40.3 (33839) - http://www.bohemiancoding.com/sketch -->
    <title>vk-white</title>
    <desc>Created with Sketch.</desc>
    <defs></defs>
    <g id="landing" stroke="none" stroke-width="1" fill="none" fill-rule="evenodd">
        <g id="Bart-Landing" transform="translate(-903.000000, -30.000000)" fill="#FFFFFF">
            <g id="Variant-2" transform="translate(0.000000, -4.000000)">
                <g id="Content" transform="translate(-678.000000, -92.000000)">
                    <g id="Header-" transform="translate(677.000000, 0.000000)">
                        <g id="top" transform="translate(1.000000, 0.000000)">
                            <g id="Social-Copy" transform="translate(819.000000, 122.000000)">
                                <g id="vk-white" transform="translate(84.000000, 4.000000)">
                                    <path d="M11.3712514,11.8526905 C11.3712514,11.8526905 11.725799,11.8910893 11.9092031,11.6930322 C12.0779003,11.5114316 12.0368123,10.8563417 12.0368123,10.8563417 C12.0368123,10.8563417 12.0137426,9.25975844 12.7531265,9.02532343 C13.4827057,8.79319812 14.4193356,10.5676286 15.4119095,11.2498576 C16.1625399,11.7657879 16.7332266,11.7305649 16.7332266,11.7305649 L19.3980654,11.6930322 C19.3980654,11.6930322 20.8056055,11.6058408 20.138026,10.4980488 C20.0835239,10.4079703 19.7493016,9.6786811 18.1373062,8.18054899 C16.4497576,6.61225962 16.6761291,6.8660384 18.7082813,4.15444528 C19.9462592,2.50242911 20.4411042,1.4945318 20.2865372,1.06261705 C20.1388912,0.650912218 19.2287915,0.759468331 19.2287915,0.759468331 L16.231749,0.759468331 C16.231749,0.759468331 16.0102798,0.818365796 15.8459082,0.917105665 C15.6852854,1.01324712 15.5823369,1.23757717 15.5823369,1.23757717 C15.5823369,1.23757717 15.1088313,2.49838713 14.4781633,3.57066746 C13.1476183,5.83331176 12.615285,5.95283897 12.3978531,5.81252442 C11.8917615,5.48483509 12.0180681,4.49685898 12.0180681,3.79557494 C12.0180681,1.6027992 12.3505602,0.688733629 11.3712514,0.451988915 C11.0465453,0.373170247 10.8071972,0.321201895 9.97611123,0.312829217 C8.90971432,0.30185812 8.00740065,0.316293773 7.49640677,0.566608002 C7.15641706,0.733484155 6.89399921,1.10476916 7.05375689,1.12642264 C7.25157958,1.15240681 7.6988434,1.24681599 7.93588457,1.57046333 C8.24213485,1.98765372 8.23146511,2.9242389 8.23146511,2.9242389 C8.23146511,2.9242389 8.40765995,5.50533372 7.82053607,5.82609394 C7.41768142,6.04609329 6.86487372,5.59714447 5.67851436,3.54439457 C5.07062774,2.49290158 4.61182907,1.33083149 4.61182907,1.33083149 C4.61182907,1.33083149 4.52329909,1.11371926 4.36527164,0.996790471 C4.17379312,0.856475921 3.9061846,1.0481814 3.9061846,1.0481814 L1.06601606,1.06665903 C1.06601606,1.06665903 0.63980334,1.07849627 0.483217747,1.26442748 C0.343934428,1.42957136 0.471971267,1.77111892 0.471971267,1.77111892 C0.471971267,1.77111892 2.69531368,6.97950264 5.21337151,9.60419313 C7.52178345,12.0106165 10.1430782,11.8526905 10.1430782,11.8526905 L11.3712514,11.8526905 Z" id="Fill-27"></path>
                                </g>
                            </g>
                        </g>
                    </g>
                </g>
            </g>
        </g>
    </g>
</svg>