<?xml version="1.0" encoding="UTF-8"?>
<svg width="16px" height="54px" viewBox="0 0 16 54" version="1.1" xmlns="http://www.w3.org/2000/svg" xmlns:xlink="http://www.w3.org/1999/xlink">
    <!-- Generator: Sketch 40.3 (33839) - http://www.bohemiancoding.com/sketch -->
    <title>Warning</title>
    <desc>Created with Sketch.</desc>
    <defs>
        <polygon id="path-1" points="15.7887463 0.196069182 0 0.196069182 0 42.8757582 15.7887463 42.8757582 15.7887463 0.196069182"></polygon>
    </defs>
    <g id="landing" stroke="none" stroke-width="1" fill="none" fill-rule="evenodd">
        <g id="Bart-Landing" transform="translate(-610.000000, -6983.000000)">
            <g id="Variant-2" transform="translate(0.000000, -4.000000)">
                <g id="Content" transform="translate(-678.000000, -92.000000)">
                    <g id="СКИДКА" transform="translate(492.000000, 6608.000000)">
                        <g id="form-error" transform="translate(761.000000, 444.000000)">
                            <g id="Warning" transform="translate(35.000000, 27.000000)">
                                <g id="Group-3">
                                    <mask id="mask-2" fill="white">
                                        <use xlink:href="#path-1"></use>
                                    </mask>
                                    <g id="Clip-2"></g>
                                    <path d="M15.719322,0.876496855 C15.7022373,0.81727044 15.6621017,0.771836478 15.6187119,0.732893082 C15.7467119,0.534119497 15.6333559,0.163345912 15.3475254,0.198232704 C12.8759322,0.503559748 10.3951186,0.684213836 7.90372881,0.711798742 C6.72786441,0.724238994 4.49464407,0.16118239 3.54549153,0.949245283 C3.47145763,1.01171698 3.49152542,1.15423899 3.57722034,1.19669811 C3.58888136,1.20183648 3.60054237,1.20724528 3.61111864,1.21238365 C2.95864407,1.58856604 2.43959322,2.28792453 1.93844068,2.84043396 C1.41938983,3.4151195 0.915254237,4.2791761 0.142915254,4.51581132 C-0.0149152542,4.56449057 -0.0265762712,4.71431447 0.0328135593,4.8200566 C0.0284745763,4.86765409 0.0360677966,4.91606289 0.0794576271,4.95311321 C0.11959322,4.98691824 0.16,5.02072327 0.200135593,5.0545283 C0.23620339,5.08508805 0.276610169,5.08833333 0.314576271,5.08103145 C0.31240678,5.09266038 0.302915254,5.09671698 0.302915254,5.10942767 C0.811389831,17.5561698 1.37383051,29.9975031 1.84108475,42.4450566 C1.84108475,42.4534403 1.84542373,42.4588491 1.84542373,42.4661509 C1.76894915,42.6235472 1.83159322,42.8401698 2.06562712,42.8528805 C3.08474576,42.9056164 4.10901695,42.8539623 5.12922034,42.8296226 C6.02549153,42.8085283 6.95349153,42.8707296 7.82508475,42.6532956 C7.84759322,42.6478868 7.85816949,42.6278742 7.8760678,42.617327 C7.97776271,42.6373396 8.08786441,42.5846038 8.11118644,42.4599308 C8.11877966,42.4566855 8.12284746,42.4610126 8.12935593,42.4566855 C8.58061017,42.1819182 9.02020339,41.8925472 9.4619661,41.6053396 C9.85708475,41.3484214 10.3463051,41.1255786 10.6578983,40.7696792 C10.7986441,40.607956 10.6673898,40.2899182 10.4279322,40.3767296 C10.4162712,40.3807862 10.4056949,40.3883585 10.3940339,40.3924151 C10.7140339,27.3585472 13.7233898,14.2040629 15.6810847,1.32326415 C15.6854237,1.31920755 15.6938305,1.30974214 15.6970847,1.30649686 C15.8261695,1.16586792 15.8050169,0.997924528 15.719322,0.876496855 L15.719322,0.876496855 Z M7.72772881,42.137566 C6.8759322,42.0023459 5.98942373,42.1070063 5.12922034,42.1408113 C4.26386441,42.1746164 3.3960678,42.2011195 2.5339661,42.2749497 C2.52230508,42.2422264 2.49789831,42.2157233 2.46183051,42.2084214 C2.46508475,41.7467799 2.46074576,41.2818931 2.46183051,40.8191698 C3.34101695,40.863522 4.21938983,40.908956 5.09966102,40.9343774 C5.26372881,40.9387044 5.26155932,40.6904403 5.09966102,40.6809748 C4.22128814,40.625805 3.34101695,40.5911887 2.46183051,40.5563019 C2.46291525,39.9826981 2.45559322,39.4080126 2.45342373,38.8352201 C3.52650847,38.8849811 4.59959322,38.9336604 5.67376271,38.9620566 C5.87715254,38.9674654 5.87498305,38.6578113 5.67376271,38.6483459 C4.59959322,38.5934465 3.52650847,38.5607233 2.45233898,38.528 C2.44908475,37.860283 2.43850847,37.1904025 2.43227119,36.5218742 C3.41640678,36.5767736 4.40054237,36.6378931 5.38549153,36.6706164 C5.57098305,36.6771069 5.56881356,36.3972013 5.38549153,36.3855723 C4.40135593,36.3201258 3.41532203,36.2841572 2.42901695,36.2408868 C2.41735593,35.0479748 2.39728814,33.8531698 2.37288136,32.6575535 C3.66535593,32.5877799 4.95755932,32.5180063 6.24786441,32.4155094 C6.47023729,32.3987421 6.47566102,32.055283 6.24786441,32.0658302 C4.95240678,32.1272201 3.6599322,32.2221447 2.36664407,32.3162579 C2.35281356,31.6612516 2.32298305,31.0062453 2.30616949,30.351239 C3.47661017,30.2836289 4.64949153,30.226566 5.81667797,30.1178491 C6.03389831,30.0978365 6.04013559,29.7619497 5.81667797,29.7754717 C4.64189831,29.8484906 3.46928814,29.9742453 2.29776271,30.0891824 C2.27552542,29.285434 2.23728814,28.4824969 2.20962712,27.678478 C3.5560678,27.6965975 4.90033898,27.7133648 6.24677966,27.6998428 C6.49572881,27.6965975 6.49681356,27.3152767 6.24677966,27.3131132 C4.89735593,27.298239 3.54766102,27.3163585 2.1979661,27.3342075 C2.14101695,25.7348239 2.0699661,24.1343585 1.99159322,22.5360566 C3.26589831,22.5709434 4.54454237,22.5931195 5.81667797,22.5401132 C6.05288136,22.5306478 6.05288136,22.1842138 5.81667797,22.1747484 C4.54020339,22.1209308 3.25532203,22.1441887 1.97667797,22.178805 C1.93220339,21.2947358 1.87932203,20.411478 1.82833898,19.5284906 C3.03294915,19.5633774 4.22888136,19.5325472 5.42589831,19.3540566 C5.59213559,19.329717 5.55308475,19.0530566 5.38657627,19.062522 C4.19389831,19.1228302 3.00311864,19.1828679 1.81044068,19.1934151 C1.75430508,18.2449811 1.67701695,17.3014151 1.61437288,16.3548742 C3.30711864,16.2959182 4.98928814,16.3518994 6.67688136,16.5293082 C6.8740339,16.5493208 6.92149153,16.2123522 6.72461017,16.1807107 C5.01694915,15.9070252 3.30928814,15.846717 1.58779661,15.9830189 C1.53491525,15.1960377 1.46928814,14.4123019 1.4120678,13.6253208 C2.83905085,13.669673 4.31891525,13.6685912 5.72149153,13.3781384 C5.92054237,13.336761 5.87823729,13.0103396 5.67376271,13.0230503 C4.24271186,13.1076981 2.82630508,13.3051195 1.392,13.3537987 C1.3220339,12.4188868 1.24474576,11.4858679 1.16854237,10.5531195 C3.35159322,10.5807044 5.50427119,10.7719057 7.68108475,10.9441761 C7.87389831,10.9587799 7.91430508,10.650478 7.72664407,10.6080189 C5.57423729,10.1296101 3.33477966,10.0344151 1.13464407,10.1317736 C0.996881356,8.47424528 0.849627119,6.8188805 0.672542373,5.17081761 C1.70657627,5.64814465 5.50535593,5.41691824 6.06671186,5.40528931 C8.05830508,5.36418239 10.027661,5.16865409 11.9937627,4.86008176 C9.49152542,17.0712704 7.67891525,29.649717 7.72772881,42.137566 L7.72772881,42.137566 Z M11.9406102,21.7596226 C10.9884746,27.9481069 9.55932203,34.2991258 10.0189831,40.5868616 C9.73722034,40.7642704 9.47552542,40.9892767 9.2119322,41.1783145 C8.85911864,41.4309057 8.50847458,41.6843082 8.16,41.9442013 C9.06576271,29.4850189 10.1971525,17.1937799 12.7023729,4.92579874 C12.7373559,4.75461006 12.6535593,4.63101887 12.5380339,4.558 C12.9079322,4.35219497 14.120678,3.04840252 14.9407458,2.14621384 C13.9289492,8.68221384 12.9458983,15.2225409 11.9406102,21.7596226 L11.9406102,21.7596226 Z M15.1292203,0.91354717 C14.3707119,1.70161006 13.6333559,2.50968553 12.912,3.33155346 C12.6991186,3.57359748 12.3050847,3.89785535 12.1429153,4.25159119 C12.0615593,4.16721384 11.9482034,4.11231447 11.8039322,4.13232704 C8.20013559,4.64048428 4.68962712,4.60127044 1.08583051,4.63615723 C1.37383051,4.41872327 1.62088136,4.11447799 1.86766102,3.84701258 C2.54237288,3.1127673 3.49044068,2.41881761 4.00732203,1.5715283 C4.10494915,1.41305031 4.00433898,1.25159748 3.8600678,1.19345283 L3.88664407,1.16586792 C3.92162712,1.12908805 3.91837288,1.09095597 3.90454237,1.05606918 C4.48298305,1.16072956 6.36745763,1.39628302 6.58576271,1.40250314 C7.6100339,1.43522642 8.63674576,1.42576101 9.6599322,1.38979245 C11.4958644,1.32650943 13.3157966,1.13855346 15.1324746,0.890289308 C15.1324746,0.898672956 15.1303051,0.905974843 15.1292203,0.91354717 L15.1292203,0.91354717 Z" id="Fill-1" fill="#F15D29" mask="url(#mask-2)"></path>
                                </g>
                                <path d="M9.96009617,46.6469518 C9.96694175,46.605537 9.97036454,46.5643929 9.97692489,46.5232488 C10.0025958,46.3508225 9.77298358,46.289377 9.70281637,46.4512466 C9.68941043,46.4807513 9.67942729,46.5126921 9.66716229,46.5421968 C9.65489729,46.5465277 9.64263229,46.5400313 9.63036729,46.5476105 C8.86822579,46.985308 8.16855024,47.5921836 7.4777169,48.1346362 C7.41981468,48.0786044 7.34308711,48.0371896 7.23812152,48.0320466 C5.44885745,47.9316225 3.66273095,47.9865715 1.88915468,48.2277518 C2.16297797,48.0404378 2.42482149,47.8290329 2.68466838,47.6417189 C3.1424667,47.3150022 3.63934188,47.0096696 4.02925483,46.6087853 C4.06490891,46.5717014 4.07403635,46.5305573 4.0805967,46.491308 C5.83221006,46.7484587 7.69278227,46.6014768 9.45551971,46.5676411 C9.78867138,46.560062 9.78867138,46.0823031 9.45551971,46.0758066 C7.65826913,46.0408883 5.75747912,45.8833497 3.9781982,46.1626965 C3.92913819,46.170005 3.89890354,46.2005924 3.87893726,46.2376762 C3.8355819,46.2333453 3.78994469,46.2314505 3.74202561,46.2544587 C3.22261706,46.5094439 2.77252002,46.8911096 2.31129892,47.2283831 C1.8945741,47.5318209 1.37972927,47.815228 1.05456411,48.2074504 C1.05770167,48.2085332 1.06112446,48.2106986 1.06454725,48.2128641 C0.970990957,48.3059797 0.992098169,48.4654132 1.08451353,48.542829 C1.08023504,48.56692 1.06454725,48.5850559 1.06454725,48.6123951 C1.06340632,49.7289704 1.06112446,50.8466284 1.05998353,51.9632038 C1.0588426,52.4455643 0.832653149,53.3918788 1.26620669,53.7884322 C1.70632059,54.1912114 2.71347688,53.9013078 3.22489892,53.8674722 C4.44056023,53.7884322 5.65707725,53.7226558 6.86931577,53.6181714 C7.025338,53.6054492 7.16367581,53.5218076 7.21815524,53.3897133 C7.72615449,53.3071544 8.33027712,53.1084717 8.77809229,52.7847325 C8.92612801,52.9382109 9.23047119,52.8884048 9.25614212,52.6198854 C9.44211377,50.7028948 9.65261543,48.8219052 9.92558302,46.916554 C9.92672395,46.9154713 9.92786488,46.9143885 9.92900581,46.9133058 C10.023703,46.8361606 10.012579,46.7303228 9.96009617,46.6469518 L9.96009617,46.6469518 Z M6.50963747,52.9276542 C5.71726133,52.96555 4.92631134,53.0164388 4.13507613,53.0651621 C3.71293189,53.0914185 2.17096448,53.4035182 1.85549723,53.2132267 C1.78190722,53.1685637 1.77420594,52.8101769 1.78761187,52.4030668 C2.81159689,52.3651709 3.83215911,52.3226733 4.85386226,52.2466109 C5.00760263,52.2349714 5.01216635,52.0140925 4.85386226,52.016258 C3.83330004,52.0319577 2.81701631,52.0828465 1.79759502,52.1367128 C1.81870223,51.7252717 1.85007781,51.328989 1.8543563,51.1703676 C1.87232596,51.2242339 1.91026189,51.2718745 1.98813039,51.2737693 C2.64216873,51.2854087 3.29506614,51.2929879 3.94910447,51.2770175 C4.15418671,51.2729572 4.15418671,50.9800761 3.94910447,50.9757452 C3.29506614,50.9608575 2.64216873,50.9673539 1.98813039,50.9800761 C1.91254375,50.9808882 1.87574875,51.0263632 1.85663816,51.0783347 C1.85663816,50.2852279 1.85777909,49.4932038 1.85777909,48.7014504 C3.5258193,48.630531 5.18359114,48.6188915 6.84934949,48.6917058 C6.65453563,50.0992674 6.53730503,51.5087238 6.50963747,52.9276542 L6.50963747,52.9276542 Z M8.67883135,52.1017944 C8.49400063,52.2709725 8.31687119,52.4474591 8.0938193,52.584967 C7.83197578,52.7479194 7.54474656,52.8545692 7.24724896,52.9403763 C7.24724896,51.4367216 7.34964746,49.9447063 7.57811877,48.4559392 C7.5792597,48.4442997 7.57697784,48.4348258 7.57697784,48.4242691 C8.16427175,48.0680477 8.79463579,47.7221124 9.3696647,47.3288072 C8.85824265,48.8346274 8.61094599,50.5442734 8.67883135,52.1017944 L8.67883135,52.1017944 Z" id="Fill-4" fill="#F15D29"></path>
                                <path d="M5.90311481,50.0069039 C4.96649765,49.9931539 4.03084631,50.0029039 3.09326331,50.0106539 C2.96891223,50.0116539 2.96891223,50.2109039 3.09326331,50.2119039 C4.02988048,50.2196539 4.96649765,50.2294039 5.90311481,50.2149039 C6.03229506,50.2139039 6.03229506,50.0099039 5.90311481,50.0069039 L5.90311481,50.0069039 Z" id="Fill-5" fill="#F15D29"></path>
                                <path d="M5.85117452,35.0004062 C4.94891516,35.0596432 4.0466558,35.1228535 3.14622362,35.199067 C2.95327387,35.2145987 2.94925408,35.5125899 3.14622362,35.4995866 C4.04811754,35.444684 4.94891516,35.3785841 5.85117452,35.3063438 C6.04814406,35.2908122 6.05106754,34.9874029 5.85117452,35.0004062 L5.85117452,35.0004062 Z" id="Fill-6" fill="#F15D29"></path>
                                <path d="M5.88515355,26.03369 C4.9586133,25.9638572 4.0327587,26.0191415 3.1050757,26.0515639 C2.96497477,26.0565519 2.96497477,26.4427109 3.1050757,26.4476989 C4.0327587,26.4801213 4.9586133,26.5370683 5.88515355,26.4655728 C6.03782471,26.4543497 6.03873891,26.0449131 5.88515355,26.03369 L5.88515355,26.03369 Z" id="Fill-7" fill="#F15D29"></path>
                                <path d="M5.86308137,8.10375862 C4.26292582,7.92039542 2.69469826,7.99167896 1.10534189,8.22636632 C0.942180485,8.25115106 0.978803763,8.52027384 1.14478234,8.49877911 C2.71113178,8.30269454 4.28569799,8.28799916 5.86308137,8.37112674 C6.05018876,8.38143544 6.04103294,8.12437602 5.86308137,8.10375862 L5.86308137,8.10375862 Z" id="Fill-8" fill="#F15D29"></path>
                            </g>
                        </g>
                    </g>
                </g>
            </g>
        </g>
    </g>
</svg>