<?xml version="1.0" encoding="UTF-8"?>
<svg width="81px" height="81px" viewBox="0 0 81 81" version="1.1" xmlns="http://www.w3.org/2000/svg" xmlns:xlink="http://www.w3.org/1999/xlink">
    <!-- Generator: Sketch 40.3 (33839) - http://www.bohemiancoding.com/sketch -->
    <title>hover</title>
    <desc>Created with Sketch.</desc>
    <defs>
        <radialGradient cx="50%" cy="50%" fx="50%" fy="50%" r="135.725058%" id="radialGradient-1">
            <stop stop-color="#FFFFFF" offset="0%"></stop>
            <stop stop-color="#FF2590" offset="100%"></stop>
        </radialGradient>
        <path d="M323.836961,49.3073895 C323.836961,51.5896987 321.800964,53.1302575 319.517602,53.1302575 L292.925953,53.1302575 C290.633078,53.1302575 288.635136,51.5896987 288.635136,49.3073895 L288.635136,22.7089771 C288.635136,20.4266678 290.633078,18.8956187 292.925953,18.8956187 L319.517602,18.8956187 C321.800964,18.8956187 323.836961,20.4266678 323.836961,22.7089771 L323.836961,49.3073895 L323.836961,49.3073895 Z M299.557216,36.0509766 C299.557216,32.3517337 302.554128,29.3562028 306.255077,29.3562028 C309.965539,29.3562028 312.971966,32.3517337 312.971966,36.0509766 C312.971966,39.7407099 309.965539,42.7362408 306.255077,42.7362408 C302.554128,42.7362408 299.557216,39.7407099 299.557216,36.0509766 Z M319.079958,27.3116341 C319.079958,27.915495 318.589987,28.4052406 317.985847,28.4052406 L314.465665,28.4052406 C313.861525,28.4052406 313.371554,27.915495 313.371554,27.3116341 L313.371554,23.793074 C313.371554,23.189213 313.861525,22.6994674 314.465665,22.6994674 L317.985847,22.6994674 C318.589987,22.6994674 319.079958,23.189213 319.079958,23.793074 L319.079958,27.3116341 Z M316.025962,33.1600515 L320.031359,33.1600515 L320.031359,49.0791586 C320.031359,49.6877744 319.898163,50.2773709 319.29878,50.2773709 L293.135261,50.2773709 C292.535879,50.2773709 292.440739,49.6877744 292.440739,49.0791586 L292.440739,33.1600515 L296.40808,33.1600515 C295.837239,33.1600515 295.646959,35.2902068 295.646959,36.2601883 C295.646959,42.0895865 300.413477,46.7397916 306.255077,46.7397916 C312.115705,46.7397916 316.872708,42.1418894 316.872708,36.3124912 C316.872708,35.3425097 316.729998,33.1600515 316.025962,33.1600515 Z M305.31319,0 C285.362318,0 269.188506,16.1663572 269.188506,36.1080343 C269.188506,56.0402018 285.362318,72.206559 305.31319,72.206559 C325.254548,72.206559 341.42836,56.0402018 341.42836,36.1080343 C341.42836,16.1663572 325.254548,0 305.31319,0 L305.31319,0 Z" id="path-2"></path>
        <filter x="-50%" y="-50%" width="200%" height="200%" filterUnits="objectBoundingBox" id="filter-3">
            <feOffset dx="0" dy="2" in="SourceAlpha" result="shadowOffsetOuter1"></feOffset>
            <feGaussianBlur stdDeviation="2" in="shadowOffsetOuter1" result="shadowBlurOuter1"></feGaussianBlur>
            <feColorMatrix values="0 0 0 0 0   0 0 0 0 0   0 0 0 0 0  0 0 0 0.774711277 0" type="matrix" in="shadowBlurOuter1"></feColorMatrix>
        </filter>
    </defs>
    <g id="Large-Screen-1920-x-1080" stroke="none" stroke-width="1" fill="none" fill-rule="evenodd">
        <g id="simple" transform="translate(-1054.000000, -544.000000)">
            <g id="with-tape" transform="translate(0.000000, -128.000000)">
                <g id="Form" transform="translate(685.000000, 251.000000)">
                    <g id="contacts" transform="translate(96.000000, 423.000000)">
                        <g id="watercolore-tape">
                            <g id="icons" transform="translate(8.541815, 0.000000)">
                                <g id="hover">
                                    <use fill="black" fill-opacity="1" filter="url(#filter-3)" xlink:href="#path-2"></use>
                                    <use fill="url(#radialGradient-1)" fill-rule="evenodd" xlink:href="#path-2"></use>
                                </g>
                            </g>
                        </g>
                    </g>
                </g>
            </g>
        </g>
    </g>
</svg>