<?xml version="1.0" encoding="UTF-8"?>
<svg width="103px" height="103px" viewBox="0 0 103 103" version="1.1" xmlns="http://www.w3.org/2000/svg" xmlns:xlink="http://www.w3.org/1999/xlink">
    <!-- Generator: Sketch 40.3 (33839) - http://www.bohemiancoding.com/sketch -->
    <title>Shape</title>
    <desc>Created with Sketch.</desc>
    <defs>
        <path d="M66.185961,69.9018833 L31.216252,69.9018833 C28.200975,69.9018833 25.573555,67.8750165 25.573555,64.8722508 L25.573555,29.8775188 C25.573555,26.8747531 28.200975,24.8603977 31.216252,24.8603977 L66.185961,24.8603977 C69.188726,24.8603977 71.866193,26.8747531 71.866193,29.8775188 L71.866193,64.8722508 C71.866193,67.8750165 69.188726,69.9018833 66.185961,69.9018833 L66.185961,69.9018833 L66.185961,69.9018833 Z M39.936784,47.4311866 C39.936784,42.5642039 43.877914,38.6230739 48.744897,38.6230739 C53.624391,38.6230739 57.578032,42.5642039 57.578032,47.4311866 C57.578032,52.2856578 53.624391,56.2267878 48.744897,56.2267878 C43.877914,56.2267878 39.936784,52.2856578 39.936784,47.4311866 L39.936784,47.4311866 L39.936784,47.4311866 L39.936784,47.4311866 Z M65.610431,35.9330963 C65.610431,36.727578 64.966087,37.3719215 64.171605,37.3719215 L59.542342,37.3719215 C58.74786,37.3719215 58.103516,36.727578 58.103516,35.9330963 L58.103516,31.3038325 C58.103516,30.5093507 58.74786,29.8650072 59.542342,29.8650072 L64.171605,29.8650072 C64.966087,29.8650072 65.610431,30.5093507 65.610431,31.3038325 L65.610431,35.9330963 L65.610431,35.9330963 L65.610431,35.9330963 L65.610431,35.9330963 Z M61.594232,43.6276834 L66.861583,43.6276834 L66.861583,64.5719742 C66.861583,65.3727117 66.686422,66.1484262 65.898196,66.1484262 L31.491505,66.1484262 C30.703279,66.1484262 30.578164,65.3727117 30.578164,64.5719742 L30.578164,43.6276834 L35.79547,43.6276834 C35.044778,43.6276834 34.794548,46.4302647 34.794548,47.7064401 C34.794548,55.3760042 41.062821,61.4941393 48.744897,61.4941393 C56.451995,61.4941393 62.707757,55.4448176 62.707757,47.7752535 C62.707757,46.4990781 62.520084,43.6276834 61.594232,43.6276834 L61.594232,43.6276834 L61.594232,43.6276834 L61.594232,43.6276834 Z M47.506256,0 C21.26959,0 0,21.2695904 0,47.5062558 C0,73.7304096 21.26959,95 47.506256,95 C73.73041,95 95,73.7304096 95,47.5062558 C95,21.2695904 73.73041,0 47.506256,0 L47.506256,0 L47.506256,0 L47.506256,0 L47.506256,0 Z" id="path-1"></path>
        <filter x="-50%" y="-50%" width="200%" height="200%" filterUnits="objectBoundingBox" id="filter-2">
            <feOffset dx="0" dy="2" in="SourceAlpha" result="shadowOffsetOuter1"></feOffset>
            <feGaussianBlur stdDeviation="2" in="shadowOffsetOuter1" result="shadowBlurOuter1"></feGaussianBlur>
            <feColorMatrix values="0 0 0 0 0   0 0 0 0 0   0 0 0 0 0  0 0 0 0.5 0" type="matrix" in="shadowBlurOuter1"></feColorMatrix>
        </filter>
    </defs>
    <g id="Page-1" stroke="none" stroke-width="1" fill="none" fill-rule="evenodd">
        <g id="instagram" transform="translate(4.000000, 2.000000)">
            <g id="Shape">
                <g>
                    <use fill="black" fill-opacity="1" filter="url(#filter-2)" xlink:href="#path-1"></use>
                    <use fill="#FFFFFF" fill-rule="evenodd" xlink:href="#path-1"></use>
                </g>
            </g>
        </g>
    </g>
</svg>