<?xml version="1.0" encoding="UTF-8"?>
<svg width="423px" height="33px" viewBox="0 0 423 33" version="1.1" xmlns="http://www.w3.org/2000/svg" xmlns:xlink="http://www.w3.org/1999/xlink">
    <!-- Generator: Sketch 40.3 (33839) - http://www.bohemiancoding.com/sketch -->
    <title>separator</title>
    <desc>Created with Sketch.</desc>
    <defs>
        <polygon id="path-1" points="29.0706508 0.301 0.000344065362 0.301 0.000344065362 6.12474554 29.0706508 6.12474554"></polygon>
        <polygon id="path-3" points="29.0706508 0.301 0.000344065362 0.301 0.000344065362 6.12474554 29.0706508 6.12474554"></polygon>
        <polygon id="path-5" points="14.07 5.63686529 14.07 0.744467969 0.705723868 0.744467969 0.705723868 5.63686529"></polygon>
        <polygon id="path-7" points="14.07 5.63686529 14.07 0.744467969 0.705723868 0.744467969 0.705723868 5.63686529"></polygon>
    </defs>
    <g id="Page-1" stroke="none" stroke-width="1" fill="none" fill-rule="evenodd">
        <g id="separator">
            <g id="Group">
                <g>
                    <g id="left-tracery" transform="translate(0.000000, 7.000000)">
                        <path d="M29.8060304,5.51755216 C26.8640304,5.98555216 24.7523,6.2508 21.8303,6.8198 C18.7343,7.4238 15.4933,7.9248 12.8003,9.6858 C7.9733,12.8428 7.4563,18.6498 11.4323,22.7428 C13.9593,25.3438 20.4373,27.4518 22.8713,23.5438 C25.0903,19.9828 19.1493,15.3528 17.4363,19.2128 C17.0313,20.1248 18.8223,21.4668 19.4843,20.6008 C20.6743,19.0438 21.3323,21.4338 20.5033,22.3568 C20.0113,22.9048 19.1183,23.1368 18.4173,23.2778 C16.7823,23.6068 15.1573,23.2528 13.7753,22.3108 C9.8093,19.6078 10.4893,14.4958 14.0123,11.8238 C16.8083,9.7038 20.4963,9.2638 23.8073,8.4468 C26.3633,7.8158 28.8151727,6.16595833 31.4908444,6.16595833" id="Fill-1" fill="#1E120F"></path>
                        <g id="Group-5" transform="translate(0.000000, 0.699400)">
                            <g id="Fill-3-Clipped">
                                <g>
                                    <mask id="mask-2" fill="white">
                                        <use xlink:href="#path-1"></use>
                                    </mask>
                                    <g id="path-1"></g>
                                    <path d="M26.1199341,4.42022891 C23.890686,4.319 19.3158,4.401 14.9688,3.228 C11.6398,2.329 8.3668,0.881 4.9318,0.418 C3.2428,0.19 0.6218,0.088 0.0918,2.154 C-0.3832,4.005 1.0608,5.575 2.8328,5.709 C3.8548,5.785 3.2908,4.626 2.8348,4.319 C1.4608,3.395 2.9788,2.405 4.1168,2.368 C5.1978,2.332 6.2298,2.564 7.2748,2.82 C9.7278,3.419 12.1148,4.252 14.5558,4.895 C19.1388,6.102 24.0648,6.628 28.7188,5.508 C29.5818,5.3 29.9013672,5.1141376 29.14889,4.64824481 L28.3962402,4.55847354" id="Fill-3" fill="#1E120F" mask="url(#mask-2)"></path>
                                </g>
                            </g>
                        </g>
                        <path d="M26.5987,5.5401 C22.8137,5.5531 19.0397,6.2231 15.2527,6.3511 C11.9627,6.4621 8.7017,5.8131 5.4477,5.8991 C3.6297,5.9481 1.5977,6.6421 1.3447,8.7181 C1.1457,10.3451 2.4517,11.6961 3.9217,12.1071 C4.9707,12.4011 4.7277,11.1971 4.1217,10.8101 C2.1597,9.5591 4.7027,8.1271 5.5997,7.9851 C6.5747,7.8301 7.6467,8.0461 8.6227,8.1351 C10.6937,8.3251 12.7657,8.3601 14.8427,8.2691" id="Fill-6" fill="#1E120F"></path>
                        <path d="M28.1284,5.3871 C22.1834,6.1741 15.9084,7.3031 10.1114,8.8861 C6.8544,9.7761 1.8384,12.0751 5.0484,16.1081 C5.5264,16.7081 6.8254,16.6221 6.3184,15.6571 C4.2794,11.7751 12.5934,10.3691 14.7694,9.8881 C19.4364,8.8571 24.3104,8.1081 28.7694,6.3431 C29.3444,6.1151 28.5174,5.3351 28.1284,5.3871" id="Fill-8" fill="#1E120F"></path>
                        <path d="M74.8565549,6.58215606 C96.1870898,6.61935609 158.813794,6.55265018 158.834578,6.36371282 C158.876414,5.98339169 158.834578,5.98339169 158.876414,5.53567642 C158.896034,5.32571349 147.241835,5.39602384 141.274081,5.39968285 C131.490437,5.40639106 121.400696,5.41248942 111.617052,5.41858779 C90.3185571,5.43261403 49.6600701,5.3289418 28.3615755,5.39968285 C21.504963,5.42285664 27.9419516,6.50226745 28.3615755,6.51446419" id="Fill-10" fill="#1E120F"></path>
                    </g>
                    <g id="left-tracery-copy" transform="translate(343.500000, 20.000000) scale(-1, 1) translate(-343.500000, -20.000000) translate(264.000000, 7.000000)">
                        <path d="M29.8060304,5.51755216 C26.8640304,5.98555216 24.7523,6.2508 21.8303,6.8198 C18.7343,7.4238 15.4933,7.9248 12.8003,9.6858 C7.9733,12.8428 7.4563,18.6498 11.4323,22.7428 C13.9593,25.3438 20.4373,27.4518 22.8713,23.5438 C25.0903,19.9828 19.1493,15.3528 17.4363,19.2128 C17.0313,20.1248 18.8223,21.4668 19.4843,20.6008 C20.6743,19.0438 21.3323,21.4338 20.5033,22.3568 C20.0113,22.9048 19.1183,23.1368 18.4173,23.2778 C16.7823,23.6068 15.1573,23.2528 13.7753,22.3108 C9.8093,19.6078 10.4893,14.4958 14.0123,11.8238 C16.8083,9.7038 20.4963,9.2638 23.8073,8.4468 C26.3633,7.8158 28.8151727,6.16595833 31.4908444,6.16595833" id="Fill-1" fill="#1E120F"></path>
                        <g id="Group-5" transform="translate(0.000000, 0.699400)">
                            <g id="Fill-3-Clipped">
                                <g>
                                    <mask id="mask-4" fill="white">
                                        <use xlink:href="#path-3"></use>
                                    </mask>
                                    <g id="path-1"></g>
                                    <path d="M26.1199341,4.42022891 C23.890686,4.319 19.3158,4.401 14.9688,3.228 C11.6398,2.329 8.3668,0.881 4.9318,0.418 C3.2428,0.19 0.6218,0.088 0.0918,2.154 C-0.3832,4.005 1.0608,5.575 2.8328,5.709 C3.8548,5.785 3.2908,4.626 2.8348,4.319 C1.4608,3.395 2.9788,2.405 4.1168,2.368 C5.1978,2.332 6.2298,2.564 7.2748,2.82 C9.7278,3.419 12.1148,4.252 14.5558,4.895 C19.1388,6.102 24.0648,6.628 28.7188,5.508 C29.5818,5.3 29.9013672,5.1141376 29.14889,4.64824481 L28.3962402,4.55847354" id="Fill-3" fill="#1E120F" mask="url(#mask-4)"></path>
                                </g>
                            </g>
                        </g>
                        <path d="M26.5987,5.5401 C22.8137,5.5531 19.0397,6.2231 15.2527,6.3511 C11.9627,6.4621 8.7017,5.8131 5.4477,5.8991 C3.6297,5.9481 1.5977,6.6421 1.3447,8.7181 C1.1457,10.3451 2.4517,11.6961 3.9217,12.1071 C4.9707,12.4011 4.7277,11.1971 4.1217,10.8101 C2.1597,9.5591 4.7027,8.1271 5.5997,7.9851 C6.5747,7.8301 7.6467,8.0461 8.6227,8.1351 C10.6937,8.3251 12.7657,8.3601 14.8427,8.2691" id="Fill-6" fill="#1E120F"></path>
                        <path d="M28.1284,5.3871 C22.1834,6.1741 15.9084,7.3031 10.1114,8.8861 C6.8544,9.7761 1.8384,12.0751 5.0484,16.1081 C5.5264,16.7081 6.8254,16.6221 6.3184,15.6571 C4.2794,11.7751 12.5934,10.3691 14.7694,9.8881 C19.4364,8.8571 24.3104,8.1081 28.7694,6.3431 C29.3444,6.1151 28.5174,5.3351 28.1284,5.3871" id="Fill-8" fill="#1E120F"></path>
                        <path d="M74.8565549,6.58215606 C96.1870898,6.61935609 158.813794,6.55265018 158.834578,6.36371282 C158.876414,5.98339169 158.834578,5.98339169 158.876414,5.53567642 C158.896034,5.32571349 147.241835,5.39602384 141.274081,5.39968285 C131.490437,5.40639106 121.400696,5.41248942 111.617052,5.41858779 C90.3185571,5.43261403 49.6600701,5.3289418 28.3615755,5.39968285 C21.504963,5.42285664 27.9419516,6.50226745 28.3615755,6.51446419" id="Fill-10" fill="#1E120F"></path>
                    </g>
                    <g id="middle-tracery" transform="translate(193.000000, 0.000000)">
                        <g id="Group-3" transform="translate(21.000000, 10.083900)">
                            <g id="Fill-1-Clipped">
                                <g>
                                    <mask id="mask-6" fill="white">
                                        <use xlink:href="#path-5"></use>
                                    </mask>
                                    <g id="path-5"></g>
                                    <path d="M6.57476807,2.77193496 C7.07087722,2.59563697 11.9307861,1.66426895 11.0375,3.3253 C10.6809856,3.98822482 5.72785818,3.96743057 5.15100098,3.96743057 C4.13909513,3.96743057 1.97949219,3.96743057 1.21636963,3.7373 C0.45324707,3.50716943 0.570323769,3.8493077 0.794433594,3.96743057 C2.66843359,4.95443057 14.9025,6.9923 14.0235,3.1333 C12.9365,-1.6317 3.9475,2.0293 1.4455,3.0623 C0.7845,3.3353 1.79852295,3.31743418 1.4455,3.82595107" id="Fill-1" fill="#1E120F" mask="url(#mask-6)"></path>
                                </g>
                            </g>
                        </g>
                        <g id="Group-3-Copy" transform="translate(7.781838, 13.000000) scale(-1, 1) translate(-7.781838, -13.000000) translate(0.281838, 10.000000)">
                            <g id="Fill-1-Clipped">
                                <g>
                                    <mask id="mask-8" fill="white">
                                        <use xlink:href="#path-7"></use>
                                    </mask>
                                    <g id="path-5"></g>
                                    <path d="M6.57476807,2.77193496 C7.07087722,2.59563697 11.9307861,1.66426895 11.0375,3.3253 C10.6809856,3.98822482 5.72785818,3.96743057 5.15100098,3.96743057 C4.13909513,3.96743057 1.97949219,3.96743057 1.21636963,3.7373 C0.45324707,3.50716943 0.570323769,3.8493077 0.794433594,3.96743057 C2.66843359,4.95443057 14.9025,6.9923 14.0235,3.1333 C12.9365,-1.6317 3.9475,2.0293 1.4455,3.0623 C0.7845,3.3353 1.79852295,3.31743418 1.4455,3.82595107" id="Fill-1" fill="#1E120F" mask="url(#mask-8)"></path>
                                </g>
                            </g>
                        </g>
                        <path d="M21.7528,14.4843 C23.6088,13.4103 24.2878,11.1773 23.2918,9.2573 C22.7448,8.2043 21.8068,7.4243 21.1158,6.4733 C19.8468,4.7293 19.5998,2.7983 18.9088,0.8403 C18.7638,0.4313 17.5398,-0.5187 17.3708,0.3633 C16.9998,2.3073 17.8388,4.3513 18.8328,6.0123 C19.3638,6.8993 20.1128,7.5903 20.6978,8.4213 C21.2738,9.2373 22.0028,10.4843 21.9548,11.5393 C21.9208,12.2833 21.3088,13.2513 21.1868,14.0163 C21.1448,14.2793 21.4758,14.6443 21.7528,14.4843" id="Fill-4" fill="#1E120F"></path>
                        <path d="M14.953,14.2202 C14.597,12.5112 13.764,11.2422 14.869,9.5162 C15.556,8.4442 16.623,7.6842 17.299,6.5662 C18.354,4.8192 19.096,2.8782 18.769,0.8402 C18.675,0.2542 17.539,-0.3678 17.232,0.3632 C16.507,2.0882 16.38,3.8412 15.344,5.4782 C14.636,6.5972 13.567,7.4702 12.923,8.6202 C11.758,10.7042 12.65,13.0202 14.453,14.4022 C14.649,14.5522 15.023,14.5562 14.953,14.2202" id="Fill-11" fill="#1E120F"></path>
                        <path d="M11.0825,15.3425 C10.2605,15.7565 9.3425,16.1225 8.6415,16.7345 C7.4655,17.7605 7.5515,19.5195 9.2215,19.9755 C10.6825,20.3735 12.4095,19.6155 13.4935,18.6745 C14.5705,17.7395 15.699374,16.0005 15.128374,14.5265 C14.965374,14.1065 14.9628716,14.0493846 14.5348716,14.6273846 C14.4000934,14.8098073 13.0606484,15.7898615 12.271249,16.2377692 C11.2215417,16.8333764 10.5712729,17.0277281 10.2744409,17.2344872 C9.85787435,17.5246477 9.45720516,17.7877038 9.86578863,18.3014702 C10.2743721,18.8152366 11.4843858,18.0858708 11.5657059,18.0372019 C12.2278238,17.6409344 13.1085763,16.8077377 13.7764768,15.9759785 C14.0960242,15.5780353 14.3110023,15.115258 14.5348716,14.8231771 C14.8606073,14.3981918 14.5145,13.8605 14.1185,13.9845 C13.0635,14.3145 12.0675,14.8455 11.0825,15.3425 Z" id="Fill-13" fill="#1E120F"></path>
                        <path d="M24.2329263,15.3761241 C23.4109263,15.7901241 22.4929263,16.1561241 21.7919263,16.7681241 C20.6159263,17.7941241 20.7019263,19.5531241 22.3719263,20.0091241 C23.8329263,20.4071241 25.5599263,19.6491241 26.6439263,18.7081241 C27.7209263,17.7731241 28.8498003,16.0341241 28.2788003,14.5601241 C28.1158003,14.1401241 28.1132979,14.0830087 27.6852979,14.6610087 C27.5505197,14.8434314 26.2110747,15.8234856 25.4216753,16.2713933 C24.371968,16.8670005 23.7216992,17.0613522 23.4248672,17.2681113 C23.0083006,17.5582718 22.6076314,17.8213279 23.0162149,18.3350943 C23.4247984,18.8488607 24.634812,18.1194949 24.7161322,18.070826 C25.3782501,17.6745585 26.2590026,16.8413618 26.9269031,16.0096026 C27.2464505,15.6116594 27.4614286,15.1488821 27.6852979,14.8568012 C28.0110336,14.4318159 27.6649263,13.8941241 27.2689263,14.0181241 C26.2139263,14.3481241 25.2179263,14.8791241 24.2329263,15.3761241 Z" id="Fill-13-Copy" fill="#1E120F" transform="translate(24.716132, 17.058746) scale(-1, 1) translate(-24.716132, -17.058746) "></path>
                    </g>
                </g>
            </g>
            <path d="M211.198654,14.5521851 C212.303224,14.5521851 213.097305,13.1045695 213.097305,12 C213.097305,10.8954305 212.317124,10 211.212555,10 C210.107985,10 209.300003,10.8954305 209.300003,12 C209.300003,13.1045695 210.094085,14.5521851 211.198654,14.5521851 Z" id="Oval" stroke="#000000"></path>
        </g>
    </g>
</svg>